M48
;Layer_Color=9474304
;FILE_FORMAT=2:5
INCH,TZ
;TYPE=PLATED
T01F00S00C0.00787
T02F00S00C0.04000
T03F00S00C0.12598
;TYPE=NON_PLATED
T04F00S00C0.03937
%
T01
X11811Y2362
X14317
X16679Y2362
X21654Y2362
Y10630
X30315
X31496Y2362
X33858Y2362
X37795Y5512
X42126Y2362
X40551Y11811
X39370Y13386
X42224Y15748
X49213Y16929
Y21713
Y26772
X39391Y27162
X40551Y23622
X41535Y32677
X39370Y32677
X37303Y35571
X39764Y42126
X42217Y45276
X42906Y55101
X35433Y53543
X34646Y49606
X26772Y53150
X19291Y46457
X17717Y39370
X15354Y40945
X13780Y39370
X11024
X9055
X5906Y38189
Y35571
X2362Y31496
X2341Y28350
Y26381
X2341Y24409
X2362Y22441
Y20079
Y17717
Y15748
Y13780
X11811Y10630
X10236Y27559
X13386Y30709
X22047
X30709Y30315
X29528Y21654
X31956Y39363
X25591Y39370
X23228
Y41339
X87402Y36614
X92506Y41353
X92520Y44094
Y48031
X91732Y55502
X126378Y44094
X144095Y52362
X158661Y51968
X161417Y55502
X167323Y55512
X191732Y46850
Y22441
X156299Y10630
Y4331
X126772Y11024
X92913Y5512
X88189Y2756
X88976Y60236
X87693Y80268
X92913Y81890
X140945Y72441
X144095Y74016
X164567Y67323
X167323Y62598
X164961Y57480
X158268Y60236
X180315Y70079
X50197Y69895
X50152Y74910
X41961Y75787
X41339Y72441
Y67323
Y62598
X43169Y59914
X35039Y56693
X23622Y60433
Y62402
X20472Y61811
X7874Y59842
X4724Y57087
X3937Y64173
X5906
X2545Y75183
X11811Y75984
X33071Y71653
X38583Y83465
X41803Y84252
X50100Y64925
T02
X188189Y56929
Y66929
Y76929
T03
X105905Y27559
T04
X18703Y54331
Y71653
M30
