G04*
G04 #@! TF.GenerationSoftware,Altium Limited,Altium Designer,24.0.1 (36)*
G04*
G04 Layer_Physical_Order=4*
G04 Layer_Color=16711680*
%FSLAX25Y25*%
%MOIN*%
G70*
G04*
G04 #@! TF.SameCoordinates,293640EE-8F9E-4A3F-9B7E-3BA848117B77*
G04*
G04*
G04 #@! TF.FilePolarity,Positive*
G04*
G01*
G75*
%ADD10C,0.00787*%
%ADD11C,0.00394*%
%ADD15C,0.00591*%
%ADD16C,0.01181*%
G04:AMPARAMS|DCode=19|XSize=18.9mil|YSize=21.65mil|CornerRadius=3.12mil|HoleSize=0mil|Usage=FLASHONLY|Rotation=270.000|XOffset=0mil|YOffset=0mil|HoleType=Round|Shape=RoundedRectangle|*
%AMROUNDEDRECTD19*
21,1,0.01890,0.01542,0,0,270.0*
21,1,0.01266,0.02165,0,0,270.0*
1,1,0.00624,-0.00771,-0.00633*
1,1,0.00624,-0.00771,0.00633*
1,1,0.00624,0.00771,0.00633*
1,1,0.00624,0.00771,-0.00633*
%
%ADD19ROUNDEDRECTD19*%
G04:AMPARAMS|DCode=20|XSize=16.14mil|YSize=21.26mil|CornerRadius=2.66mil|HoleSize=0mil|Usage=FLASHONLY|Rotation=270.000|XOffset=0mil|YOffset=0mil|HoleType=Round|Shape=RoundedRectangle|*
%AMROUNDEDRECTD20*
21,1,0.01614,0.01593,0,0,270.0*
21,1,0.01082,0.02126,0,0,270.0*
1,1,0.00533,-0.00797,-0.00541*
1,1,0.00533,-0.00797,0.00541*
1,1,0.00533,0.00797,0.00541*
1,1,0.00533,0.00797,-0.00541*
%
%ADD20ROUNDEDRECTD20*%
%ADD21O,0.07874X0.02362*%
G04:AMPARAMS|DCode=40|XSize=18.9mil|YSize=21.65mil|CornerRadius=3.12mil|HoleSize=0mil|Usage=FLASHONLY|Rotation=0.000|XOffset=0mil|YOffset=0mil|HoleType=Round|Shape=RoundedRectangle|*
%AMROUNDEDRECTD40*
21,1,0.01890,0.01542,0,0,0.0*
21,1,0.01266,0.02165,0,0,0.0*
1,1,0.00624,0.00633,-0.00771*
1,1,0.00624,-0.00633,-0.00771*
1,1,0.00624,-0.00633,0.00771*
1,1,0.00624,0.00633,0.00771*
%
%ADD40ROUNDEDRECTD40*%
%ADD41C,0.03937*%
%ADD44C,0.31496*%
%ADD45C,0.01575*%
%ADD46C,0.01181*%
%ADD47C,0.06000*%
%ADD48R,0.05000X0.13504*%
%ADD49O,0.08858X0.01968*%
G04:AMPARAMS|DCode=50|XSize=78.74mil|YSize=98.43mil|CornerRadius=19.68mil|HoleSize=0mil|Usage=FLASHONLY|Rotation=90.000|XOffset=0mil|YOffset=0mil|HoleType=Round|Shape=RoundedRectangle|*
%AMROUNDEDRECTD50*
21,1,0.07874,0.05906,0,0,90.0*
21,1,0.03937,0.09843,0,0,90.0*
1,1,0.03937,0.02953,0.01968*
1,1,0.03937,0.02953,-0.01968*
1,1,0.03937,-0.02953,-0.01968*
1,1,0.03937,-0.02953,0.01968*
%
%ADD50ROUNDEDRECTD50*%
G36*
X24506Y85009D02*
X24658Y84509D01*
X24178Y84188D01*
X23655Y83404D01*
X23471Y82480D01*
Y81012D01*
X28839D01*
X34206D01*
Y82480D01*
X34022Y83404D01*
X33499Y84188D01*
X33019Y84509D01*
X33171Y85009D01*
X37923Y85009D01*
X38023Y84511D01*
X37914Y84466D01*
X37830Y84382D01*
X37731Y84316D01*
X37665Y84218D01*
X37581Y84134D01*
X37536Y84024D01*
X37470Y83925D01*
X37447Y83809D01*
X37402Y83700D01*
Y83581D01*
X37378Y83465D01*
X37402Y83348D01*
Y83230D01*
X37447Y83120D01*
X37454Y83086D01*
Y82897D01*
X37454Y82897D01*
X37545Y82436D01*
X37806Y82046D01*
X38287Y81566D01*
Y81113D01*
X38368Y80702D01*
X38601Y80353D01*
X38832Y80199D01*
X38865Y80063D01*
Y79780D01*
X38832Y79643D01*
X38601Y79489D01*
X38368Y79141D01*
X38287Y78730D01*
Y77648D01*
X38368Y77237D01*
X38601Y76889D01*
X38950Y76656D01*
X39361Y76574D01*
X40520D01*
X40719Y76441D01*
X41142Y76357D01*
X42268D01*
X42478Y76041D01*
X43130Y75606D01*
X43898Y75454D01*
X48603D01*
X48640Y75421D01*
X48852Y74954D01*
X48729Y74769D01*
X48669Y74468D01*
X43898D01*
X43130Y74315D01*
X42478Y73880D01*
X42199Y73461D01*
X42008Y73442D01*
X41574Y73622D01*
X41104D01*
X40670Y73442D01*
X40337Y73110D01*
X40157Y72676D01*
Y72206D01*
X40337Y71772D01*
X40670Y71440D01*
X41104Y71260D01*
X41574D01*
X42008Y71440D01*
X42227Y71418D01*
X42478Y71041D01*
X43130Y70606D01*
X43898Y70454D01*
X48646D01*
X48764Y70313D01*
X48891Y69954D01*
X48729Y69710D01*
X48680Y69468D01*
X43898D01*
X43130Y69315D01*
X42478Y68880D01*
X42114Y68335D01*
X42008Y68324D01*
X41574Y68504D01*
X41104D01*
X40670Y68324D01*
X40337Y67992D01*
X40157Y67558D01*
Y67088D01*
X40337Y66654D01*
X40670Y66321D01*
X41104Y66142D01*
X41574D01*
X42008Y66321D01*
X42311Y66292D01*
X42478Y66041D01*
X43130Y65606D01*
X43898Y65453D01*
X48586D01*
X48807Y64954D01*
X48729Y64835D01*
X48655Y64468D01*
X43898D01*
X43130Y64315D01*
X42478Y63880D01*
X42311Y63630D01*
X42008Y63600D01*
X41574Y63779D01*
X41104D01*
X40670Y63600D01*
X40337Y63267D01*
X40157Y62833D01*
Y62479D01*
X39823Y62269D01*
X39696Y62233D01*
X39487Y62441D01*
X38859Y62804D01*
X38158Y62992D01*
X37433D01*
X36731Y62804D01*
X36103Y62441D01*
X35590Y61928D01*
X35227Y61300D01*
X35039Y60599D01*
Y60116D01*
X34539Y60066D01*
X34446Y60534D01*
X34055Y61120D01*
X33983Y61168D01*
Y61602D01*
X34056Y61720D01*
X34444Y62301D01*
X34582Y62992D01*
X34444Y63683D01*
X34056Y64264D01*
X33983Y64382D01*
Y64816D01*
X34055Y64864D01*
X34446Y65451D01*
X34584Y66142D01*
X34446Y66833D01*
X34055Y67419D01*
X33711Y67649D01*
X33692Y68237D01*
X33775Y68293D01*
X34082Y68751D01*
X34089Y68791D01*
X29333D01*
X24576D01*
X24584Y68751D01*
X24890Y68293D01*
X24974Y68237D01*
X24954Y67649D01*
X24611Y67419D01*
X24219Y66833D01*
X24081Y66142D01*
X24219Y65451D01*
X24607Y64870D01*
X24681Y64752D01*
Y64318D01*
X24609Y64269D01*
X24217Y63683D01*
X23954Y63543D01*
X23857Y63583D01*
X23387D01*
X22953Y63403D01*
X22621Y63071D01*
X22441Y62637D01*
Y62167D01*
X22621Y61733D01*
X22936Y61417D01*
X22621Y61102D01*
X22441Y60668D01*
Y60198D01*
X22621Y59764D01*
X22953Y59432D01*
X23387Y59252D01*
X23857D01*
X23955Y59293D01*
X24219Y59151D01*
X24607Y58570D01*
X24681Y58453D01*
Y58018D01*
X24609Y57970D01*
X24217Y57384D01*
X24080Y56693D01*
X24217Y56002D01*
X24609Y55416D01*
X25195Y55024D01*
X25886Y54887D01*
X32776D01*
X33467Y55024D01*
X34053Y55416D01*
X34102Y55489D01*
X35039D01*
X35156Y55512D01*
X35274D01*
X35384Y55557D01*
X35500Y55580D01*
X35599Y55646D01*
X35708Y55692D01*
X35792Y55775D01*
X35891Y55841D01*
X35957Y55940D01*
X36041Y56024D01*
X36086Y56134D01*
X36152Y56232D01*
X36173Y56336D01*
X37341Y57505D01*
X37433Y57480D01*
X38158D01*
X38859Y57668D01*
X39487Y58031D01*
X40001Y58544D01*
X40363Y59172D01*
X40551Y59873D01*
Y60599D01*
X40386Y61215D01*
X40439Y61285D01*
X40591Y61428D01*
X40797Y61544D01*
X41104Y61417D01*
X41574D01*
X42008Y61597D01*
X42114Y61587D01*
X42276Y61344D01*
X42454Y61003D01*
X42207Y60622D01*
X42168Y60583D01*
X41988Y60149D01*
Y59679D01*
X42168Y59245D01*
X42287Y59126D01*
X42388Y58973D01*
X42455Y58907D01*
Y58844D01*
X42043Y58229D01*
X41891Y57461D01*
X42043Y56693D01*
X42300Y56309D01*
X42237Y56103D01*
X41905Y55770D01*
X41725Y55336D01*
Y54866D01*
X41905Y54432D01*
X42237Y54100D01*
X42471Y54003D01*
X42524Y53928D01*
X42649Y53506D01*
X42645Y53431D01*
X42408Y53078D01*
X42385Y52961D01*
X46654D01*
Y52461D01*
X47153D01*
Y50849D01*
X49409D01*
X50026Y50971D01*
X50272Y51135D01*
X50772Y50868D01*
Y49448D01*
X50331Y49212D01*
X50178Y49315D01*
X49409Y49468D01*
X43898D01*
X43130Y49315D01*
X42478Y48880D01*
X41936Y48850D01*
X41656Y49117D01*
Y49609D01*
X41570Y50038D01*
X41327Y50402D01*
X40964Y50645D01*
X40535Y50730D01*
X40049D01*
X40043Y50740D01*
X40310Y51240D01*
X40535D01*
X40813Y51295D01*
X41048Y51452D01*
X41205Y51688D01*
X41261Y51965D01*
Y52098D01*
X39764D01*
Y52598D01*
X39264D01*
Y53957D01*
X38993D01*
X38715Y53902D01*
X38480Y53745D01*
X38323Y53509D01*
X38267Y53232D01*
Y52703D01*
X37767Y52436D01*
X37685Y52491D01*
X37225Y52582D01*
X37225Y52582D01*
X24213D01*
X23752Y52491D01*
X23361Y52229D01*
X23361Y52229D01*
X18440Y47308D01*
X18374Y47210D01*
X18290Y47126D01*
X18245Y47016D01*
X18179Y46918D01*
X18156Y46801D01*
X18110Y46692D01*
Y46573D01*
X18087Y46457D01*
X18110Y46340D01*
Y46222D01*
X18156Y46112D01*
X18179Y45996D01*
X18245Y45897D01*
X18290Y45788D01*
X18374Y45704D01*
X18440Y45605D01*
X18538Y45539D01*
X18622Y45455D01*
X18732Y45410D01*
X18831Y45344D01*
X18947Y45321D01*
X19056Y45276D01*
X19175D01*
X19291Y45252D01*
X19408Y45276D01*
X19526D01*
X19636Y45321D01*
X19752Y45344D01*
X19851Y45410D01*
X19960Y45455D01*
X20044Y45539D01*
X20143Y45605D01*
X23357Y48819D01*
X23745Y48500D01*
X23655Y48365D01*
X23471Y47441D01*
Y45972D01*
X28839D01*
X34206D01*
Y47441D01*
X34022Y48365D01*
X33499Y49148D01*
X32715Y49672D01*
X32707Y49674D01*
X32756Y50174D01*
X36726D01*
X37872Y49027D01*
Y48343D01*
X37958Y47914D01*
X38201Y47551D01*
X38286Y47494D01*
Y42506D01*
X38286Y42506D01*
X38312Y42377D01*
X34223Y38288D01*
X33877Y38519D01*
X33448Y38604D01*
X33311D01*
Y39213D01*
X33311Y39213D01*
X33219Y39673D01*
X32958Y40064D01*
X32958Y40064D01*
X32807Y40215D01*
X32709Y40281D01*
X32625Y40365D01*
X32515Y40410D01*
X32417Y40476D01*
X32300Y40499D01*
X32191Y40544D01*
X32072D01*
X31956Y40567D01*
X31840Y40544D01*
X31721D01*
X31611Y40499D01*
X31495Y40476D01*
X31396Y40410D01*
X31287Y40365D01*
X31203Y40281D01*
X31104Y40215D01*
X31038Y40116D01*
X30955Y40032D01*
X30909Y39923D01*
X30843Y39824D01*
X30820Y39708D01*
X30775Y39598D01*
Y39480D01*
X30752Y39363D01*
X30775Y39247D01*
Y39128D01*
X30820Y39019D01*
X30843Y38902D01*
X30902Y38814D01*
Y37959D01*
X30871Y37912D01*
X30806Y37583D01*
X30296D01*
X30280Y37663D01*
X30123Y37898D01*
X29887Y38056D01*
X29609Y38111D01*
X29476D01*
Y36614D01*
Y35118D01*
X29609D01*
X29887Y35173D01*
X30123Y35330D01*
X30280Y35566D01*
X30335Y35844D01*
Y35920D01*
X30835Y35969D01*
X30871Y35788D01*
X31114Y35425D01*
X31478Y35182D01*
X31907Y35097D01*
X33019D01*
X33108Y34956D01*
X32891Y34587D01*
X31907D01*
X31629Y34532D01*
X31393Y34375D01*
X31236Y34139D01*
X31181Y33861D01*
Y33728D01*
X32677D01*
Y33228D01*
X33177D01*
Y31448D01*
X33210Y31370D01*
X29580Y27740D01*
X27302D01*
X27154Y27961D01*
X27005Y28061D01*
Y28632D01*
X27154Y28732D01*
X27397Y29096D01*
X27482Y29524D01*
Y30791D01*
X27397Y31219D01*
X27154Y31583D01*
X26930Y31733D01*
X27023Y31871D01*
X27108Y32300D01*
Y33842D01*
X27023Y34271D01*
X26795Y34612D01*
Y35073D01*
X27023Y35415D01*
X27108Y35844D01*
Y37385D01*
X27023Y37814D01*
X26780Y38178D01*
X26719Y38218D01*
Y38991D01*
X26726Y39026D01*
X26772Y39135D01*
Y39254D01*
X26795Y39370D01*
X26772Y39487D01*
Y39605D01*
X26726Y39715D01*
X26703Y39831D01*
X26637Y39930D01*
X26592Y40039D01*
X26508Y40123D01*
X26442Y40222D01*
X26344Y40288D01*
X26260Y40371D01*
X26150Y40417D01*
X26051Y40483D01*
X25935Y40506D01*
X25826Y40551D01*
X25707D01*
X25591Y40574D01*
X25474Y40551D01*
X25356D01*
X25246Y40506D01*
X25130Y40483D01*
X25031Y40417D01*
X24922Y40371D01*
X24850Y40300D01*
X24818Y40290D01*
X24389Y40349D01*
X24231Y40473D01*
X24219Y40659D01*
X24230Y40670D01*
X24389Y41054D01*
X24462Y41125D01*
X24909Y41308D01*
X24962Y41273D01*
X25886Y41089D01*
X28339D01*
Y44972D01*
X23471D01*
Y43504D01*
X23575Y42982D01*
X23571Y42967D01*
X23157Y42520D01*
X22993D01*
X22559Y42340D01*
X22227Y42008D01*
X22203Y41948D01*
X16018D01*
X15589Y42126D01*
X15119D01*
X14685Y41946D01*
X14353Y41614D01*
X14173Y41180D01*
Y41013D01*
X14055Y40669D01*
X13711Y40551D01*
X13545D01*
X13111Y40371D01*
X12949Y40210D01*
X12820Y40184D01*
X12574Y40020D01*
X12025Y40039D01*
X11693Y40371D01*
X11259Y40551D01*
X10789D01*
X10355Y40371D01*
X10039Y40056D01*
X9724Y40371D01*
X9290Y40551D01*
X8820D01*
X8386Y40371D01*
X8054Y40039D01*
X7874Y39605D01*
Y39135D01*
X8054Y38701D01*
X8386Y38369D01*
X8609Y38276D01*
X8832Y37753D01*
X8834Y37689D01*
X8759Y37312D01*
Y36231D01*
X8841Y35820D01*
X9074Y35471D01*
X9304Y35317D01*
X9338Y35181D01*
Y34898D01*
X9304Y34762D01*
X9074Y34607D01*
X8841Y34259D01*
X8759Y33848D01*
Y33395D01*
X8179Y32816D01*
X7893Y33007D01*
X7464Y33092D01*
X5922D01*
X5493Y33007D01*
X5130Y32764D01*
X5037Y32625D01*
X2741D01*
X2707Y32632D01*
X2597Y32677D01*
X2479D01*
X2362Y32700D01*
X2246Y32677D01*
X2127D01*
X2106Y32668D01*
X1838Y32778D01*
X1688Y32899D01*
X1606Y33012D01*
Y43005D01*
X2106Y43055D01*
X2200Y42580D01*
X2723Y41796D01*
X3507Y41273D01*
X4431Y41089D01*
X6884D01*
Y45472D01*
Y49856D01*
X4431D01*
X3507Y49672D01*
X2723Y49148D01*
X2200Y48365D01*
X2106Y47890D01*
X1606Y47940D01*
Y78045D01*
X2106Y78094D01*
X2200Y77619D01*
X2723Y76836D01*
X3507Y76312D01*
X4431Y76128D01*
X6884D01*
Y80512D01*
X7384D01*
Y81012D01*
X12752D01*
Y82480D01*
X12568Y83404D01*
X12044Y84188D01*
X11564Y84509D01*
X11716Y85009D01*
X24506D01*
D02*
G37*
G36*
X139330Y72939D02*
X139332Y72938D01*
X139504Y72834D01*
X139741Y72441D01*
Y50788D01*
X139741Y50787D01*
X139832Y50327D01*
X140093Y49936D01*
X144071Y45958D01*
Y45354D01*
X139945D01*
X139912Y45520D01*
X139651Y45911D01*
X132348Y53214D01*
X131957Y53475D01*
X131496Y53566D01*
X131496Y53566D01*
X98924D01*
X94511Y57979D01*
Y62205D01*
X94420Y62666D01*
X94159Y63056D01*
X88903Y68312D01*
X88512Y68573D01*
X88051Y68665D01*
X88051Y68665D01*
X87586D01*
X87443Y68880D01*
X86792Y69315D01*
X86024Y69468D01*
X80512D01*
X79744Y69315D01*
X79590Y69212D01*
X79149Y69448D01*
Y70473D01*
X79590Y70709D01*
X79744Y70606D01*
X80512Y70454D01*
X86024D01*
X86792Y70606D01*
X87443Y71041D01*
X87586Y71256D01*
X137028D01*
X137028Y71256D01*
X137488Y71348D01*
X137879Y71609D01*
X139224Y72954D01*
X139330Y72939D01*
D02*
G37*
G36*
X192913Y85009D02*
X193143D01*
X193593Y84919D01*
X194018Y84743D01*
X194399Y84488D01*
X194724Y84163D01*
X194979Y83781D01*
X195155Y83357D01*
X195245Y82907D01*
X195245Y82677D01*
X195245Y3937D01*
Y3707D01*
X195155Y3257D01*
X194979Y2833D01*
X194724Y2451D01*
X194399Y2126D01*
X194018Y1871D01*
X193593Y1695D01*
X193143Y1606D01*
X192913D01*
X79149Y1606D01*
Y45473D01*
X79590Y45709D01*
X79744Y45606D01*
X80512Y45454D01*
X86024D01*
X86792Y45606D01*
X87443Y46041D01*
X87586Y46256D01*
X89291D01*
X89291Y46256D01*
X89752Y46348D01*
X89882Y46435D01*
X90928D01*
X91357Y46521D01*
X91721Y46763D01*
X91816Y46906D01*
X92124D01*
X92175Y46896D01*
X92285Y46850D01*
X92403D01*
X92520Y46827D01*
X92636Y46850D01*
X92755D01*
X92864Y46896D01*
X92980Y46919D01*
X93079Y46985D01*
X93189Y47030D01*
X93273Y47114D01*
X93371Y47180D01*
X93437Y47279D01*
X93521Y47363D01*
X93566Y47472D01*
X93632Y47571D01*
X93655Y47687D01*
X93701Y47797D01*
Y47915D01*
X93724Y48031D01*
X93701Y48148D01*
Y48266D01*
X93655Y48376D01*
X93632Y48492D01*
X93566Y48591D01*
X93521Y48700D01*
X93437Y48784D01*
X93371Y48883D01*
X93292Y48962D01*
X93194Y49028D01*
X93189Y49033D01*
X93182Y49036D01*
X92902Y49223D01*
X92441Y49314D01*
X92441Y49314D01*
X91921D01*
X91721Y49615D01*
X91357Y49858D01*
X90928Y49943D01*
X89386D01*
X88958Y49858D01*
X88594Y49615D01*
X88351Y49251D01*
X88266Y48822D01*
Y48665D01*
X87586D01*
X87443Y48880D01*
X86792Y49315D01*
X86024Y49468D01*
X80512D01*
X79744Y49315D01*
X79590Y49212D01*
X79149Y49448D01*
Y50868D01*
X79649Y51135D01*
X79895Y50971D01*
X80512Y50849D01*
X82768D01*
Y52461D01*
Y54073D01*
X80512D01*
X79895Y53950D01*
X79649Y53786D01*
X79149Y54053D01*
Y55473D01*
X79590Y55709D01*
X79744Y55606D01*
X80512Y55453D01*
X86024D01*
X86792Y55606D01*
X87443Y56041D01*
X87586Y56256D01*
X89292D01*
X89326Y56205D01*
X90881Y54650D01*
X90979Y54585D01*
X91063Y54501D01*
X91173Y54455D01*
X91271Y54389D01*
X91388Y54366D01*
X91497Y54321D01*
X91616D01*
X91732Y54298D01*
X91849Y54321D01*
X91967D01*
X92077Y54366D01*
X92193Y54389D01*
X92292Y54455D01*
X92401Y54501D01*
X92485Y54585D01*
X92584Y54650D01*
X92650Y54749D01*
X92734Y54833D01*
X92779Y54943D01*
X92845Y55041D01*
X92868Y55157D01*
X92913Y55267D01*
Y55386D01*
X92926Y55451D01*
X93110Y55564D01*
X93409Y55670D01*
X93413Y55671D01*
X97574Y51511D01*
X97574Y51511D01*
X97964Y51250D01*
X98425Y51158D01*
X130997D01*
X137595Y44560D01*
Y39921D01*
X137595Y39921D01*
X137618Y39805D01*
Y30276D01*
X144071D01*
Y26424D01*
X142490Y24843D01*
X137618D01*
Y9764D01*
X144193D01*
Y23140D01*
X146127Y25074D01*
X146127Y25074D01*
X146388Y25464D01*
X146480Y25925D01*
X146480Y25925D01*
Y46457D01*
X146480Y46457D01*
X146388Y46918D01*
X146127Y47308D01*
X142149Y51286D01*
Y72441D01*
X142126Y72557D01*
Y72676D01*
X142081Y72786D01*
X142057Y72902D01*
X141992Y73000D01*
X141946Y73110D01*
X141862Y73194D01*
X141796Y73292D01*
X141698Y73358D01*
X141614Y73442D01*
X141504Y73488D01*
X141406Y73554D01*
X141289Y73577D01*
X141180Y73622D01*
X141061D01*
X140945Y73645D01*
X140552Y73882D01*
X140448Y74054D01*
X140447Y74056D01*
X140432Y74162D01*
X146956Y80686D01*
X186120D01*
X186254Y80186D01*
X185863Y79960D01*
X185158Y79255D01*
X184660Y78391D01*
X184591Y78133D01*
X171389D01*
X170929Y78042D01*
X170538Y77781D01*
X157416Y64659D01*
X157155Y64268D01*
X157063Y63807D01*
X157063Y63807D01*
Y60236D01*
X157087Y60120D01*
Y60001D01*
X157132Y59892D01*
X157155Y59775D01*
X157221Y59677D01*
X157266Y59567D01*
X157350Y59483D01*
X157416Y59385D01*
X157515Y59319D01*
X157599Y59235D01*
X157708Y59189D01*
X157807Y59124D01*
X157923Y59101D01*
X158033Y59055D01*
X158151D01*
X158268Y59032D01*
X158384Y59055D01*
X158503D01*
X158612Y59101D01*
X158729Y59124D01*
X158827Y59189D01*
X158937Y59235D01*
X159021Y59319D01*
X159119Y59385D01*
X159185Y59483D01*
X159269Y59567D01*
X159314Y59677D01*
X159380Y59775D01*
X159403Y59892D01*
X159449Y60001D01*
Y60120D01*
X159472Y60236D01*
Y63309D01*
X162901Y66738D01*
X163363Y66546D01*
Y61114D01*
X163363Y61114D01*
X163454Y60653D01*
X163715Y60262D01*
X164813Y59165D01*
X164814Y59148D01*
X164776Y58939D01*
X164643Y58627D01*
X164616Y58616D01*
X164500Y58593D01*
X164401Y58527D01*
X164292Y58482D01*
X164208Y58398D01*
X164109Y58332D01*
X164043Y58233D01*
X163959Y58149D01*
X163914Y58040D01*
X163848Y57941D01*
X163825Y57825D01*
X163779Y57715D01*
Y57597D01*
X163756Y57480D01*
Y45354D01*
X162622D01*
Y55502D01*
X162598Y55618D01*
Y55737D01*
X162553Y55847D01*
X162530Y55963D01*
X162464Y56061D01*
X162419Y56171D01*
X162335Y56255D01*
X162269Y56353D01*
X162170Y56419D01*
X162086Y56503D01*
X161977Y56549D01*
X161878Y56615D01*
X161762Y56638D01*
X161652Y56683D01*
X161534D01*
X161417Y56706D01*
X161301Y56683D01*
X161182D01*
X161073Y56638D01*
X160957Y56615D01*
X160858Y56549D01*
X160748Y56503D01*
X160664Y56419D01*
X160566Y56353D01*
X160500Y56255D01*
X160416Y56171D01*
X160371Y56061D01*
X160305Y55963D01*
X160282Y55847D01*
X160236Y55737D01*
Y55618D01*
X160213Y55502D01*
Y52604D01*
X160159Y52582D01*
X159713Y52521D01*
X159708Y52528D01*
X159663Y52637D01*
X159579Y52721D01*
X159513Y52820D01*
X159434Y52899D01*
X159336Y52965D01*
X159330Y52970D01*
X159324Y52973D01*
X159044Y53160D01*
X158583Y53251D01*
X158583Y53251D01*
X157579D01*
X157462Y53426D01*
X157113Y53659D01*
X156702Y53741D01*
X155109D01*
X154698Y53659D01*
X154349Y53426D01*
X154116Y53078D01*
X154034Y52667D01*
Y51585D01*
X154116Y51174D01*
X154349Y50826D01*
X154580Y50671D01*
X154613Y50535D01*
Y50252D01*
X154580Y50116D01*
X154349Y49962D01*
X154116Y49613D01*
X154034Y49202D01*
Y48121D01*
X154116Y47710D01*
X154349Y47361D01*
X154698Y47128D01*
X154701Y47127D01*
Y27054D01*
X152490Y24843D01*
X147618D01*
Y9764D01*
X154193D01*
Y23140D01*
X156757Y25704D01*
X156757Y25704D01*
X157018Y26094D01*
X157110Y26555D01*
X157110Y26555D01*
Y47127D01*
X157113Y47128D01*
X157462Y47361D01*
X157695Y47710D01*
X157776Y48121D01*
Y49202D01*
X157695Y49613D01*
X157462Y49962D01*
X157365Y50026D01*
X157308Y50572D01*
X157570Y50843D01*
X158266D01*
X158317Y50833D01*
X158426Y50787D01*
X158545D01*
X158661Y50764D01*
X158778Y50787D01*
X158896D01*
X159006Y50833D01*
X159122Y50856D01*
X159221Y50922D01*
X159330Y50967D01*
X159414Y51051D01*
X159513Y51117D01*
X159579Y51216D01*
X159663Y51300D01*
X159708Y51409D01*
X159713Y51416D01*
X160159Y51355D01*
X160213Y51333D01*
Y45354D01*
X157618D01*
Y30276D01*
X163756D01*
Y26109D01*
X162490Y24843D01*
X157618D01*
Y11688D01*
X157598Y11674D01*
X157290Y11541D01*
X157118Y11503D01*
X157052Y11547D01*
X156968Y11631D01*
X156859Y11677D01*
X156760Y11743D01*
X156644Y11766D01*
X156534Y11811D01*
X156415D01*
X156299Y11834D01*
X156183Y11811D01*
X156064D01*
X155955Y11766D01*
X155838Y11743D01*
X155740Y11677D01*
X155630Y11631D01*
X155546Y11547D01*
X155448Y11481D01*
X155382Y11383D01*
X155298Y11299D01*
X155253Y11189D01*
X155187Y11091D01*
X155164Y10975D01*
X155118Y10865D01*
Y10746D01*
X155095Y10630D01*
Y4331D01*
X155118Y4214D01*
Y4096D01*
X155164Y3986D01*
X155187Y3870D01*
X155253Y3771D01*
X155298Y3662D01*
X155382Y3578D01*
X155448Y3479D01*
X155546Y3413D01*
X155630Y3329D01*
X155740Y3284D01*
X155838Y3218D01*
X155955Y3195D01*
X156064Y3150D01*
X156183D01*
X156299Y3127D01*
X156415Y3150D01*
X156534D01*
X156644Y3195D01*
X156760Y3218D01*
X156859Y3284D01*
X156968Y3329D01*
X157052Y3413D01*
X157151Y3479D01*
X157217Y3578D01*
X157300Y3662D01*
X157346Y3771D01*
X157412Y3870D01*
X157435Y3986D01*
X157480Y4096D01*
Y4214D01*
X157503Y4331D01*
Y9311D01*
X157618Y9764D01*
X158003Y9764D01*
X164193D01*
Y23140D01*
X165812Y24759D01*
X165812Y24759D01*
X166073Y25149D01*
X166165Y25610D01*
X166165Y25610D01*
Y57106D01*
X166665Y57313D01*
X174780Y49198D01*
Y27133D01*
X172490Y24843D01*
X167618D01*
Y9764D01*
X174193D01*
Y23140D01*
X176836Y25782D01*
X176836Y25782D01*
X177097Y26173D01*
X177189Y26634D01*
Y30106D01*
X177618Y30276D01*
X177689Y30276D01*
X184193D01*
X184229Y29790D01*
Y26581D01*
X182490Y24843D01*
X177618D01*
Y9764D01*
X184193D01*
Y23140D01*
X186285Y25231D01*
X186285Y25231D01*
X186546Y25622D01*
X186637Y26083D01*
X186637Y26083D01*
Y44488D01*
X186637Y44488D01*
X186546Y44949D01*
X186285Y45340D01*
X186285Y45340D01*
X168174Y63450D01*
X168076Y63516D01*
X167992Y63600D01*
X167882Y63645D01*
X167784Y63711D01*
X167667Y63734D01*
X167558Y63779D01*
X167439D01*
X167323Y63803D01*
X167207Y63779D01*
X167088D01*
X166978Y63734D01*
X166862Y63711D01*
X166763Y63645D01*
X166654Y63600D01*
X166570Y63516D01*
X166471Y63450D01*
X166405Y63351D01*
X166322Y63267D01*
X166276Y63158D01*
X166271Y63150D01*
X165825Y63212D01*
X165771Y63234D01*
Y67323D01*
X165748Y67439D01*
Y67558D01*
X165703Y67667D01*
X165680Y67784D01*
X165614Y67882D01*
X165568Y67992D01*
X165484Y68076D01*
X165419Y68174D01*
X165320Y68240D01*
X165236Y68324D01*
X165207Y68336D01*
X165101Y68584D01*
X165076Y68790D01*
X165095Y68932D01*
X171888Y75725D01*
X184591D01*
X184660Y75467D01*
X185158Y74604D01*
X185863Y73899D01*
X186727Y73400D01*
X187690Y73142D01*
X188688D01*
X189651Y73400D01*
X190515Y73899D01*
X191220Y74604D01*
X191603Y75267D01*
X192103Y75133D01*
Y72546D01*
X189882Y70325D01*
X189651Y70458D01*
X188688Y70717D01*
X187690D01*
X186727Y70458D01*
X185863Y69960D01*
X185158Y69255D01*
X184660Y68391D01*
X184402Y67428D01*
Y66430D01*
X184660Y65467D01*
X185158Y64604D01*
X185863Y63898D01*
X186727Y63400D01*
X187690Y63142D01*
X188688D01*
X189651Y63400D01*
X190515Y63898D01*
X191220Y64604D01*
X191718Y65467D01*
X191976Y66430D01*
Y67428D01*
X191718Y68391D01*
X191585Y68622D01*
X194159Y71196D01*
X194420Y71586D01*
X194511Y72047D01*
Y77724D01*
X194420Y78185D01*
X194159Y78575D01*
X194159Y78575D01*
X189993Y82741D01*
X189602Y83002D01*
X189141Y83094D01*
X189141Y83094D01*
X146457D01*
X146457Y83094D01*
X145996Y83002D01*
X145605Y82741D01*
X145605Y82741D01*
X136529Y73665D01*
X87586D01*
X87443Y73880D01*
X86792Y74315D01*
X86024Y74468D01*
X80512D01*
X79744Y74315D01*
X79590Y74212D01*
X79149Y74448D01*
Y75473D01*
X79590Y75709D01*
X79744Y75606D01*
X80512Y75454D01*
X86024D01*
X86792Y75606D01*
X87443Y76041D01*
X87586Y76256D01*
X89173D01*
X89173Y76256D01*
X89634Y76348D01*
X89972Y76574D01*
X90954D01*
X91365Y76656D01*
X91714Y76889D01*
X91947Y77237D01*
X92028Y77648D01*
Y78730D01*
X91947Y79141D01*
X91714Y79489D01*
X91483Y79643D01*
X91450Y79780D01*
Y80063D01*
X91483Y80199D01*
X91714Y80353D01*
X91857Y80567D01*
X92795D01*
X92795Y80567D01*
X93256Y80659D01*
X93647Y80920D01*
X93765Y81038D01*
X93831Y81137D01*
X93915Y81221D01*
X93960Y81330D01*
X94026Y81429D01*
X94049Y81545D01*
X94095Y81655D01*
Y81773D01*
X94118Y81890D01*
X94095Y82006D01*
Y82125D01*
X94049Y82234D01*
X94026Y82351D01*
X93960Y82449D01*
X93915Y82559D01*
X93831Y82643D01*
X93765Y82741D01*
X93666Y82807D01*
X93582Y82891D01*
X93473Y82937D01*
X93374Y83002D01*
X93258Y83025D01*
X93148Y83071D01*
X93030D01*
X92913Y83094D01*
X92797Y83071D01*
X92678D01*
X92569Y83025D01*
X92453Y83002D01*
X92413Y82976D01*
X91681D01*
X91365Y83187D01*
X90954Y83269D01*
X89361D01*
X88950Y83187D01*
X88601Y82954D01*
X88368Y82605D01*
X88287Y82194D01*
Y81113D01*
X88368Y80702D01*
X88601Y80353D01*
X88832Y80199D01*
X88865Y80063D01*
Y79780D01*
X88832Y79643D01*
X88601Y79489D01*
X88368Y79141D01*
X88287Y78730D01*
Y78665D01*
X87586D01*
X87443Y78880D01*
X86792Y79315D01*
X86024Y79468D01*
X80512D01*
X79744Y79315D01*
X79590Y79212D01*
X79149Y79448D01*
Y80868D01*
X79649Y81135D01*
X79895Y80971D01*
X80512Y80848D01*
X82768D01*
Y82461D01*
Y84073D01*
X80512D01*
X79895Y83950D01*
X79649Y83786D01*
X79149Y84053D01*
Y85009D01*
X192913Y85009D01*
D02*
G37*
G36*
X20258Y35820D02*
X20491Y35471D01*
X20839Y35238D01*
X21251Y35157D01*
X22844D01*
X23255Y35238D01*
X23403Y35299D01*
X23876Y34969D01*
X23896Y34843D01*
X23843Y34507D01*
X23825Y34479D01*
X23398Y34350D01*
X23217Y34400D01*
X23104Y34475D01*
X22844Y34527D01*
X22547D01*
Y33307D01*
Y32087D01*
X22844D01*
X23104Y32139D01*
X23121Y32150D01*
X23658Y31970D01*
X23668Y31960D01*
X23686Y31871D01*
X23929Y31508D01*
X23962Y31486D01*
X23784Y31219D01*
X23699Y30791D01*
Y29524D01*
X23784Y29096D01*
X24027Y28732D01*
X24176Y28632D01*
Y28117D01*
X23809Y27740D01*
X19428D01*
X19280Y27961D01*
X19131Y28061D01*
Y28632D01*
X19280Y28732D01*
X19523Y29096D01*
X19608Y29524D01*
Y30791D01*
X19523Y31219D01*
X19345Y31485D01*
X19378Y31507D01*
X19621Y31871D01*
X19707Y32300D01*
Y33841D01*
X19621Y34270D01*
X19464Y34506D01*
X19411Y34842D01*
X19464Y35178D01*
X19621Y35414D01*
X19707Y35843D01*
Y36029D01*
X20207Y36078D01*
X20258Y35820D01*
D02*
G37*
G36*
X13558Y25684D02*
X13949Y25423D01*
X14410Y25331D01*
X14410Y25331D01*
X16005D01*
X16153Y25110D01*
X16517Y24867D01*
X16946Y24782D01*
X18487D01*
X18916Y24867D01*
X19280Y25110D01*
X19428Y25331D01*
X23879D01*
X24027Y25110D01*
X24391Y24867D01*
X24820Y24782D01*
X25600D01*
X25791Y24320D01*
X25310Y23838D01*
X8222D01*
X6203Y25858D01*
X6410Y26358D01*
X7464D01*
X7742Y26413D01*
X7977Y26570D01*
X8134Y26806D01*
X8190Y27084D01*
Y27217D01*
X6693D01*
Y27716D01*
X6193D01*
Y29075D01*
X5922D01*
X5644Y29020D01*
X5409Y28863D01*
X5252Y28627D01*
X5196Y28350D01*
Y27942D01*
X4696Y27790D01*
X4625Y27896D01*
X3613Y28909D01*
X3287Y29126D01*
X3222Y29139D01*
X3010Y29351D01*
X2576Y29531D01*
X2412D01*
X2053Y29894D01*
X2437Y30217D01*
X2438Y30217D01*
X4927D01*
X5130Y29913D01*
X5493Y29670D01*
X5922Y29585D01*
X7464D01*
X7893Y29670D01*
X8257Y29913D01*
X8404Y30134D01*
X8405D01*
X8405Y30134D01*
X8866Y30226D01*
X8956Y30286D01*
X13558Y25684D01*
D02*
G37*
G36*
X41418Y46256D02*
X41418Y46256D01*
X42335D01*
X42478Y46041D01*
X43130Y45606D01*
X43898Y45454D01*
X49409D01*
X50178Y45606D01*
X50331Y45709D01*
X50772Y45473D01*
Y27400D01*
X50272Y27301D01*
X50214Y27441D01*
X49882Y27773D01*
X49448Y27953D01*
X48978D01*
X48544Y27773D01*
X48211Y27441D01*
X48034Y27012D01*
X39348Y18326D01*
X5534D01*
X3541Y20319D01*
X3364Y20748D01*
X3031Y21080D01*
X2597Y21260D01*
X2127D01*
X2106Y21251D01*
X1606Y21585D01*
Y22894D01*
X2106Y23228D01*
X2106Y23228D01*
X2518D01*
X5196Y20550D01*
X5522Y20333D01*
X5906Y20256D01*
X26378D01*
X26762Y20333D01*
X27088Y20550D01*
X29254Y22717D01*
X30237D01*
X30688Y22424D01*
Y22153D01*
X32047D01*
Y21653D01*
X32547D01*
Y20157D01*
X32680D01*
X32958Y20212D01*
X33193Y20369D01*
X33351Y20605D01*
X33406Y20883D01*
Y21869D01*
X33773Y22085D01*
X33915Y21994D01*
Y20883D01*
X34001Y20454D01*
X34244Y20090D01*
X34607Y19847D01*
X35036Y19762D01*
X36302D01*
X36731Y19847D01*
X37095Y20090D01*
X37335Y20449D01*
X38582D01*
X38583Y20449D01*
X39043Y20541D01*
X39434Y20802D01*
X41403Y22771D01*
X41469Y22869D01*
X41552Y22953D01*
X41598Y23063D01*
X41664Y23161D01*
X41687Y23278D01*
X41732Y23387D01*
Y23506D01*
X41755Y23622D01*
X41732Y23738D01*
Y23857D01*
X41687Y23967D01*
X41664Y24083D01*
X41598Y24182D01*
X41552Y24291D01*
X41469Y24375D01*
X41403Y24474D01*
X41304Y24539D01*
X41220Y24623D01*
X41111Y24669D01*
X41012Y24735D01*
X40896Y24758D01*
X40786Y24803D01*
X40668D01*
X40551Y24826D01*
X40435Y24803D01*
X40316D01*
X40207Y24758D01*
X40090Y24735D01*
X39992Y24669D01*
X39882Y24623D01*
X39798Y24540D01*
X39700Y24474D01*
X38084Y22858D01*
X37335D01*
X37095Y23217D01*
X37074Y23426D01*
X39632Y25983D01*
X40060Y26161D01*
X40392Y26493D01*
X40572Y26927D01*
Y27397D01*
X40392Y27831D01*
X40060Y28163D01*
X39928Y28218D01*
X39808Y28805D01*
X40080Y29077D01*
X40297Y29402D01*
X40374Y29786D01*
Y32013D01*
X40551Y32442D01*
Y32912D01*
X40371Y33346D01*
X40039Y33678D01*
X39605Y33858D01*
X39135D01*
X38807Y33722D01*
X38455Y33874D01*
X38307Y33991D01*
Y34907D01*
X38484Y35336D01*
Y35806D01*
X38305Y36240D01*
X37972Y36572D01*
X37538Y36752D01*
X37068D01*
X36533Y37071D01*
X36514Y37173D01*
X40615Y41274D01*
X40681Y41373D01*
X40765Y41457D01*
X40810Y41567D01*
X40876Y41665D01*
X40900Y41781D01*
X40945Y41891D01*
Y42010D01*
X40968Y42126D01*
Y42232D01*
X40968Y42232D01*
X40945Y42349D01*
Y42361D01*
X40940Y42372D01*
X40876Y42693D01*
X40694Y42966D01*
Y45968D01*
X41194Y46301D01*
X41418Y46256D01*
D02*
G37*
G36*
X19218Y13457D02*
X19207Y13450D01*
X13769Y8012D01*
X13307Y8203D01*
Y8743D01*
X13252Y9021D01*
X13095Y9257D01*
X12859Y9414D01*
X12582Y9469D01*
X12311D01*
Y8110D01*
X11811D01*
Y7610D01*
X10314D01*
Y7477D01*
X10369Y7199D01*
X10527Y6964D01*
X10762Y6807D01*
X11040Y6751D01*
X11264D01*
X11531Y6251D01*
X11525Y6242D01*
X11040D01*
X10611Y6157D01*
X10248Y5914D01*
X10005Y5550D01*
X9919Y5121D01*
Y3855D01*
X10005Y3426D01*
X10248Y3063D01*
X10607Y2823D01*
Y2362D01*
X10607Y2362D01*
X10630Y2245D01*
Y2127D01*
X10639Y2106D01*
X10530Y1839D01*
X10408Y1688D01*
X10295Y1606D01*
X3707D01*
X3257Y1695D01*
X2833Y1871D01*
X2451Y2126D01*
X2126Y2451D01*
X1871Y2833D01*
X1695Y3257D01*
X1606Y3707D01*
X1606Y3937D01*
Y12273D01*
X2106Y12607D01*
X2127Y12598D01*
X2597D01*
X3031Y12778D01*
X3077Y12824D01*
X3197D01*
X3581Y12900D01*
X3907Y13118D01*
X4746Y13957D01*
X19066D01*
X19218Y13457D01*
D02*
G37*
G36*
X33327Y9832D02*
X33135Y9370D01*
X32595D01*
X32318Y9315D01*
X32082Y9158D01*
X31925Y8922D01*
X31870Y8645D01*
Y8374D01*
X33228D01*
Y7874D01*
X33728D01*
Y6377D01*
X33861D01*
X34139Y6432D01*
X34375Y6590D01*
X34532Y6825D01*
X34587Y7103D01*
Y7327D01*
X35087Y7594D01*
X35097Y7588D01*
Y7103D01*
X35182Y6674D01*
X35425Y6311D01*
X35788Y6067D01*
X35621Y5624D01*
X35276Y5692D01*
X35276Y5692D01*
X23365D01*
X23217Y5914D01*
X22853Y6157D01*
X22424Y6242D01*
X20883D01*
X20454Y6157D01*
X20090Y5914D01*
X19847Y5550D01*
X19762Y5121D01*
Y3855D01*
X19847Y3426D01*
X20090Y3063D01*
X20449Y2823D01*
Y2362D01*
X20449Y2362D01*
X20472Y2245D01*
Y2127D01*
X20481Y2106D01*
X20372Y1839D01*
X20250Y1688D01*
X20137Y1606D01*
X18185D01*
X17851Y2106D01*
X17860Y2127D01*
Y2597D01*
X17681Y3031D01*
X17348Y3363D01*
X16914Y3543D01*
X16444D01*
X16010Y3363D01*
X15806Y3160D01*
X15498Y3078D01*
X15190Y3160D01*
X14986Y3364D01*
X14552Y3543D01*
X14150D01*
X13960Y3656D01*
X13702Y3927D01*
Y4539D01*
X20558Y11394D01*
X31765D01*
X33327Y9832D01*
D02*
G37*
G36*
X50772Y16301D02*
Y1606D01*
X35508D01*
X35193Y2035D01*
X35237Y2200D01*
X35760Y2431D01*
X36220Y2339D01*
X38909D01*
X38909Y2339D01*
X39370Y2431D01*
X39760Y2692D01*
X41403Y4334D01*
X41403Y4334D01*
X41664Y4725D01*
X41755Y5186D01*
Y11811D01*
X41732Y11927D01*
Y12046D01*
X41687Y12156D01*
X41664Y12272D01*
X41598Y12370D01*
X41552Y12480D01*
X41469Y12564D01*
X41403Y12663D01*
X41392Y12670D01*
X41424Y12932D01*
X41565Y13170D01*
X46457D01*
X46841Y13246D01*
X47166Y13464D01*
X49453Y15750D01*
X49882Y15928D01*
X50214Y16260D01*
X50272Y16400D01*
X50772Y16301D01*
D02*
G37*
%LPC*%
G36*
X34206Y80012D02*
X29339D01*
Y76128D01*
X31791D01*
X32715Y76312D01*
X33499Y76836D01*
X34022Y77619D01*
X34206Y78543D01*
Y80012D01*
D02*
G37*
G36*
X28339D02*
X23471D01*
Y78543D01*
X23655Y77619D01*
X24178Y76836D01*
X24962Y76312D01*
X25886Y76128D01*
X28339D01*
Y80012D01*
D02*
G37*
G36*
X12752D02*
X7884D01*
Y76128D01*
X10337D01*
X11261Y76312D01*
X12044Y76836D01*
X12568Y77619D01*
X12752Y78543D01*
Y80012D01*
D02*
G37*
G36*
X32778Y70703D02*
X29833D01*
Y69791D01*
X34089D01*
X34082Y69831D01*
X33775Y70289D01*
X33318Y70595D01*
X32778Y70703D01*
D02*
G37*
G36*
X28833D02*
X25888D01*
X25348Y70595D01*
X24890Y70289D01*
X24584Y69831D01*
X24576Y69791D01*
X28833D01*
Y70703D01*
D02*
G37*
G36*
X19066Y74410D02*
X18340D01*
X17639Y74222D01*
X17011Y73859D01*
X16498Y73346D01*
X16135Y72717D01*
X15947Y72016D01*
Y71291D01*
X16135Y70590D01*
X16498Y69961D01*
X17011Y69448D01*
X17639Y69086D01*
X18340Y68898D01*
X19066D01*
X19767Y69086D01*
X20395Y69448D01*
X20908Y69961D01*
X21271Y70590D01*
X21459Y71291D01*
Y72016D01*
X21271Y72717D01*
X20908Y73346D01*
X20395Y73859D01*
X19767Y74222D01*
X19066Y74410D01*
D02*
G37*
G36*
X6140Y65354D02*
X5671D01*
X5237Y65175D01*
X4921Y64859D01*
X4606Y65175D01*
X4172Y65354D01*
X3702D01*
X3268Y65175D01*
X2936Y64842D01*
X2756Y64408D01*
Y63938D01*
X2936Y63504D01*
X3268Y63172D01*
X3702Y62992D01*
X4172D01*
X4606Y63172D01*
X4921Y63487D01*
X5237Y63172D01*
X5671Y62992D01*
X6140D01*
X6575Y63172D01*
X6907Y63504D01*
X7087Y63938D01*
Y64408D01*
X6907Y64842D01*
X6575Y65175D01*
X6140Y65354D01*
D02*
G37*
G36*
X8109Y61024D02*
X7639D01*
X7205Y60844D01*
X6873Y60512D01*
X6693Y60078D01*
Y59608D01*
X6873Y59174D01*
X7205Y58841D01*
X7639Y58661D01*
X8109D01*
X8543Y58841D01*
X8875Y59174D01*
X9055Y59608D01*
Y60078D01*
X8875Y60512D01*
X8543Y60844D01*
X8109Y61024D01*
D02*
G37*
G36*
X40535Y53957D02*
X40264D01*
Y53098D01*
X41261D01*
Y53232D01*
X41205Y53509D01*
X41048Y53745D01*
X40813Y53902D01*
X40535Y53957D01*
D02*
G37*
G36*
X19066Y57087D02*
X18340D01*
X17639Y56899D01*
X17011Y56536D01*
X16498Y56023D01*
X16135Y55394D01*
X15947Y54694D01*
Y53968D01*
X16135Y53267D01*
X16498Y52639D01*
X17011Y52125D01*
X17639Y51763D01*
X18340Y51575D01*
X19066D01*
X19767Y51763D01*
X20395Y52125D01*
X20908Y52639D01*
X21271Y53267D01*
X21459Y53968D01*
Y54694D01*
X21271Y55394D01*
X20908Y56023D01*
X20395Y56536D01*
X19767Y56899D01*
X19066Y57087D01*
D02*
G37*
G36*
X46154Y51961D02*
X42385D01*
X42408Y51844D01*
X42758Y51321D01*
X43281Y50971D01*
X43898Y50849D01*
X46154D01*
Y51961D01*
D02*
G37*
G36*
X10337Y49856D02*
X7884D01*
Y45972D01*
X12752D01*
Y47441D01*
X12568Y48365D01*
X12044Y49148D01*
X11261Y49672D01*
X10337Y49856D01*
D02*
G37*
G36*
X34206Y44972D02*
X29339D01*
Y41089D01*
X31791D01*
X32715Y41273D01*
X33499Y41796D01*
X34022Y42580D01*
X34206Y43504D01*
Y44972D01*
D02*
G37*
G36*
X12752D02*
X7884D01*
Y41089D01*
X10337D01*
X11261Y41273D01*
X12044Y41796D01*
X12568Y42580D01*
X12752Y43504D01*
Y44972D01*
D02*
G37*
G36*
X28476Y38111D02*
X28343D01*
X28066Y38056D01*
X27830Y37898D01*
X27673Y37663D01*
X27617Y37385D01*
Y37114D01*
X28476D01*
Y38111D01*
D02*
G37*
G36*
Y36114D02*
X27617D01*
Y35844D01*
X27673Y35566D01*
X27830Y35330D01*
X28066Y35173D01*
X28343Y35118D01*
X28476D01*
Y36114D01*
D02*
G37*
G36*
X6140Y39370D02*
X5671D01*
X5237Y39190D01*
X4904Y38858D01*
X4724Y38424D01*
Y37954D01*
X4904Y37520D01*
X5237Y37188D01*
X5326Y37150D01*
Y36609D01*
X5237Y36572D01*
X4904Y36240D01*
X4724Y35806D01*
Y35336D01*
X4904Y34902D01*
X5237Y34570D01*
X5671Y34390D01*
X6140D01*
X6575Y34570D01*
X6907Y34902D01*
X7087Y35336D01*
Y35806D01*
X6907Y36240D01*
X6575Y36572D01*
X6485Y36609D01*
Y37150D01*
X6575Y37188D01*
X6907Y37520D01*
X7087Y37954D01*
Y38424D01*
X6907Y38858D01*
X6575Y39190D01*
X6140Y39370D01*
D02*
G37*
G36*
X29609Y34568D02*
X29476D01*
Y33571D01*
X30335D01*
Y33842D01*
X30280Y34120D01*
X30123Y34355D01*
X29887Y34512D01*
X29609Y34568D01*
D02*
G37*
G36*
X28476D02*
X28343D01*
X28066Y34512D01*
X27830Y34355D01*
X27673Y34120D01*
X27617Y33842D01*
Y33571D01*
X28476D01*
Y34568D01*
D02*
G37*
G36*
X32177Y32728D02*
X31181D01*
Y32595D01*
X31236Y32318D01*
X31393Y32082D01*
X31629Y31925D01*
X31907Y31870D01*
X32177D01*
Y32728D01*
D02*
G37*
G36*
X30335Y32571D02*
X29476D01*
Y31574D01*
X29609D01*
X29887Y31630D01*
X30123Y31787D01*
X30280Y32023D01*
X30335Y32300D01*
Y32571D01*
D02*
G37*
G36*
X28476D02*
X27617D01*
Y32300D01*
X27673Y32023D01*
X27830Y31787D01*
X28066Y31630D01*
X28343Y31574D01*
X28476D01*
Y32571D01*
D02*
G37*
G36*
X86024Y84073D02*
X83768D01*
Y82961D01*
X87536D01*
X87513Y83078D01*
X87164Y83600D01*
X86641Y83950D01*
X86024Y84073D01*
D02*
G37*
G36*
X87536Y81961D02*
X83768D01*
Y80848D01*
X86024D01*
X86641Y80971D01*
X87164Y81321D01*
X87513Y81844D01*
X87536Y81961D01*
D02*
G37*
G36*
X180550Y71260D02*
X180080D01*
X179646Y71080D01*
X179314Y70748D01*
X179134Y70314D01*
Y69844D01*
X179314Y69410D01*
X179646Y69077D01*
X180080Y68898D01*
X180550D01*
X180984Y69077D01*
X181316Y69410D01*
X181496Y69844D01*
Y70314D01*
X181316Y70748D01*
X180984Y71080D01*
X180550Y71260D01*
D02*
G37*
G36*
X188716Y60929D02*
X188689D01*
Y57429D01*
X192189D01*
Y57456D01*
X191916Y58473D01*
X191390Y59385D01*
X190645Y60130D01*
X189733Y60656D01*
X188716Y60929D01*
D02*
G37*
G36*
X187689D02*
X187662D01*
X186645Y60656D01*
X185733Y60130D01*
X184988Y59385D01*
X184462Y58473D01*
X184189Y57456D01*
Y57429D01*
X187689D01*
Y60929D01*
D02*
G37*
G36*
X86024Y54073D02*
X83768D01*
Y52961D01*
X87536D01*
X87513Y53078D01*
X87164Y53601D01*
X86641Y53950D01*
X86024Y54073D01*
D02*
G37*
G36*
X192189Y56429D02*
X188689D01*
Y52929D01*
X188716D01*
X189733Y53202D01*
X190645Y53728D01*
X191390Y54473D01*
X191916Y55385D01*
X192189Y56402D01*
Y56429D01*
D02*
G37*
G36*
X187689D02*
X184189D01*
Y56402D01*
X184462Y55385D01*
X184988Y54473D01*
X185733Y53728D01*
X186645Y53202D01*
X187662Y52929D01*
X187689D01*
Y56429D01*
D02*
G37*
G36*
X90928Y53170D02*
X90657D01*
Y52311D01*
X91654D01*
Y52444D01*
X91599Y52722D01*
X91441Y52957D01*
X91206Y53115D01*
X90928Y53170D01*
D02*
G37*
G36*
X89657D02*
X89386D01*
X89109Y53115D01*
X88873Y52957D01*
X88716Y52722D01*
X88661Y52444D01*
Y52311D01*
X89657D01*
Y53170D01*
D02*
G37*
G36*
X87536Y51961D02*
X83768D01*
Y50849D01*
X86024D01*
X86641Y50971D01*
X87164Y51321D01*
X87513Y51844D01*
X87536Y51961D01*
D02*
G37*
G36*
X91654Y51311D02*
X90657D01*
Y50452D01*
X90928D01*
X91206Y50507D01*
X91441Y50665D01*
X91599Y50900D01*
X91654Y51178D01*
Y51311D01*
D02*
G37*
G36*
X89657D02*
X88661D01*
Y51178D01*
X88716Y50900D01*
X88873Y50665D01*
X89109Y50507D01*
X89386Y50452D01*
X89657D01*
Y51311D01*
D02*
G37*
G36*
X133806Y44967D02*
X131405D01*
Y38315D01*
X133806D01*
Y44967D01*
D02*
G37*
G36*
X130405D02*
X128006D01*
Y38315D01*
X130405D01*
Y44967D01*
D02*
G37*
G36*
X133806Y37315D02*
X131405D01*
Y30663D01*
X133806D01*
Y37315D01*
D02*
G37*
G36*
X130405D02*
X128006D01*
Y30663D01*
X130405D01*
Y37315D01*
D02*
G37*
G36*
X174193Y45354D02*
X167618D01*
Y30276D01*
X174193D01*
Y45354D01*
D02*
G37*
G36*
X144095Y75220D02*
X143978Y75197D01*
X143860D01*
X143750Y75151D01*
X143634Y75128D01*
X143535Y75062D01*
X143426Y75017D01*
X143342Y74933D01*
X143243Y74867D01*
X143177Y74769D01*
X143093Y74685D01*
X143048Y74575D01*
X142982Y74477D01*
X142959Y74360D01*
X142913Y74251D01*
Y74132D01*
X142890Y74016D01*
Y52362D01*
X142913Y52246D01*
Y52127D01*
X142959Y52018D01*
X142982Y51901D01*
X143048Y51803D01*
X143093Y51693D01*
X143177Y51609D01*
X143243Y51511D01*
X143342Y51445D01*
X143426Y51361D01*
X143535Y51315D01*
X143634Y51250D01*
X143750Y51227D01*
X143860Y51181D01*
X143978D01*
X144095Y51158D01*
X149403D01*
X149625Y50826D01*
X149855Y50671D01*
X149889Y50535D01*
Y50252D01*
X149855Y50116D01*
X149625Y49962D01*
X149392Y49613D01*
X149310Y49202D01*
Y48121D01*
X149392Y47710D01*
X149625Y47361D01*
X149973Y47128D01*
X149977Y47127D01*
Y45354D01*
X147618D01*
Y30276D01*
X154193D01*
Y45354D01*
X152385D01*
Y47127D01*
X152389Y47128D01*
X152737Y47361D01*
X152970Y47710D01*
X153052Y48121D01*
Y49202D01*
X152970Y49613D01*
X152737Y49962D01*
X152507Y50116D01*
X152473Y50252D01*
Y50535D01*
X152507Y50671D01*
X152737Y50826D01*
X152970Y51174D01*
X153052Y51585D01*
Y52667D01*
X152970Y53078D01*
X152737Y53426D01*
X152389Y53659D01*
X151978Y53741D01*
X150384D01*
X149973Y53659D01*
X149834Y53566D01*
X145299D01*
Y74016D01*
X145276Y74132D01*
Y74251D01*
X145230Y74360D01*
X145207Y74477D01*
X145141Y74575D01*
X145096Y74685D01*
X145012Y74769D01*
X144946Y74867D01*
X144847Y74933D01*
X144764Y75017D01*
X144654Y75062D01*
X144555Y75128D01*
X144439Y75151D01*
X144329Y75197D01*
X144211D01*
X144095Y75220D01*
D02*
G37*
G36*
X191967Y23622D02*
X191497D01*
X191063Y23442D01*
X190731Y23110D01*
X190551Y22676D01*
Y22206D01*
X190731Y21772D01*
X191063Y21440D01*
X191497Y21260D01*
X191967D01*
X192401Y21440D01*
X192734Y21772D01*
X192913Y22206D01*
Y22676D01*
X192734Y23110D01*
X192401Y23442D01*
X191967Y23622D01*
D02*
G37*
G36*
X133806Y24455D02*
X131405D01*
Y17803D01*
X133806D01*
Y24455D01*
D02*
G37*
G36*
X130405D02*
X128006D01*
Y17803D01*
X130405D01*
Y24455D01*
D02*
G37*
G36*
X133806Y16803D02*
X131405D01*
Y10151D01*
X133806D01*
Y16803D01*
D02*
G37*
G36*
X130405D02*
X128006D01*
Y10151D01*
X130405D01*
Y16803D01*
D02*
G37*
G36*
X89356Y42557D02*
X88895Y42465D01*
X88505Y42204D01*
X83794Y37494D01*
X83533Y37103D01*
X83441Y36642D01*
X83441Y36642D01*
Y13780D01*
X83441Y13780D01*
X83533Y13319D01*
X83794Y12928D01*
X92062Y4660D01*
X92160Y4594D01*
X92244Y4510D01*
X92354Y4465D01*
X92453Y4399D01*
X92569Y4376D01*
X92678Y4331D01*
X92797D01*
X92913Y4308D01*
X93030Y4331D01*
X93148D01*
X93258Y4376D01*
X93374Y4399D01*
X93473Y4465D01*
X93582Y4510D01*
X93666Y4594D01*
X93765Y4660D01*
X93831Y4759D01*
X93915Y4843D01*
X93960Y4952D01*
X94026Y5051D01*
X94049Y5167D01*
X94095Y5277D01*
Y5395D01*
X94118Y5512D01*
X94095Y5628D01*
Y5747D01*
X94049Y5856D01*
X94026Y5973D01*
X93960Y6071D01*
X93915Y6181D01*
X93831Y6265D01*
X93765Y6363D01*
X85850Y14278D01*
Y36143D01*
X89855Y40148D01*
X92506D01*
X92622Y40172D01*
X92741D01*
X92850Y40217D01*
X92967Y40240D01*
X93065Y40306D01*
X93175Y40351D01*
X93259Y40435D01*
X93357Y40501D01*
X93423Y40600D01*
X93507Y40683D01*
X93552Y40793D01*
X93618Y40892D01*
X93641Y41008D01*
X93687Y41118D01*
Y41236D01*
X93710Y41353D01*
X93687Y41469D01*
Y41587D01*
X93641Y41697D01*
X93618Y41813D01*
X93552Y41912D01*
X93507Y42022D01*
X93423Y42105D01*
X93357Y42204D01*
X93259Y42270D01*
X93175Y42354D01*
X93065Y42399D01*
X92967Y42465D01*
X92850Y42488D01*
X92741Y42534D01*
X92622D01*
X92506Y42557D01*
X89356D01*
X89356Y42557D01*
D02*
G37*
G36*
X21547Y34527D02*
X21251D01*
X20991Y34475D01*
X20770Y34328D01*
X20623Y34108D01*
X20571Y33848D01*
Y33807D01*
X21547D01*
Y34527D01*
D02*
G37*
G36*
Y32807D02*
X20571D01*
Y32766D01*
X20623Y32506D01*
X20770Y32286D01*
X20991Y32139D01*
X21251Y32087D01*
X21547D01*
Y32807D01*
D02*
G37*
G36*
X7464Y29075D02*
X7193D01*
Y28216D01*
X8190D01*
Y28350D01*
X8134Y28627D01*
X7977Y28863D01*
X7742Y29020D01*
X7464Y29075D01*
D02*
G37*
G36*
X31547Y21153D02*
X30688D01*
Y20883D01*
X30744Y20605D01*
X30901Y20369D01*
X31136Y20212D01*
X31414Y20157D01*
X31547D01*
Y21153D01*
D02*
G37*
G36*
X11311Y9469D02*
X11040D01*
X10762Y9414D01*
X10527Y9257D01*
X10369Y9021D01*
X10314Y8743D01*
Y8610D01*
X11311D01*
Y9469D01*
D02*
G37*
G36*
X22424D02*
X22153D01*
Y8610D01*
X23150D01*
Y8743D01*
X23095Y9021D01*
X22937Y9257D01*
X22702Y9414D01*
X22424Y9469D01*
D02*
G37*
G36*
X21153D02*
X20883D01*
X20605Y9414D01*
X20369Y9257D01*
X20212Y9021D01*
X20157Y8743D01*
Y8610D01*
X21153D01*
Y9469D01*
D02*
G37*
G36*
X23150Y7610D02*
X22153D01*
Y6751D01*
X22424D01*
X22702Y6807D01*
X22937Y6964D01*
X23095Y7199D01*
X23150Y7477D01*
Y7610D01*
D02*
G37*
G36*
X21153D02*
X20157D01*
Y7477D01*
X20212Y7199D01*
X20369Y6964D01*
X20605Y6807D01*
X20883Y6751D01*
X21153D01*
Y7610D01*
D02*
G37*
G36*
X32728Y7374D02*
X31870D01*
Y7103D01*
X31925Y6825D01*
X32082Y6590D01*
X32318Y6432D01*
X32595Y6377D01*
X32728D01*
Y7374D01*
D02*
G37*
%LPD*%
D10*
X180905Y17303D02*
Y21555D01*
X185433Y26083D01*
Y44488D01*
X167323Y62598D02*
X185433Y44488D01*
X175984Y26634D02*
Y49697D01*
X170905Y17303D02*
Y21555D01*
X175984Y26634D01*
X164567Y61114D02*
X175984Y49697D01*
X164567Y61114D02*
Y67323D01*
X140905Y21555D02*
X145276Y25925D01*
X140905Y17303D02*
Y21555D01*
X145276Y25925D02*
Y46457D01*
X140945Y50787D02*
Y72441D01*
Y50787D02*
X145276Y46457D01*
X138799Y39921D02*
Y45059D01*
X131496Y52362D02*
X138799Y45059D01*
Y39921D02*
X140905Y37815D01*
X98425Y52362D02*
X131496D01*
X93307Y57480D02*
Y62205D01*
Y57480D02*
X98425Y52362D01*
X88051Y67461D02*
X93307Y62205D01*
X161417Y38327D02*
Y55502D01*
X160906Y37815D02*
X161417Y38327D01*
X90177Y57057D02*
X91732Y55502D01*
X90177Y57057D02*
Y57461D01*
X160906Y21555D02*
X164961Y25610D01*
Y57480D01*
X160906Y17303D02*
Y21555D01*
X144095Y52362D02*
Y74016D01*
Y52362D02*
X150945D01*
X151181Y52126D01*
X158583Y52047D02*
X158661Y51968D01*
X155905Y52126D02*
X155984Y52047D01*
X158583D01*
X150906Y21555D02*
X155905Y26555D01*
Y48661D01*
X150906Y17303D02*
Y21555D01*
X151181Y38091D02*
Y48661D01*
X150906Y37815D02*
X151181Y38091D01*
X25515Y39295D02*
X25591Y39370D01*
X25515Y36925D02*
Y39295D01*
X29435Y31589D02*
X30721Y30303D01*
X28976Y33071D02*
X29435Y32613D01*
Y31589D02*
Y32613D01*
X28976Y33071D02*
Y36614D01*
X30709Y30315D02*
X31988Y31595D01*
Y32677D01*
X32540Y33228D01*
X32677D01*
X34941Y31398D02*
Y37303D01*
X30079Y26535D02*
X34941Y31398D01*
X25591Y26535D02*
X30079D01*
X6595Y31421D02*
X6685Y31330D01*
X2362Y31496D02*
X2437Y31421D01*
X6595D01*
X25398Y36807D02*
X25515Y36925D01*
X2545Y75183D02*
X2620Y75258D01*
Y75900D01*
X7232Y80512D01*
X7384D01*
X84646Y36642D02*
X89356Y41353D01*
X92506D01*
X84646Y13780D02*
Y36642D01*
Y13780D02*
X92913Y5512D01*
X83268Y47461D02*
X89291D01*
X90020Y48189D01*
X90157D01*
X90158Y81653D02*
X90276Y81772D01*
X92795D01*
X92913Y81890D01*
X89902Y78189D02*
X90158D01*
X83268Y77461D02*
X89173D01*
X89902Y78189D01*
X188189Y66929D02*
X193307Y72047D01*
Y77724D01*
X189141Y81890D02*
X193307Y77724D01*
X146457Y81890D02*
X189141D01*
X137028Y72461D02*
X146457Y81890D01*
X83268Y72461D02*
X137028D01*
X158268Y63807D02*
X171389Y76929D01*
X158268Y60236D02*
Y63807D01*
X171389Y76929D02*
X188189D01*
X83268Y62461D02*
X86450D01*
X87282Y61628D01*
X87584D01*
X88976Y60236D01*
X83268Y67461D02*
X88051D01*
X83268Y57461D02*
X90177D01*
X156299Y4331D02*
Y10630D01*
X90236Y48110D02*
X92441D01*
X90157Y48189D02*
X90236Y48110D01*
X92441D02*
X92520Y48031D01*
X32047Y21653D02*
X32047Y21653D01*
X29528Y21653D02*
X32047D01*
X29528Y21654D02*
X29528Y21653D01*
X6772Y27638D02*
X10158D01*
X10236Y27559D01*
X6693Y27716D02*
X6772Y27638D01*
X39626Y52598D02*
X39764D01*
X38681Y53543D02*
X39626Y52598D01*
X35433Y53543D02*
X38681D01*
X39764Y52598D02*
X39833Y52530D01*
X30466Y10479D02*
X30761D01*
X33228Y7874D02*
Y8012D01*
X30761Y10479D02*
X33228Y8012D01*
X30315Y10630D02*
X30466Y10479D01*
X21653Y10630D02*
X21654Y10630D01*
X21653Y8110D02*
X21653Y8110D01*
Y10630D01*
X11811Y8110D02*
Y10630D01*
X11811Y10630D01*
X11811Y8110D02*
X11811Y8110D01*
X22047Y30709D02*
Y33307D01*
X13780Y31315D02*
Y32520D01*
X14331Y33071D01*
X13386Y30922D02*
X13780Y31315D01*
X13386Y30709D02*
Y30922D01*
X14331Y33071D02*
Y36614D01*
X32394Y76956D02*
X33071Y76279D01*
Y71653D02*
Y76279D01*
X28839Y80512D02*
X28971D01*
X32394Y77088D01*
Y76956D02*
Y77088D01*
X32996Y69837D02*
Y71578D01*
X33071Y71653D01*
X32450Y69291D02*
X32996Y69837D01*
X29333Y69291D02*
X32450D01*
X4775Y48082D02*
X7384Y45472D01*
X4775Y48082D02*
Y57036D01*
X4724Y57087D02*
X4775Y57036D01*
X37795Y59662D02*
Y60236D01*
X35039Y56906D02*
X37795Y59662D01*
X35039Y56693D02*
Y56906D01*
X19291Y46457D02*
X24213Y51378D01*
X37225D01*
X39626Y48976D01*
X39764D01*
X30405Y45472D02*
X34539Y49606D01*
X28839Y45472D02*
X30405D01*
X34539Y49606D02*
X34646D01*
X34941Y37303D02*
X39764Y42126D01*
X6693Y31339D02*
X8405D01*
X39764Y42126D02*
Y42232D01*
X39490Y42506D02*
X39764Y42232D01*
X39490Y42506D02*
Y48702D01*
X39764Y48976D01*
X39902D01*
X40551Y5186D02*
Y11811D01*
X38909Y3543D02*
X40551Y5186D01*
X36220Y3543D02*
X38909D01*
X35276Y4488D02*
X36220Y3543D01*
X21653Y4488D02*
X35276D01*
X36850Y7874D02*
Y8012D01*
X32264Y12598D02*
X36850Y8012D01*
X20059Y12598D02*
X32264D01*
X11949Y4488D02*
X20059Y12598D01*
X11811Y4488D02*
X11949D01*
X38583Y21653D02*
X40551Y23622D01*
X35669Y21653D02*
X38583D01*
X35669D02*
Y21791D01*
X17717Y26535D02*
X25591D01*
X9006Y31939D02*
X10374Y33307D01*
X8405Y31339D02*
X9006Y31939D01*
X14410Y26535D01*
X17717D01*
X10374Y33307D02*
X10630D01*
X38658Y82897D02*
X39902Y81653D01*
X38583Y83465D02*
X38658Y83389D01*
X39902Y81653D02*
X40157D01*
X38658Y82897D02*
Y83389D01*
X25398Y36807D02*
X25591Y36614D01*
Y33071D02*
Y36614D01*
Y30158D02*
Y33071D01*
X21653Y2362D02*
Y4488D01*
X21653Y4488D02*
X21653Y4488D01*
Y2362D02*
X21654Y2362D01*
X11811Y2362D02*
X11811Y2362D01*
X11811Y4488D02*
X11811Y4488D01*
Y2362D02*
Y4488D01*
X17717Y30158D02*
Y39370D01*
X32107Y37402D02*
X32658Y36850D01*
X32107Y37402D02*
Y39213D01*
X31956Y39363D02*
X32107Y39213D01*
X32658Y36850D02*
X32677D01*
X41418Y47461D02*
X46654D01*
X39902Y48976D02*
X41418Y47461D01*
X39833Y52530D02*
X46585D01*
X46654Y52461D01*
X41803Y84252D02*
X41955D01*
X43746Y82461D02*
X46654D01*
X41955Y84252D02*
X43746Y82461D01*
X29331Y56693D02*
X29331Y56693D01*
X35039D01*
X37402Y6119D02*
X37795Y5725D01*
X36850Y7874D02*
X37402Y7323D01*
Y6119D02*
Y7323D01*
X37795Y5512D02*
Y5725D01*
D11*
X23015Y41339D02*
X23228D01*
X15354Y40945D02*
X22622D01*
X23015Y41339D01*
X40810Y14173D02*
X46457D01*
X49213Y16929D01*
X41732Y17717D02*
X45217D01*
X49213Y21713D01*
X39764Y17323D02*
X49213Y26772D01*
X5118Y17323D02*
X39764D01*
X34092Y24508D02*
X39370Y29786D01*
Y32677D01*
X28512Y24508D02*
X34092D01*
X28838Y23720D02*
X35949D01*
X39391Y27162D01*
X28186Y25295D02*
X33765D01*
X37303Y28833D01*
Y35571D01*
X2341Y28350D02*
X2492Y28199D01*
X2903D01*
X3916Y26725D02*
Y27187D01*
X2903Y28199D02*
X3916Y27187D01*
Y26725D02*
X7806Y22835D01*
X25726D01*
X28186Y25295D01*
X2341Y26381D02*
X2492Y26230D01*
X3297D01*
X7480Y22047D01*
X26052D01*
X28512Y24508D01*
X5906Y21260D02*
X26378D01*
X2341Y24409D02*
X2491Y24259D01*
X2907D01*
X5906Y21260D01*
X2410Y13827D02*
X3197D01*
X2362Y13780D02*
X2410Y13827D01*
X3197D02*
X4331Y14961D01*
X40022D01*
X3937Y16535D02*
X40551D01*
X2362Y17717D02*
X2513Y17566D01*
X2907D02*
X3937Y16535D01*
X2513Y17566D02*
X2907D01*
X2362Y15748D02*
X42224D01*
X2362Y20079D02*
X5118Y17323D01*
X26378Y21260D02*
X28838Y23720D01*
X22647Y37371D02*
Y38576D01*
X23228Y39157D02*
Y39370D01*
X22047Y36772D02*
X22647Y37371D01*
Y38576D02*
X23228Y39157D01*
X24229Y62008D02*
X24969D01*
X25953Y62992D02*
X29331D01*
X24969Y62008D02*
X25953Y62992D01*
X23835Y60433D02*
X24229Y60827D01*
X23622Y62402D02*
X23835D01*
X24229Y62008D01*
X25955Y59842D02*
X29333D01*
X24971Y60827D02*
X25955Y59842D01*
X24229Y60827D02*
X24971D01*
X23622Y60433D02*
X23835D01*
X40551Y16535D02*
X41732Y17717D01*
X40022Y14961D02*
X40810Y14173D01*
X10630Y36772D02*
X10886D01*
X11398Y37284D01*
Y37451D01*
X13204Y39257D01*
X13667D01*
X13780Y39370D01*
D15*
X43169Y59754D02*
Y59914D01*
X43559Y58279D02*
X44377Y57461D01*
X43169Y59754D02*
X43559Y59364D01*
X44377Y57461D02*
X46654D01*
X43559Y58279D02*
Y59364D01*
X46654Y62461D02*
X48930D01*
X49748Y64413D02*
X50100Y64765D01*
Y64925D01*
X48930Y62461D02*
X49748Y63279D01*
Y64413D01*
X48930Y67461D02*
X49748Y68279D01*
Y69287D02*
X50197Y69736D01*
X46654Y67461D02*
X48930D01*
X49748Y68279D02*
Y69287D01*
X50197Y69736D02*
Y69895D01*
X50152Y74750D02*
Y74910D01*
X46654Y72461D02*
X48930D01*
X49748Y73279D01*
Y74347D01*
X50152Y74750D01*
X40413Y78189D02*
X41142Y77461D01*
X46654D01*
X40157Y78189D02*
X40413D01*
D16*
X90512Y51457D02*
X92340D01*
X90157Y51811D02*
X90512Y51457D01*
X92340D02*
X94882Y48914D01*
Y46457D02*
Y48914D01*
X92520Y44094D02*
X94882Y46457D01*
X126772Y11024D02*
X126878D01*
X126996Y11142D02*
X128996D01*
X130905Y13051D01*
X126878Y11024D02*
X126996Y11142D01*
X130905Y13051D02*
Y17303D01*
X126603Y43976D02*
X128996D01*
X130905Y37815D02*
Y42067D01*
X128996Y43976D02*
X130905Y42067D01*
X126485Y44094D02*
X126603Y43976D01*
X126378Y44094D02*
X126485D01*
X83268Y82461D02*
X85704D01*
X87618Y80547D01*
Y80343D02*
Y80547D01*
Y80343D02*
X87693Y80268D01*
X86343Y52461D02*
X86993Y51811D01*
X90157D01*
X83268Y52461D02*
X86343D01*
D19*
X90157Y51811D02*
D03*
Y48189D02*
D03*
X39764Y48976D02*
D03*
Y52598D02*
D03*
X17717Y30158D02*
D03*
Y26535D02*
D03*
X21653Y8110D02*
D03*
Y4488D02*
D03*
X6693Y27716D02*
D03*
Y31339D02*
D03*
X11811Y8110D02*
D03*
Y4488D02*
D03*
X32677Y33228D02*
D03*
Y36850D02*
D03*
X25591Y30158D02*
D03*
Y26535D02*
D03*
D20*
X151181Y48661D02*
D03*
Y52126D02*
D03*
X90158Y81653D02*
D03*
Y78189D02*
D03*
X155905Y48661D02*
D03*
Y52126D02*
D03*
X40157Y78189D02*
D03*
Y81653D02*
D03*
X10630Y36772D02*
D03*
Y33307D02*
D03*
X22047Y36772D02*
D03*
Y33307D02*
D03*
D21*
X46654Y47461D02*
D03*
Y52461D02*
D03*
Y57461D02*
D03*
Y62461D02*
D03*
Y67461D02*
D03*
Y72461D02*
D03*
Y77461D02*
D03*
Y82461D02*
D03*
X83268Y47461D02*
D03*
Y52461D02*
D03*
Y57461D02*
D03*
Y62461D02*
D03*
Y67461D02*
D03*
Y72461D02*
D03*
Y77461D02*
D03*
Y82461D02*
D03*
D40*
X33228Y7874D02*
D03*
X36850D02*
D03*
X32047Y21653D02*
D03*
X35669D02*
D03*
X14331Y33071D02*
D03*
X17953D02*
D03*
X14331Y36614D02*
D03*
X17953D02*
D03*
X28976Y33071D02*
D03*
X25354D02*
D03*
X28976Y36614D02*
D03*
X25354D02*
D03*
D41*
X37795Y60236D02*
D03*
D44*
X105905Y27559D02*
D03*
D45*
X161417Y55502D02*
D03*
X91732D02*
D03*
X164961Y57480D02*
D03*
X144095Y74016D02*
D03*
Y52362D02*
D03*
X158661Y51968D02*
D03*
X42126Y2362D02*
D03*
X41535Y32677D02*
D03*
X167323Y55512D02*
D03*
X126772Y11024D02*
D03*
X126378Y44094D02*
D03*
X180315Y70079D02*
D03*
X191732Y22441D02*
D03*
Y46850D02*
D03*
X87693Y80268D02*
D03*
X92913Y81890D02*
D03*
X158268Y60236D02*
D03*
X88976D02*
D03*
X156299Y10630D02*
D03*
Y4331D02*
D03*
X88189Y2756D02*
D03*
X92913Y5512D02*
D03*
X92520Y48031D02*
D03*
Y44094D02*
D03*
X92506Y41353D02*
D03*
X87402Y36614D02*
D03*
X140945Y72441D02*
D03*
X164567Y67323D02*
D03*
X167323Y62598D02*
D03*
X22047Y30709D02*
D03*
X39764Y42126D02*
D03*
X30315Y10630D02*
D03*
X13386Y30709D02*
D03*
X35039Y56693D02*
D03*
X37795Y5512D02*
D03*
X33858Y2362D02*
D03*
X21654D02*
D03*
X14317D02*
D03*
X16679Y2362D02*
D03*
X11811Y2362D02*
D03*
X31956Y39363D02*
D03*
X42217Y45276D02*
D03*
X41803Y84252D02*
D03*
X31496Y2362D02*
D03*
X21654Y10630D02*
D03*
X11811D02*
D03*
X29528Y21654D02*
D03*
X30709Y30315D02*
D03*
X10236Y27559D02*
D03*
D46*
X11024Y39370D02*
D03*
X9055D02*
D03*
X25591D02*
D03*
X23228Y41339D02*
D03*
X2362Y31496D02*
D03*
X7874Y59842D02*
D03*
X49213Y16929D02*
D03*
Y21713D02*
D03*
Y26772D02*
D03*
X39370Y32677D02*
D03*
X39391Y27162D02*
D03*
X2545Y75183D02*
D03*
X35433Y53543D02*
D03*
X41339Y72441D02*
D03*
Y67323D02*
D03*
Y62598D02*
D03*
X42906Y55101D02*
D03*
X5906Y38189D02*
D03*
Y35571D02*
D03*
X43169Y59914D02*
D03*
X33071Y71653D02*
D03*
X20472Y61811D02*
D03*
X41961Y75787D02*
D03*
X19291Y46457D02*
D03*
X34646Y49606D02*
D03*
X2341Y28350D02*
D03*
X37303Y35571D02*
D03*
X4724Y57087D02*
D03*
X2341Y26381D02*
D03*
X2341Y24409D02*
D03*
X2362Y13780D02*
D03*
Y15748D02*
D03*
Y17717D02*
D03*
Y20079D02*
D03*
Y22441D02*
D03*
X38583Y83465D02*
D03*
X11811Y75984D02*
D03*
X23228Y39370D02*
D03*
X15354Y40945D02*
D03*
X23622Y62402D02*
D03*
Y60433D02*
D03*
X42224Y15748D02*
D03*
X50100Y64925D02*
D03*
X50197Y69895D02*
D03*
X50152Y74910D02*
D03*
X3937Y64173D02*
D03*
X5906D02*
D03*
X26772Y53150D02*
D03*
X40551Y23622D02*
D03*
X13780Y39370D02*
D03*
X17717D02*
D03*
X39370Y13386D02*
D03*
X40551Y11811D02*
D03*
D47*
X188189Y66929D02*
D03*
Y76929D02*
D03*
Y56929D02*
D03*
D48*
X180905Y37815D02*
D03*
Y17303D02*
D03*
X170905Y37815D02*
D03*
Y17303D02*
D03*
X160906Y37815D02*
D03*
Y17303D02*
D03*
X150906Y37815D02*
D03*
Y17303D02*
D03*
X140905Y37815D02*
D03*
Y17303D02*
D03*
X130905Y37815D02*
D03*
Y17303D02*
D03*
D49*
X29333Y69291D02*
D03*
Y66142D02*
D03*
X29331Y56693D02*
D03*
X29333Y59842D02*
D03*
X29331Y62992D02*
D03*
D50*
X7384Y80512D02*
D03*
X28839D02*
D03*
Y45472D02*
D03*
X7384D02*
D03*
M02*
