G04*
G04 #@! TF.GenerationSoftware,Altium Limited,Altium Designer,24.0.1 (36)*
G04*
G04 Layer_Color=128*
%FSLAX25Y25*%
%MOIN*%
G70*
G04*
G04 #@! TF.SameCoordinates,293640EE-8F9E-4A3F-9B7E-3BA848117B77*
G04*
G04*
G04 #@! TF.FilePolarity,Positive*
G04*
G01*
G75*
G04:AMPARAMS|DCode=19|XSize=18.9mil|YSize=21.65mil|CornerRadius=3.12mil|HoleSize=0mil|Usage=FLASHONLY|Rotation=270.000|XOffset=0mil|YOffset=0mil|HoleType=Round|Shape=RoundedRectangle|*
%AMROUNDEDRECTD19*
21,1,0.01890,0.01542,0,0,270.0*
21,1,0.01266,0.02165,0,0,270.0*
1,1,0.00624,-0.00771,-0.00633*
1,1,0.00624,-0.00771,0.00633*
1,1,0.00624,0.00771,0.00633*
1,1,0.00624,0.00771,-0.00633*
%
%ADD19ROUNDEDRECTD19*%
G04:AMPARAMS|DCode=20|XSize=16.14mil|YSize=21.26mil|CornerRadius=2.66mil|HoleSize=0mil|Usage=FLASHONLY|Rotation=270.000|XOffset=0mil|YOffset=0mil|HoleType=Round|Shape=RoundedRectangle|*
%AMROUNDEDRECTD20*
21,1,0.01614,0.01593,0,0,270.0*
21,1,0.01082,0.02126,0,0,270.0*
1,1,0.00533,-0.00797,-0.00541*
1,1,0.00533,-0.00797,0.00541*
1,1,0.00533,0.00797,0.00541*
1,1,0.00533,0.00797,-0.00541*
%
%ADD20ROUNDEDRECTD20*%
%ADD21O,0.07874X0.02362*%
G04:AMPARAMS|DCode=40|XSize=18.9mil|YSize=21.65mil|CornerRadius=3.12mil|HoleSize=0mil|Usage=FLASHONLY|Rotation=0.000|XOffset=0mil|YOffset=0mil|HoleType=Round|Shape=RoundedRectangle|*
%AMROUNDEDRECTD40*
21,1,0.01890,0.01542,0,0,0.0*
21,1,0.01266,0.02165,0,0,0.0*
1,1,0.00624,0.00633,-0.00771*
1,1,0.00624,-0.00633,-0.00771*
1,1,0.00624,-0.00633,0.00771*
1,1,0.00624,0.00633,0.00771*
%
%ADD40ROUNDEDRECTD40*%
%ADD48R,0.05000X0.13504*%
%ADD49O,0.08858X0.01968*%
G04:AMPARAMS|DCode=50|XSize=78.74mil|YSize=98.43mil|CornerRadius=19.68mil|HoleSize=0mil|Usage=FLASHONLY|Rotation=90.000|XOffset=0mil|YOffset=0mil|HoleType=Round|Shape=RoundedRectangle|*
%AMROUNDEDRECTD50*
21,1,0.07874,0.05906,0,0,90.0*
21,1,0.03937,0.09843,0,0,90.0*
1,1,0.03937,0.02953,0.01968*
1,1,0.03937,0.02953,-0.01968*
1,1,0.03937,-0.02953,-0.01968*
1,1,0.03937,-0.02953,0.01968*
%
%ADD50ROUNDEDRECTD50*%
D19*
X90157Y51811D02*
D03*
Y48189D02*
D03*
X39764Y48976D02*
D03*
Y52598D02*
D03*
X17717Y30158D02*
D03*
Y26535D02*
D03*
X21653Y8110D02*
D03*
Y4488D02*
D03*
X6693Y27716D02*
D03*
Y31339D02*
D03*
X11811Y8110D02*
D03*
Y4488D02*
D03*
X32677Y33228D02*
D03*
Y36850D02*
D03*
X25591Y30158D02*
D03*
Y26535D02*
D03*
D20*
X151181Y48661D02*
D03*
Y52126D02*
D03*
X90158Y81653D02*
D03*
Y78189D02*
D03*
X155905Y48661D02*
D03*
Y52126D02*
D03*
X40157Y78189D02*
D03*
Y81653D02*
D03*
X10630Y36772D02*
D03*
Y33307D02*
D03*
X22047Y36772D02*
D03*
Y33307D02*
D03*
D21*
X46654Y47461D02*
D03*
Y52461D02*
D03*
Y57461D02*
D03*
Y62461D02*
D03*
Y67461D02*
D03*
Y72461D02*
D03*
Y77461D02*
D03*
Y82461D02*
D03*
X83268Y47461D02*
D03*
Y52461D02*
D03*
Y57461D02*
D03*
Y62461D02*
D03*
Y67461D02*
D03*
Y72461D02*
D03*
Y77461D02*
D03*
Y82461D02*
D03*
D40*
X33228Y7874D02*
D03*
X36850D02*
D03*
X32047Y21653D02*
D03*
X35669D02*
D03*
X14331Y33071D02*
D03*
X17953D02*
D03*
X14331Y36614D02*
D03*
X17953D02*
D03*
X28976Y33071D02*
D03*
X25354D02*
D03*
X28976Y36614D02*
D03*
X25354D02*
D03*
D48*
X180905Y37815D02*
D03*
Y17303D02*
D03*
X170905Y37815D02*
D03*
Y17303D02*
D03*
X160906Y37815D02*
D03*
Y17303D02*
D03*
X150906Y37815D02*
D03*
Y17303D02*
D03*
X140905Y37815D02*
D03*
Y17303D02*
D03*
X130905Y37815D02*
D03*
Y17303D02*
D03*
D49*
X29333Y69291D02*
D03*
Y66142D02*
D03*
X29331Y56693D02*
D03*
X29333Y59842D02*
D03*
X29331Y62992D02*
D03*
D50*
X7384Y80512D02*
D03*
X28839D02*
D03*
Y45472D02*
D03*
X7384D02*
D03*
M02*
