G04*
G04 #@! TF.GenerationSoftware,Altium Limited,Altium Designer,24.0.1 (36)*
G04*
G04 Layer_Physical_Order=3*
G04 Layer_Color=16440176*
%FSLAX25Y25*%
%MOIN*%
G70*
G04*
G04 #@! TF.SameCoordinates,293640EE-8F9E-4A3F-9B7E-3BA848117B77*
G04*
G04*
G04 #@! TF.FilePolarity,Positive*
G04*
G01*
G75*
%ADD10C,0.00787*%
%ADD11C,0.00394*%
%ADD45C,0.01575*%
%ADD46C,0.01181*%
G36*
X192913Y85009D02*
X193143D01*
X193593Y84919D01*
X194018Y84743D01*
X194399Y84488D01*
X194724Y84163D01*
X194979Y83781D01*
X195155Y83357D01*
X195245Y82907D01*
X195245Y82677D01*
X195245Y3937D01*
Y3707D01*
X195155Y3257D01*
X194979Y2833D01*
X194724Y2451D01*
X194399Y2126D01*
X194018Y1871D01*
X193593Y1695D01*
X193143Y1606D01*
X192913D01*
X89641Y1606D01*
X89411Y2106D01*
X89567Y2482D01*
Y3030D01*
X89357Y3537D01*
X88969Y3924D01*
X88463Y4134D01*
X87915D01*
X87408Y3924D01*
X87021Y3537D01*
X86811Y3030D01*
Y2482D01*
X86967Y2106D01*
X86737Y1606D01*
X78773D01*
Y85009D01*
X192913Y85009D01*
D02*
G37*
%LPC*%
G36*
X87967Y81646D02*
X87419D01*
X86912Y81436D01*
X86525Y81048D01*
X86315Y80542D01*
Y79994D01*
X86525Y79487D01*
X86912Y79100D01*
X87419Y78890D01*
X87967D01*
X88473Y79100D01*
X88861Y79487D01*
X89071Y79994D01*
Y80542D01*
X88861Y81048D01*
X88473Y81436D01*
X87967Y81646D01*
D02*
G37*
G36*
X188714Y80913D02*
X187664D01*
X186651Y80642D01*
X185743Y80117D01*
X185001Y79375D01*
X184476Y78467D01*
X184205Y77454D01*
Y76405D01*
X184476Y75391D01*
X185001Y74483D01*
X185743Y73741D01*
X186651Y73216D01*
X187664Y72945D01*
X188714D01*
X189727Y73216D01*
X190635Y73741D01*
X191377Y74483D01*
X191902Y75391D01*
X192173Y76405D01*
Y77454D01*
X191902Y78467D01*
X191377Y79375D01*
X190635Y80117D01*
X189727Y80642D01*
X188714Y80913D01*
D02*
G37*
G36*
X144369Y75394D02*
X143820D01*
X143314Y75184D01*
X142926Y74796D01*
X142717Y74290D01*
Y73742D01*
X142926Y73235D01*
X143314Y72848D01*
X143820Y72638D01*
X144369D01*
X144875Y72848D01*
X145263Y73235D01*
X145472Y73742D01*
Y74290D01*
X145263Y74796D01*
X144875Y75184D01*
X144369Y75394D01*
D02*
G37*
G36*
X141219Y73819D02*
X140671D01*
X140164Y73609D01*
X139777Y73221D01*
X139567Y72715D01*
Y72167D01*
X139777Y71660D01*
X140164Y71273D01*
X140671Y71063D01*
X141219D01*
X141725Y71273D01*
X142113Y71660D01*
X142323Y72167D01*
Y72715D01*
X142113Y73221D01*
X141725Y73609D01*
X141219Y73819D01*
D02*
G37*
G36*
X164841Y68701D02*
X164293D01*
X163786Y68491D01*
X163399Y68103D01*
X163189Y67597D01*
Y67049D01*
X163399Y66542D01*
X163786Y66155D01*
X164293Y65945D01*
X164841D01*
X165348Y66155D01*
X165735Y66542D01*
X165945Y67049D01*
Y67597D01*
X165735Y68103D01*
X165348Y68491D01*
X164841Y68701D01*
D02*
G37*
G36*
X188714Y70913D02*
X187664D01*
X186651Y70642D01*
X185743Y70117D01*
X185001Y69375D01*
X184476Y68467D01*
X184205Y67454D01*
Y66405D01*
X184476Y65391D01*
X185001Y64483D01*
X185743Y63741D01*
X186651Y63216D01*
X187664Y62945D01*
X188714D01*
X189727Y63216D01*
X190635Y63741D01*
X191377Y64483D01*
X191902Y65391D01*
X192173Y66405D01*
Y67454D01*
X191902Y68467D01*
X191377Y69375D01*
X190635Y70117D01*
X189727Y70642D01*
X188714Y70913D01*
D02*
G37*
G36*
X167597Y63976D02*
X167049D01*
X166542Y63767D01*
X166155Y63379D01*
X165945Y62872D01*
Y62324D01*
X166155Y61818D01*
X166542Y61430D01*
X167049Y61221D01*
X167597D01*
X168103Y61430D01*
X168491Y61818D01*
X168701Y62324D01*
Y62872D01*
X168491Y63379D01*
X168103Y63767D01*
X167597Y63976D01*
D02*
G37*
G36*
X158542Y61614D02*
X157994D01*
X157487Y61404D01*
X157099Y61017D01*
X156890Y60510D01*
Y59962D01*
X157099Y59456D01*
X157487Y59068D01*
X157994Y58858D01*
X158542D01*
X159048Y59068D01*
X159436Y59456D01*
X159646Y59962D01*
Y60510D01*
X159436Y61017D01*
X159048Y61404D01*
X158542Y61614D01*
D02*
G37*
G36*
X89250D02*
X88702D01*
X88196Y61404D01*
X87808Y61017D01*
X87598Y60510D01*
Y59962D01*
X87808Y59456D01*
X88196Y59068D01*
X88702Y58858D01*
X89250D01*
X89757Y59068D01*
X90145Y59456D01*
X90354Y59962D01*
Y60510D01*
X90145Y61017D01*
X89757Y61404D01*
X89250Y61614D01*
D02*
G37*
G36*
X165235Y58858D02*
X164687D01*
X164180Y58649D01*
X163793Y58261D01*
X163583Y57754D01*
Y57206D01*
X163793Y56700D01*
X164180Y56312D01*
X164687Y56102D01*
X165235D01*
X165597Y56252D01*
X165999Y55917D01*
X165945Y55786D01*
Y55238D01*
X166155Y54731D01*
X166542Y54344D01*
X167049Y54134D01*
X167597D01*
X168103Y54344D01*
X168491Y54731D01*
X168701Y55238D01*
Y55786D01*
X168491Y56292D01*
X168103Y56680D01*
X167597Y56890D01*
X167049D01*
X166687Y56740D01*
X166284Y57075D01*
X166339Y57206D01*
Y57754D01*
X166129Y58261D01*
X165741Y58649D01*
X165235Y58858D01*
D02*
G37*
G36*
X161691Y56880D02*
X161143D01*
X160637Y56670D01*
X160249Y56283D01*
X160039Y55776D01*
Y55228D01*
X160249Y54721D01*
X160637Y54334D01*
X161143Y54124D01*
X161691D01*
X162198Y54334D01*
X162585Y54721D01*
X162795Y55228D01*
Y55776D01*
X162585Y56283D01*
X162198Y56670D01*
X161691Y56880D01*
D02*
G37*
G36*
X92006D02*
X91458D01*
X90952Y56670D01*
X90564Y56283D01*
X90354Y55776D01*
Y55228D01*
X90564Y54721D01*
X90952Y54334D01*
X91458Y54124D01*
X92006D01*
X92513Y54334D01*
X92901Y54721D01*
X93110Y55228D01*
Y55776D01*
X92901Y56283D01*
X92513Y56670D01*
X92006Y56880D01*
D02*
G37*
G36*
X188714Y60913D02*
X187664D01*
X186651Y60642D01*
X185743Y60117D01*
X185001Y59376D01*
X184476Y58467D01*
X184205Y57454D01*
Y56405D01*
X184476Y55391D01*
X185001Y54483D01*
X185743Y53741D01*
X186651Y53216D01*
X187664Y52945D01*
X188714D01*
X189727Y53216D01*
X190635Y53741D01*
X191377Y54483D01*
X191902Y55391D01*
X192173Y56405D01*
Y57454D01*
X191902Y58467D01*
X191377Y59376D01*
X190635Y60117D01*
X189727Y60642D01*
X188714Y60913D01*
D02*
G37*
G36*
X144369Y53740D02*
X143820D01*
X143314Y53530D01*
X142926Y53143D01*
X142717Y52636D01*
Y52088D01*
X142926Y51582D01*
X143314Y51194D01*
X143820Y50984D01*
X144369D01*
X144875Y51194D01*
X145263Y51582D01*
X145472Y52088D01*
Y52636D01*
X145263Y53143D01*
X144875Y53530D01*
X144369Y53740D01*
D02*
G37*
G36*
X192006Y48228D02*
X191458D01*
X190952Y48019D01*
X190564Y47631D01*
X190354Y47124D01*
Y46576D01*
X190564Y46070D01*
X190952Y45682D01*
X191458Y45472D01*
X192006D01*
X192513Y45682D01*
X192901Y46070D01*
X193110Y46576D01*
Y47124D01*
X192901Y47631D01*
X192513Y48019D01*
X192006Y48228D01*
D02*
G37*
G36*
X126652Y45472D02*
X126104D01*
X125597Y45263D01*
X125210Y44875D01*
X125000Y44369D01*
Y43820D01*
X125210Y43314D01*
X125597Y42926D01*
X126104Y42717D01*
X126652D01*
X127158Y42926D01*
X127546Y43314D01*
X127756Y43820D01*
Y44369D01*
X127546Y44875D01*
X127158Y45263D01*
X126652Y45472D01*
D02*
G37*
G36*
X92794D02*
X92246D01*
X91739Y45263D01*
X91351Y44875D01*
X91142Y44369D01*
Y43820D01*
X91351Y43314D01*
X91639Y43026D01*
X91693Y42709D01*
X91633Y42429D01*
X91338Y42133D01*
X91128Y41627D01*
Y41078D01*
X91338Y40572D01*
X91725Y40184D01*
X92232Y39975D01*
X92780D01*
X93286Y40184D01*
X93674Y40572D01*
X93884Y41078D01*
Y41627D01*
X93674Y42133D01*
X93386Y42421D01*
X93332Y42737D01*
X93392Y43018D01*
X93688Y43314D01*
X93898Y43820D01*
Y44369D01*
X93688Y44875D01*
X93300Y45263D01*
X92794Y45472D01*
D02*
G37*
G36*
X87676Y37992D02*
X87128D01*
X86621Y37782D01*
X86233Y37395D01*
X86024Y36888D01*
Y36340D01*
X86233Y35834D01*
X86621Y35446D01*
X87128Y35236D01*
X87676D01*
X88182Y35446D01*
X88570Y35834D01*
X88779Y36340D01*
Y36888D01*
X88570Y37395D01*
X88182Y37782D01*
X87676Y37992D01*
D02*
G37*
G36*
X192006Y23819D02*
X191458D01*
X190952Y23609D01*
X190564Y23222D01*
X190354Y22715D01*
Y22167D01*
X190564Y21660D01*
X190952Y21273D01*
X191458Y21063D01*
X192006D01*
X192513Y21273D01*
X192901Y21660D01*
X193110Y22167D01*
Y22715D01*
X192901Y23222D01*
X192513Y23609D01*
X192006Y23819D01*
D02*
G37*
G36*
X107002Y44291D02*
X104809D01*
X102634Y44005D01*
X100516Y43437D01*
X98489Y42598D01*
X96590Y41501D01*
X94849Y40166D01*
X93299Y38615D01*
X91963Y36875D01*
X90867Y34975D01*
X90027Y32949D01*
X89460Y30830D01*
X89173Y28656D01*
Y26462D01*
X89460Y24288D01*
X90027Y22169D01*
X90867Y20143D01*
X91963Y18243D01*
X93299Y16503D01*
X94849Y14952D01*
X96590Y13617D01*
X98489Y12520D01*
X100516Y11681D01*
X102634Y11113D01*
X104809Y10827D01*
X107002D01*
X109177Y11113D01*
X111295Y11681D01*
X113322Y12520D01*
X115221Y13617D01*
X116962Y14952D01*
X118512Y16503D01*
X119848Y18243D01*
X120944Y20143D01*
X121784Y22169D01*
X122352Y24288D01*
X122638Y26462D01*
Y28656D01*
X122352Y30830D01*
X121784Y32949D01*
X120944Y34975D01*
X119848Y36875D01*
X118512Y38615D01*
X116962Y40166D01*
X115221Y41501D01*
X113322Y42598D01*
X111295Y43437D01*
X109177Y44005D01*
X107002Y44291D01*
D02*
G37*
G36*
X127046Y12402D02*
X126498D01*
X125991Y12192D01*
X125603Y11804D01*
X125394Y11298D01*
Y10750D01*
X125603Y10243D01*
X125991Y9855D01*
X126498Y9646D01*
X127046D01*
X127552Y9855D01*
X127940Y10243D01*
X128150Y10750D01*
Y11298D01*
X127940Y11804D01*
X127552Y12192D01*
X127046Y12402D01*
D02*
G37*
G36*
X156573Y12008D02*
X156025D01*
X155519Y11798D01*
X155131Y11411D01*
X154921Y10904D01*
Y10356D01*
X155131Y9849D01*
X155519Y9462D01*
X156025Y9252D01*
X156573D01*
X157080Y9462D01*
X157467Y9849D01*
X157677Y10356D01*
Y10904D01*
X157467Y11411D01*
X157080Y11798D01*
X156573Y12008D01*
D02*
G37*
G36*
X93187Y6890D02*
X92639D01*
X92133Y6680D01*
X91745Y6292D01*
X91535Y5786D01*
Y5238D01*
X91745Y4731D01*
X92133Y4344D01*
X92639Y4134D01*
X93187D01*
X93694Y4344D01*
X94082Y4731D01*
X94291Y5238D01*
Y5786D01*
X94082Y6292D01*
X93694Y6680D01*
X93187Y6890D01*
D02*
G37*
G36*
X156573Y5709D02*
X156025D01*
X155519Y5499D01*
X155131Y5111D01*
X154921Y4605D01*
Y4057D01*
X155131Y3550D01*
X155519Y3162D01*
X156025Y2953D01*
X156573D01*
X157080Y3162D01*
X157467Y3550D01*
X157677Y4057D01*
Y4605D01*
X157467Y5111D01*
X157080Y5499D01*
X156573Y5709D01*
D02*
G37*
%LPD*%
D10*
X33465Y9843D02*
Y37721D01*
Y9843D02*
X37795Y5512D01*
X31956Y39230D02*
X33465Y37721D01*
X31956Y39230D02*
Y39363D01*
X40551Y23516D02*
X40748Y23319D01*
Y12114D02*
Y23319D01*
X40551Y23516D02*
Y23622D01*
X43307Y26378D01*
X39764Y42126D02*
X43307Y38583D01*
Y26378D02*
Y38583D01*
X40551Y11811D02*
Y11918D01*
X40748Y12114D01*
D11*
X11568Y39219D02*
X12854Y37933D01*
X11024Y39370D02*
X11174Y39219D01*
X11568D01*
X9055Y39370D02*
X11280Y37146D01*
X29758Y38093D02*
Y39342D01*
X41339Y50923D01*
X27236Y35571D02*
X29758Y38093D01*
X5906Y35571D02*
X27236D01*
X28971Y38420D02*
Y39668D01*
X26910Y36358D02*
X28971Y38420D01*
X7736Y36358D02*
X26910D01*
X28183Y38813D02*
Y39994D01*
X11280Y37146D02*
X26516D01*
X28183Y38813D01*
X12854Y37933D02*
X26122D01*
X27396Y39207D01*
Y40388D01*
X38976Y51968D02*
Y70079D01*
X27396Y40388D02*
X38976Y51968D01*
Y70079D02*
X41339Y72441D01*
X39764Y65748D02*
X41339Y67323D01*
X28183Y39994D02*
X39764Y51575D01*
Y65748D01*
X41339Y50923D02*
Y53534D01*
X42906Y55101D01*
X40551Y51249D02*
Y61811D01*
X28971Y39668D02*
X40551Y51249D01*
X5512Y59842D02*
X7874D01*
X3543Y57874D02*
X5512Y59842D01*
X40551Y61811D02*
X41339Y62598D01*
Y62598D01*
X5906Y38189D02*
X7736Y36358D01*
X50001Y74286D02*
Y74759D01*
X50000Y74285D02*
X50001Y74286D01*
X50000Y72047D02*
Y74285D01*
X50001Y74759D02*
X50152Y74910D01*
X45276Y67323D02*
X50000Y72047D01*
X45276Y63779D02*
Y67323D01*
X41732Y60236D02*
X45276Y63779D01*
X44882Y12205D02*
Y55905D01*
X41732Y59055D02*
Y60236D01*
Y59055D02*
X44882Y55905D01*
X43307Y10630D02*
X44882Y12205D01*
X39764Y10630D02*
X43307D01*
X39370Y11024D02*
X39764Y10630D01*
X39370Y11024D02*
Y13386D01*
X46457Y66155D02*
X50197Y69895D01*
X47244Y62068D02*
X50100Y64925D01*
X43169Y59914D02*
X45669Y57413D01*
Y10101D02*
Y57413D01*
X39505Y3937D02*
X45669Y10101D01*
X35827Y3937D02*
X39505D01*
X35236Y4528D02*
X35827Y3937D01*
X16482Y4528D02*
X35236D01*
X14317Y2362D02*
X16482Y4528D01*
X34843Y3740D02*
X35433Y3150D01*
X39831D01*
X46457Y9775D01*
Y66155D01*
X18057Y3740D02*
X34843D01*
X16679Y2362D02*
X18057Y3740D01*
X40157Y2362D02*
X47244Y9449D01*
Y62068D01*
X33858Y2362D02*
X40157D01*
X1969Y34781D02*
X4331Y32419D01*
X2341Y28350D02*
X4331Y30339D01*
Y32419D01*
X3543Y35433D02*
X5906Y33071D01*
Y27974D02*
Y33071D01*
X2341Y24409D02*
X5906Y27974D01*
X5118Y29158D02*
Y32745D01*
X2341Y26381D02*
X5118Y29158D01*
X2756Y35107D02*
X5118Y32745D01*
X2756Y35107D02*
Y61024D01*
X5906Y64173D01*
X1969Y62205D02*
X3937Y64173D01*
X1969Y34781D02*
Y62205D01*
X3543Y35433D02*
Y57874D01*
D45*
X158661Y51968D02*
D03*
X180315Y70079D02*
D03*
X92913Y81890D02*
D03*
X92520Y48031D02*
D03*
X39764Y42126D02*
D03*
X37795Y5512D02*
D03*
X33858Y2362D02*
D03*
X14317D02*
D03*
X16679Y2362D02*
D03*
X31956Y39363D02*
D03*
D46*
X11024Y39370D02*
D03*
X9055D02*
D03*
X7874Y59842D02*
D03*
X41339Y72441D02*
D03*
Y67323D02*
D03*
Y62598D02*
D03*
X42906Y55101D02*
D03*
X5906Y38189D02*
D03*
Y35571D02*
D03*
X43169Y59914D02*
D03*
X2341Y28350D02*
D03*
Y26381D02*
D03*
X2341Y24409D02*
D03*
X50100Y64925D02*
D03*
X50197Y69895D02*
D03*
X50152Y74910D02*
D03*
X3937Y64173D02*
D03*
X5906D02*
D03*
X40551Y23622D02*
D03*
X39370Y13386D02*
D03*
X40551Y11811D02*
D03*
M02*
