G04*
G04 #@! TF.GenerationSoftware,Altium Limited,Altium Designer,24.0.1 (36)*
G04*
G04 Layer_Color=8421504*
%FSLAX25Y25*%
%MOIN*%
G70*
G04*
G04 #@! TF.SameCoordinates,293640EE-8F9E-4A3F-9B7E-3BA848117B77*
G04*
G04*
G04 #@! TF.FilePolarity,Positive*
G04*
G01*
G75*
G04:AMPARAMS|DCode=18|XSize=35.43mil|YSize=31.5mil|CornerRadius=3.15mil|HoleSize=0mil|Usage=FLASHONLY|Rotation=180.000|XOffset=0mil|YOffset=0mil|HoleType=Round|Shape=RoundedRectangle|*
%AMROUNDEDRECTD18*
21,1,0.03543,0.02520,0,0,180.0*
21,1,0.02913,0.03150,0,0,180.0*
1,1,0.00630,-0.01457,0.01260*
1,1,0.00630,0.01457,0.01260*
1,1,0.00630,0.01457,-0.01260*
1,1,0.00630,-0.01457,-0.01260*
%
%ADD18ROUNDEDRECTD18*%
G04:AMPARAMS|DCode=19|XSize=18.9mil|YSize=21.65mil|CornerRadius=3.12mil|HoleSize=0mil|Usage=FLASHONLY|Rotation=270.000|XOffset=0mil|YOffset=0mil|HoleType=Round|Shape=RoundedRectangle|*
%AMROUNDEDRECTD19*
21,1,0.01890,0.01542,0,0,270.0*
21,1,0.01266,0.02165,0,0,270.0*
1,1,0.00624,-0.00771,-0.00633*
1,1,0.00624,-0.00771,0.00633*
1,1,0.00624,0.00771,0.00633*
1,1,0.00624,0.00771,-0.00633*
%
%ADD19ROUNDEDRECTD19*%
G04:AMPARAMS|DCode=20|XSize=16.14mil|YSize=21.26mil|CornerRadius=2.66mil|HoleSize=0mil|Usage=FLASHONLY|Rotation=270.000|XOffset=0mil|YOffset=0mil|HoleType=Round|Shape=RoundedRectangle|*
%AMROUNDEDRECTD20*
21,1,0.01614,0.01593,0,0,270.0*
21,1,0.01082,0.02126,0,0,270.0*
1,1,0.00533,-0.00797,-0.00541*
1,1,0.00533,-0.00797,0.00541*
1,1,0.00533,0.00797,0.00541*
1,1,0.00533,0.00797,-0.00541*
%
%ADD20ROUNDEDRECTD20*%
%ADD21O,0.07874X0.02362*%
G04:AMPARAMS|DCode=22|XSize=33.47mil|YSize=10.63mil|CornerRadius=1.75mil|HoleSize=0mil|Usage=FLASHONLY|Rotation=90.000|XOffset=0mil|YOffset=0mil|HoleType=Round|Shape=RoundedRectangle|*
%AMROUNDEDRECTD22*
21,1,0.03347,0.00712,0,0,90.0*
21,1,0.02996,0.01063,0,0,90.0*
1,1,0.00351,0.00356,0.01498*
1,1,0.00351,0.00356,-0.01498*
1,1,0.00351,-0.00356,-0.01498*
1,1,0.00351,-0.00356,0.01498*
%
%ADD22ROUNDEDRECTD22*%
G04:AMPARAMS|DCode=23|XSize=33.47mil|YSize=10.63mil|CornerRadius=1.75mil|HoleSize=0mil|Usage=FLASHONLY|Rotation=180.000|XOffset=0mil|YOffset=0mil|HoleType=Round|Shape=RoundedRectangle|*
%AMROUNDEDRECTD23*
21,1,0.03347,0.00712,0,0,180.0*
21,1,0.02996,0.01063,0,0,180.0*
1,1,0.00351,-0.01498,0.00356*
1,1,0.00351,0.01498,0.00356*
1,1,0.00351,0.01498,-0.00356*
1,1,0.00351,-0.01498,-0.00356*
%
%ADD23ROUNDEDRECTD23*%
%ADD24R,0.03150X0.03150*%
%ADD25R,0.05000X0.14488*%
%ADD26O,0.01181X0.02756*%
%ADD27R,0.05512X0.05512*%
G04:AMPARAMS|DCode=28|XSize=9.84mil|YSize=8.66mil|CornerRadius=0.87mil|HoleSize=0mil|Usage=FLASHONLY|Rotation=0.000|XOffset=0mil|YOffset=0mil|HoleType=Round|Shape=RoundedRectangle|*
%AMROUNDEDRECTD28*
21,1,0.00984,0.00693,0,0,0.0*
21,1,0.00811,0.00866,0,0,0.0*
1,1,0.00173,0.00406,-0.00347*
1,1,0.00173,-0.00406,-0.00347*
1,1,0.00173,-0.00406,0.00347*
1,1,0.00173,0.00406,0.00347*
%
%ADD28ROUNDEDRECTD28*%
%ADD29P,0.02673X4X270.0*%
G04:AMPARAMS|DCode=30|XSize=39.37mil|YSize=31.5mil|CornerRadius=7.87mil|HoleSize=0mil|Usage=FLASHONLY|Rotation=90.000|XOffset=0mil|YOffset=0mil|HoleType=Round|Shape=RoundedRectangle|*
%AMROUNDEDRECTD30*
21,1,0.03937,0.01575,0,0,90.0*
21,1,0.02362,0.03150,0,0,90.0*
1,1,0.01575,0.00787,0.01181*
1,1,0.01575,0.00787,-0.01181*
1,1,0.01575,-0.00787,-0.01181*
1,1,0.01575,-0.00787,0.01181*
%
%ADD30ROUNDEDRECTD30*%
G04:AMPARAMS|DCode=31|XSize=39.37mil|YSize=47.24mil|CornerRadius=9.84mil|HoleSize=0mil|Usage=FLASHONLY|Rotation=90.000|XOffset=0mil|YOffset=0mil|HoleType=Round|Shape=RoundedRectangle|*
%AMROUNDEDRECTD31*
21,1,0.03937,0.02756,0,0,90.0*
21,1,0.01968,0.04724,0,0,90.0*
1,1,0.01968,0.01378,0.00984*
1,1,0.01968,0.01378,-0.00984*
1,1,0.01968,-0.01378,-0.00984*
1,1,0.01968,-0.01378,0.00984*
%
%ADD31ROUNDEDRECTD31*%
%ADD32R,0.03347X0.03740*%
%ADD33R,0.03740X0.03347*%
G04:AMPARAMS|DCode=34|XSize=16.14mil|YSize=21.26mil|CornerRadius=2.66mil|HoleSize=0mil|Usage=FLASHONLY|Rotation=0.000|XOffset=0mil|YOffset=0mil|HoleType=Round|Shape=RoundedRectangle|*
%AMROUNDEDRECTD34*
21,1,0.01614,0.01593,0,0,0.0*
21,1,0.01082,0.02126,0,0,0.0*
1,1,0.00533,0.00541,-0.00797*
1,1,0.00533,-0.00541,-0.00797*
1,1,0.00533,-0.00541,0.00797*
1,1,0.00533,0.00541,0.00797*
%
%ADD34ROUNDEDRECTD34*%
%ADD35R,0.02165X0.03937*%
%ADD36R,0.02756X0.03543*%
%ADD37R,0.03543X0.02756*%
%ADD38R,0.03150X0.03150*%
G04:AMPARAMS|DCode=39|XSize=27.95mil|YSize=34.65mil|CornerRadius=4.61mil|HoleSize=0mil|Usage=FLASHONLY|Rotation=90.000|XOffset=0mil|YOffset=0mil|HoleType=Round|Shape=RoundedRectangle|*
%AMROUNDEDRECTD39*
21,1,0.02795,0.02542,0,0,90.0*
21,1,0.01873,0.03465,0,0,90.0*
1,1,0.00922,0.01271,0.00936*
1,1,0.00922,0.01271,-0.00936*
1,1,0.00922,-0.01271,-0.00936*
1,1,0.00922,-0.01271,0.00936*
%
%ADD39ROUNDEDRECTD39*%
G04:AMPARAMS|DCode=40|XSize=18.9mil|YSize=21.65mil|CornerRadius=3.12mil|HoleSize=0mil|Usage=FLASHONLY|Rotation=0.000|XOffset=0mil|YOffset=0mil|HoleType=Round|Shape=RoundedRectangle|*
%AMROUNDEDRECTD40*
21,1,0.01890,0.01542,0,0,0.0*
21,1,0.01266,0.02165,0,0,0.0*
1,1,0.00624,0.00633,-0.00771*
1,1,0.00624,-0.00633,-0.00771*
1,1,0.00624,-0.00633,0.00771*
1,1,0.00624,0.00633,0.00771*
%
%ADD40ROUNDEDRECTD40*%
G36*
X28543Y55295D02*
X28543Y53937D01*
X28465D01*
X27559Y54843D01*
X27559Y55295D01*
X28543Y55295D01*
D02*
G37*
G36*
X25984Y54843D02*
X25079Y53937D01*
X25000D01*
X25000Y55295D01*
X25984Y55295D01*
X25984Y54843D01*
D02*
G37*
G36*
X28543Y51004D02*
X27559Y51004D01*
X27559Y51457D01*
X28465Y52362D01*
X28543D01*
X28543Y51004D01*
D02*
G37*
G36*
X25984Y51457D02*
X25984Y51004D01*
X25000Y51004D01*
X25000Y52362D01*
X25079D01*
X25984Y51457D01*
D02*
G37*
G36*
X31732Y26063D02*
X26063D01*
Y31732D01*
X31732D01*
Y26063D01*
D02*
G37*
G36*
X23701D02*
X18032D01*
Y31732D01*
X23701D01*
Y26063D01*
D02*
G37*
G36*
X15669D02*
X10000D01*
Y31732D01*
X15669D01*
Y26063D01*
D02*
G37*
G36*
X31732Y18032D02*
X26063D01*
Y23701D01*
X31732D01*
Y18032D01*
D02*
G37*
G36*
X23701D02*
X18032D01*
Y23701D01*
X23701D01*
Y18032D01*
D02*
G37*
G36*
X15669D02*
X10000D01*
Y23701D01*
X15669D01*
Y18032D01*
D02*
G37*
G36*
X31732Y10000D02*
X26063D01*
Y15669D01*
X31732D01*
Y10000D01*
D02*
G37*
G36*
X23701D02*
X18032D01*
Y15669D01*
X23701D01*
Y10000D01*
D02*
G37*
G36*
X15669D02*
X10000D01*
Y15669D01*
X15669D01*
Y10000D01*
D02*
G37*
D18*
X11417Y48819D02*
D03*
X5512D02*
D03*
Y53543D02*
D03*
X11417D02*
D03*
D19*
X39764Y39213D02*
D03*
Y35591D02*
D03*
X90158Y43937D02*
D03*
Y40315D02*
D03*
X40158Y81732D02*
D03*
Y78110D02*
D03*
X90157Y81732D02*
D03*
Y78110D02*
D03*
X40551Y9685D02*
D03*
Y6063D02*
D03*
D20*
X40551Y18347D02*
D03*
Y21811D02*
D03*
X90158Y5748D02*
D03*
Y9213D02*
D03*
X151181Y52126D02*
D03*
Y48661D02*
D03*
X147244D02*
D03*
Y52126D02*
D03*
X90158Y51732D02*
D03*
Y48268D02*
D03*
X39764Y49055D02*
D03*
Y52520D02*
D03*
X14567Y65512D02*
D03*
Y62047D02*
D03*
D21*
X46654Y39154D02*
D03*
Y34154D02*
D03*
Y29153D02*
D03*
Y24153D02*
D03*
Y19153D02*
D03*
Y14153D02*
D03*
Y9154D02*
D03*
Y4154D02*
D03*
X83268Y39154D02*
D03*
Y34154D02*
D03*
Y29153D02*
D03*
Y24153D02*
D03*
Y19153D02*
D03*
Y14153D02*
D03*
Y9154D02*
D03*
Y4154D02*
D03*
Y47461D02*
D03*
Y52461D02*
D03*
Y57461D02*
D03*
Y62461D02*
D03*
Y67461D02*
D03*
Y72461D02*
D03*
Y77461D02*
D03*
Y82461D02*
D03*
X46654Y47461D02*
D03*
Y52461D02*
D03*
Y57461D02*
D03*
Y62461D02*
D03*
Y67461D02*
D03*
Y72461D02*
D03*
Y77461D02*
D03*
Y82461D02*
D03*
D22*
X33661Y36358D02*
D03*
X31693D02*
D03*
X29724D02*
D03*
X27756D02*
D03*
X25787D02*
D03*
X23819D02*
D03*
X21850D02*
D03*
X19882D02*
D03*
X17913D02*
D03*
X15945D02*
D03*
X13976D02*
D03*
X12008D02*
D03*
X10039D02*
D03*
X8071D02*
D03*
Y5374D02*
D03*
X10039D02*
D03*
X12008D02*
D03*
X13976D02*
D03*
X15945D02*
D03*
X17913D02*
D03*
X19882D02*
D03*
X21850D02*
D03*
X23819D02*
D03*
X25787D02*
D03*
X27756D02*
D03*
X29724D02*
D03*
X31693D02*
D03*
X33661D02*
D03*
D23*
X5374Y33661D02*
D03*
Y31693D02*
D03*
Y29724D02*
D03*
Y27756D02*
D03*
Y25787D02*
D03*
Y23819D02*
D03*
Y21850D02*
D03*
Y19882D02*
D03*
Y17913D02*
D03*
Y15945D02*
D03*
Y13976D02*
D03*
Y12008D02*
D03*
Y10039D02*
D03*
Y8071D02*
D03*
X36358D02*
D03*
Y10039D02*
D03*
Y12008D02*
D03*
Y13976D02*
D03*
Y15945D02*
D03*
Y17913D02*
D03*
Y19882D02*
D03*
Y21850D02*
D03*
Y23819D02*
D03*
Y25787D02*
D03*
Y27756D02*
D03*
Y29724D02*
D03*
Y31693D02*
D03*
Y33661D02*
D03*
D24*
X21654Y82284D02*
D03*
X15354D02*
D03*
X177165Y74016D02*
D03*
X170866D02*
D03*
D25*
X180905Y37303D02*
D03*
Y17815D02*
D03*
X170905Y37303D02*
D03*
Y17815D02*
D03*
X160906Y37303D02*
D03*
Y17815D02*
D03*
X150906Y37303D02*
D03*
Y17815D02*
D03*
X140905Y37303D02*
D03*
Y17815D02*
D03*
X130905Y37303D02*
D03*
Y17815D02*
D03*
D26*
X3937Y66732D02*
D03*
X5906D02*
D03*
X7874D02*
D03*
X9843D02*
D03*
X3937Y77362D02*
D03*
X5906D02*
D03*
X7874D02*
D03*
X9843D02*
D03*
D27*
X6890Y72047D02*
D03*
D28*
X28051Y51024D02*
D03*
X25492D02*
D03*
Y55276D02*
D03*
X28051D02*
D03*
D29*
X26772Y53150D02*
D03*
D30*
X34449Y59941D02*
D03*
X26969D02*
D03*
Y68602D02*
D03*
D31*
X33661D02*
D03*
D32*
X27756Y82284D02*
D03*
X32874D02*
D03*
D33*
X191732Y43504D02*
D03*
Y38386D02*
D03*
X171653Y62402D02*
D03*
Y67520D02*
D03*
X177559Y62402D02*
D03*
Y67520D02*
D03*
D34*
X2598Y44488D02*
D03*
X6063D02*
D03*
X7717Y62205D02*
D03*
X11181D02*
D03*
D35*
X174016Y48720D02*
D03*
X170079Y56791D02*
D03*
X177953D02*
D03*
D36*
X26378Y45276D02*
D03*
X31890D02*
D03*
D37*
Y54724D02*
D03*
Y49213D02*
D03*
D38*
X191732Y31890D02*
D03*
Y25591D02*
D03*
D39*
X17717Y49882D02*
D03*
Y43819D02*
D03*
D40*
X13228Y44488D02*
D03*
X9606D02*
D03*
X6535Y81890D02*
D03*
X2913D02*
D03*
M02*
