G04*
G04 #@! TF.GenerationSoftware,Altium Limited,Altium Designer,24.0.1 (36)*
G04*
G04 Layer_Physical_Order=1*
G04 Layer_Color=255*
%FSLAX25Y25*%
%MOIN*%
G70*
G04*
G04 #@! TF.SameCoordinates,293640EE-8F9E-4A3F-9B7E-3BA848117B77*
G04*
G04*
G04 #@! TF.FilePolarity,Positive*
G04*
G01*
G75*
%ADD10C,0.00787*%
%ADD11C,0.00394*%
%ADD15C,0.00591*%
%ADD16C,0.01181*%
G04:AMPARAMS|DCode=18|XSize=35.43mil|YSize=31.5mil|CornerRadius=3.15mil|HoleSize=0mil|Usage=FLASHONLY|Rotation=180.000|XOffset=0mil|YOffset=0mil|HoleType=Round|Shape=RoundedRectangle|*
%AMROUNDEDRECTD18*
21,1,0.03543,0.02520,0,0,180.0*
21,1,0.02913,0.03150,0,0,180.0*
1,1,0.00630,-0.01457,0.01260*
1,1,0.00630,0.01457,0.01260*
1,1,0.00630,0.01457,-0.01260*
1,1,0.00630,-0.01457,-0.01260*
%
%ADD18ROUNDEDRECTD18*%
G04:AMPARAMS|DCode=19|XSize=18.9mil|YSize=21.65mil|CornerRadius=3.12mil|HoleSize=0mil|Usage=FLASHONLY|Rotation=270.000|XOffset=0mil|YOffset=0mil|HoleType=Round|Shape=RoundedRectangle|*
%AMROUNDEDRECTD19*
21,1,0.01890,0.01542,0,0,270.0*
21,1,0.01266,0.02165,0,0,270.0*
1,1,0.00624,-0.00771,-0.00633*
1,1,0.00624,-0.00771,0.00633*
1,1,0.00624,0.00771,0.00633*
1,1,0.00624,0.00771,-0.00633*
%
%ADD19ROUNDEDRECTD19*%
G04:AMPARAMS|DCode=20|XSize=16.14mil|YSize=21.26mil|CornerRadius=2.66mil|HoleSize=0mil|Usage=FLASHONLY|Rotation=270.000|XOffset=0mil|YOffset=0mil|HoleType=Round|Shape=RoundedRectangle|*
%AMROUNDEDRECTD20*
21,1,0.01614,0.01593,0,0,270.0*
21,1,0.01082,0.02126,0,0,270.0*
1,1,0.00533,-0.00797,-0.00541*
1,1,0.00533,-0.00797,0.00541*
1,1,0.00533,0.00797,0.00541*
1,1,0.00533,0.00797,-0.00541*
%
%ADD20ROUNDEDRECTD20*%
%ADD21O,0.07874X0.02362*%
G04:AMPARAMS|DCode=22|XSize=33.47mil|YSize=10.63mil|CornerRadius=1.75mil|HoleSize=0mil|Usage=FLASHONLY|Rotation=90.000|XOffset=0mil|YOffset=0mil|HoleType=Round|Shape=RoundedRectangle|*
%AMROUNDEDRECTD22*
21,1,0.03347,0.00712,0,0,90.0*
21,1,0.02996,0.01063,0,0,90.0*
1,1,0.00351,0.00356,0.01498*
1,1,0.00351,0.00356,-0.01498*
1,1,0.00351,-0.00356,-0.01498*
1,1,0.00351,-0.00356,0.01498*
%
%ADD22ROUNDEDRECTD22*%
G04:AMPARAMS|DCode=23|XSize=33.47mil|YSize=10.63mil|CornerRadius=1.75mil|HoleSize=0mil|Usage=FLASHONLY|Rotation=180.000|XOffset=0mil|YOffset=0mil|HoleType=Round|Shape=RoundedRectangle|*
%AMROUNDEDRECTD23*
21,1,0.03347,0.00712,0,0,180.0*
21,1,0.02996,0.01063,0,0,180.0*
1,1,0.00351,-0.01498,0.00356*
1,1,0.00351,0.01498,0.00356*
1,1,0.00351,0.01498,-0.00356*
1,1,0.00351,-0.01498,-0.00356*
%
%ADD23ROUNDEDRECTD23*%
%ADD24R,0.03150X0.03150*%
%ADD25R,0.05000X0.14488*%
%ADD26O,0.01181X0.02756*%
%ADD27R,0.05512X0.05512*%
G04:AMPARAMS|DCode=28|XSize=9.84mil|YSize=8.66mil|CornerRadius=0.87mil|HoleSize=0mil|Usage=FLASHONLY|Rotation=0.000|XOffset=0mil|YOffset=0mil|HoleType=Round|Shape=RoundedRectangle|*
%AMROUNDEDRECTD28*
21,1,0.00984,0.00693,0,0,0.0*
21,1,0.00811,0.00866,0,0,0.0*
1,1,0.00173,0.00406,-0.00347*
1,1,0.00173,-0.00406,-0.00347*
1,1,0.00173,-0.00406,0.00347*
1,1,0.00173,0.00406,0.00347*
%
%ADD28ROUNDEDRECTD28*%
%ADD29P,0.02673X4X270.0*%
G04:AMPARAMS|DCode=30|XSize=39.37mil|YSize=31.5mil|CornerRadius=7.87mil|HoleSize=0mil|Usage=FLASHONLY|Rotation=90.000|XOffset=0mil|YOffset=0mil|HoleType=Round|Shape=RoundedRectangle|*
%AMROUNDEDRECTD30*
21,1,0.03937,0.01575,0,0,90.0*
21,1,0.02362,0.03150,0,0,90.0*
1,1,0.01575,0.00787,0.01181*
1,1,0.01575,0.00787,-0.01181*
1,1,0.01575,-0.00787,-0.01181*
1,1,0.01575,-0.00787,0.01181*
%
%ADD30ROUNDEDRECTD30*%
G04:AMPARAMS|DCode=31|XSize=39.37mil|YSize=47.24mil|CornerRadius=9.84mil|HoleSize=0mil|Usage=FLASHONLY|Rotation=90.000|XOffset=0mil|YOffset=0mil|HoleType=Round|Shape=RoundedRectangle|*
%AMROUNDEDRECTD31*
21,1,0.03937,0.02756,0,0,90.0*
21,1,0.01968,0.04724,0,0,90.0*
1,1,0.01968,0.01378,0.00984*
1,1,0.01968,0.01378,-0.00984*
1,1,0.01968,-0.01378,-0.00984*
1,1,0.01968,-0.01378,0.00984*
%
%ADD31ROUNDEDRECTD31*%
%ADD32R,0.03347X0.03740*%
%ADD33R,0.03740X0.03347*%
G04:AMPARAMS|DCode=34|XSize=16.14mil|YSize=21.26mil|CornerRadius=2.66mil|HoleSize=0mil|Usage=FLASHONLY|Rotation=0.000|XOffset=0mil|YOffset=0mil|HoleType=Round|Shape=RoundedRectangle|*
%AMROUNDEDRECTD34*
21,1,0.01614,0.01593,0,0,0.0*
21,1,0.01082,0.02126,0,0,0.0*
1,1,0.00533,0.00541,-0.00797*
1,1,0.00533,-0.00541,-0.00797*
1,1,0.00533,-0.00541,0.00797*
1,1,0.00533,0.00541,0.00797*
%
%ADD34ROUNDEDRECTD34*%
%ADD35R,0.02165X0.03937*%
%ADD36R,0.02756X0.03543*%
%ADD37R,0.03543X0.02756*%
%ADD38R,0.03150X0.03150*%
G04:AMPARAMS|DCode=39|XSize=27.95mil|YSize=34.65mil|CornerRadius=4.61mil|HoleSize=0mil|Usage=FLASHONLY|Rotation=90.000|XOffset=0mil|YOffset=0mil|HoleType=Round|Shape=RoundedRectangle|*
%AMROUNDEDRECTD39*
21,1,0.02795,0.02542,0,0,90.0*
21,1,0.01873,0.03465,0,0,90.0*
1,1,0.00922,0.01271,0.00936*
1,1,0.00922,0.01271,-0.00936*
1,1,0.00922,-0.01271,-0.00936*
1,1,0.00922,-0.01271,0.00936*
%
%ADD39ROUNDEDRECTD39*%
G04:AMPARAMS|DCode=40|XSize=18.9mil|YSize=21.65mil|CornerRadius=3.12mil|HoleSize=0mil|Usage=FLASHONLY|Rotation=0.000|XOffset=0mil|YOffset=0mil|HoleType=Round|Shape=RoundedRectangle|*
%AMROUNDEDRECTD40*
21,1,0.01890,0.01542,0,0,0.0*
21,1,0.01266,0.02165,0,0,0.0*
1,1,0.00624,0.00633,-0.00771*
1,1,0.00624,-0.00633,-0.00771*
1,1,0.00624,-0.00633,0.00771*
1,1,0.00624,0.00633,0.00771*
%
%ADD40ROUNDEDRECTD40*%
%ADD41C,0.03937*%
%ADD42R,0.24016X0.24016*%
%ADD44C,0.31496*%
%ADD45C,0.01575*%
%ADD46C,0.01181*%
%ADD47C,0.06000*%
G36*
X192913Y85009D02*
X193143D01*
X193593Y84919D01*
X194018Y84743D01*
X194399Y84488D01*
X194724Y84163D01*
X194979Y83781D01*
X195155Y83357D01*
X195245Y82907D01*
X195245Y82677D01*
X195245Y3937D01*
Y3707D01*
X195155Y3257D01*
X194979Y2833D01*
X194724Y2451D01*
X194399Y2126D01*
X194018Y1871D01*
X193593Y1695D01*
X193143Y1606D01*
X183096D01*
X182905Y2067D01*
X192584Y11747D01*
X192845Y12138D01*
X192937Y12598D01*
Y22441D01*
Y23228D01*
X194095D01*
Y27953D01*
X189370D01*
Y23228D01*
X190528D01*
Y22441D01*
Y13097D01*
X180997Y3566D01*
X157810D01*
X157696Y3653D01*
X157568Y3816D01*
X157468Y4066D01*
X157480Y4096D01*
Y4214D01*
X157503Y4331D01*
X157480Y4447D01*
Y4566D01*
X157468Y4595D01*
X157568Y4845D01*
X157696Y5008D01*
X157810Y5095D01*
X174803D01*
X174803Y5095D01*
X175264Y5187D01*
X175655Y5448D01*
X179651Y9444D01*
X179651Y9444D01*
X179878Y9783D01*
X184193D01*
Y25846D01*
X177618D01*
Y15825D01*
X177595Y15709D01*
X177595Y15709D01*
Y10794D01*
X174304Y7503D01*
X168915D01*
X168724Y7965D01*
X169651Y8892D01*
X169651Y8893D01*
X169912Y9283D01*
X170003Y9744D01*
Y9783D01*
X174193D01*
Y25846D01*
X167618D01*
Y15825D01*
X167595Y15709D01*
X167595Y15709D01*
Y10243D01*
X166824Y9472D01*
X164564D01*
X164193Y9783D01*
Y25846D01*
X157618D01*
Y12169D01*
X156847D01*
X156847Y12169D01*
X156386Y12077D01*
X155995Y11816D01*
X155995Y11816D01*
X155942Y11763D01*
X155838Y11743D01*
X155740Y11677D01*
X155630Y11631D01*
X155546Y11547D01*
X155448Y11481D01*
X155382Y11383D01*
X155298Y11299D01*
X155253Y11189D01*
X155187Y11091D01*
X155164Y10975D01*
X155118Y10865D01*
Y10746D01*
X155095Y10630D01*
X155118Y10514D01*
Y10395D01*
X155164Y10285D01*
X155187Y10169D01*
X155253Y10070D01*
X155298Y9961D01*
X155203Y9641D01*
X155075Y9472D01*
X154564D01*
X154193Y9783D01*
X154193Y9972D01*
Y25846D01*
X149085D01*
X148429Y26503D01*
Y29272D01*
X154193D01*
Y45335D01*
X152385D01*
Y47127D01*
X152389Y47128D01*
X152737Y47361D01*
X152970Y47710D01*
X153052Y48121D01*
Y49202D01*
X152970Y49613D01*
X152737Y49962D01*
X152507Y50116D01*
X152473Y50252D01*
Y50535D01*
X152507Y50671D01*
X152737Y50826D01*
X152970Y51174D01*
X153052Y51585D01*
Y52667D01*
X152970Y53078D01*
X152737Y53426D01*
X152389Y53659D01*
X151978Y53741D01*
X150384D01*
X149973Y53659D01*
X149625Y53426D01*
X149560Y53330D01*
X148865D01*
X148800Y53426D01*
X148452Y53659D01*
X148041Y53741D01*
X146447D01*
X146036Y53659D01*
X145721Y53448D01*
X144595D01*
X144555Y53475D01*
X144439Y53498D01*
X144329Y53543D01*
X144211D01*
X144095Y53566D01*
X103571D01*
X103110Y53475D01*
X102720Y53214D01*
X102720Y53214D01*
X92151Y42645D01*
X91943Y42641D01*
X91818Y42781D01*
X91621Y43135D01*
X91654Y43304D01*
Y43437D01*
X90658D01*
Y42578D01*
X90671D01*
X90970Y42095D01*
X90955Y42070D01*
X90709D01*
X90709Y42070D01*
X90701Y42069D01*
X89387D01*
X88958Y41984D01*
X88594Y41741D01*
X88351Y41377D01*
X88266Y40948D01*
Y40358D01*
X87586D01*
X87443Y40573D01*
X86792Y41008D01*
X86024Y41161D01*
X80512D01*
X79744Y41008D01*
X79590Y40905D01*
X79149Y41141D01*
Y45868D01*
X79649Y46135D01*
X79895Y45971D01*
X80512Y45849D01*
X82768D01*
Y47461D01*
Y49073D01*
X80512D01*
X79895Y48950D01*
X79649Y48786D01*
X79149Y49053D01*
Y50473D01*
X79590Y50709D01*
X79744Y50606D01*
X80512Y50454D01*
X86024D01*
X86792Y50606D01*
X87443Y51041D01*
X87586Y51256D01*
X88287D01*
Y51192D01*
X88368Y50780D01*
X88601Y50432D01*
X88832Y50278D01*
X88865Y50142D01*
Y49858D01*
X88832Y49722D01*
X88601Y49568D01*
X88368Y49220D01*
X88287Y48809D01*
Y47727D01*
X88368Y47316D01*
X88601Y46967D01*
X88950Y46734D01*
X89361Y46653D01*
X90954D01*
X91365Y46734D01*
X91681Y46945D01*
X92019D01*
X92059Y46919D01*
X92175Y46896D01*
X92285Y46850D01*
X92403D01*
X92520Y46827D01*
X92636Y46850D01*
X92755D01*
X92864Y46896D01*
X92980Y46919D01*
X93079Y46985D01*
X93189Y47030D01*
X93273Y47114D01*
X93371Y47180D01*
X93437Y47279D01*
X93521Y47363D01*
X93566Y47472D01*
X93632Y47571D01*
X93655Y47687D01*
X93701Y47797D01*
Y47915D01*
X93724Y48031D01*
X93701Y48148D01*
Y48266D01*
X93655Y48376D01*
X93632Y48492D01*
X93566Y48591D01*
X93521Y48700D01*
X93437Y48784D01*
X93371Y48883D01*
X93253Y49001D01*
X92862Y49262D01*
X92402Y49354D01*
X92401Y49354D01*
X91857D01*
X91714Y49568D01*
X91483Y49722D01*
X91450Y49858D01*
Y50142D01*
X91483Y50278D01*
X91714Y50432D01*
X91947Y50780D01*
X92028Y51192D01*
Y52273D01*
X91947Y52684D01*
X91714Y53033D01*
X91365Y53266D01*
X90954Y53347D01*
X89972D01*
X89634Y53573D01*
X89173Y53665D01*
X89173Y53665D01*
X87586D01*
X87443Y53880D01*
X86792Y54315D01*
X86024Y54468D01*
X80512D01*
X79744Y54315D01*
X79590Y54212D01*
X79149Y54448D01*
Y55473D01*
X79590Y55709D01*
X79744Y55606D01*
X80512Y55453D01*
X86024D01*
X86792Y55606D01*
X87443Y56041D01*
X87593Y56266D01*
X90221D01*
X90335Y56180D01*
X90463Y56016D01*
X90563Y55766D01*
X90551Y55737D01*
Y55618D01*
X90528Y55502D01*
X90551Y55386D01*
Y55267D01*
X90597Y55157D01*
X90620Y55041D01*
X90686Y54943D01*
X90731Y54833D01*
X90815Y54749D01*
X90881Y54650D01*
X90979Y54584D01*
X91063Y54501D01*
X91173Y54455D01*
X91271Y54389D01*
X91388Y54366D01*
X91497Y54321D01*
X91616D01*
X91732Y54298D01*
X161417D01*
X161534Y54321D01*
X161652D01*
X161762Y54366D01*
X161878Y54389D01*
X161977Y54455D01*
X162086Y54501D01*
X162170Y54584D01*
X162269Y54650D01*
X162335Y54749D01*
X162419Y54833D01*
X162464Y54943D01*
X162530Y55041D01*
X162553Y55157D01*
X162598Y55267D01*
Y55386D01*
X162622Y55502D01*
X162598Y55618D01*
Y55737D01*
X162586Y55766D01*
X162687Y56016D01*
X162815Y56180D01*
X162928Y56266D01*
X164951D01*
X164951Y56266D01*
X165117Y56299D01*
X165196D01*
X165269Y56329D01*
X165412Y56358D01*
X165533Y56439D01*
X165630Y56479D01*
X165704Y56553D01*
X165802Y56619D01*
X165812Y56629D01*
X165878Y56727D01*
X165962Y56811D01*
X166007Y56921D01*
X166073Y57020D01*
X166096Y57136D01*
X166142Y57245D01*
Y57364D01*
X166165Y57480D01*
X166142Y57597D01*
Y57715D01*
X166096Y57825D01*
X166073Y57941D01*
X166007Y58040D01*
X165962Y58149D01*
X165878Y58233D01*
X165812Y58332D01*
X165714Y58398D01*
X165630Y58482D01*
X165520Y58527D01*
X165421Y58593D01*
X165305Y58616D01*
X165196Y58661D01*
X165077D01*
X164961Y58685D01*
X164911Y58675D01*
X158888D01*
X158828Y58845D01*
X158805Y59175D01*
X158827Y59189D01*
X158937Y59235D01*
X159021Y59319D01*
X159119Y59385D01*
X159185Y59483D01*
X159269Y59567D01*
X159314Y59677D01*
X159380Y59775D01*
X159403Y59892D01*
X159449Y60001D01*
Y60120D01*
X159472Y60236D01*
X159449Y60352D01*
Y60471D01*
X159403Y60581D01*
X159380Y60697D01*
X159314Y60796D01*
X159302Y60825D01*
X159426Y61135D01*
X159547Y61312D01*
X159562Y61325D01*
X167254D01*
X167254Y61325D01*
X167715Y61417D01*
X167972Y61589D01*
X167992Y61597D01*
X168007Y61612D01*
X168105Y61678D01*
X168174Y61747D01*
X168240Y61845D01*
X168324Y61929D01*
X168369Y62039D01*
X168435Y62138D01*
X168458Y62254D01*
X168504Y62363D01*
X168899Y62348D01*
X168996Y61889D01*
Y59941D01*
X172608D01*
X172811Y59737D01*
Y51476D01*
X172146D01*
Y45965D01*
X175886D01*
Y51476D01*
X175220D01*
Y59941D01*
X175826D01*
X176083Y59547D01*
Y54035D01*
X179823D01*
Y59547D01*
X180079Y59941D01*
X180217D01*
Y64559D01*
X180217Y64862D01*
X180217Y65362D01*
Y68277D01*
X181167Y69227D01*
X181167Y69227D01*
X181232Y69326D01*
X181316Y69410D01*
X181362Y69519D01*
X181428Y69618D01*
X181451Y69734D01*
X181496Y69844D01*
Y69962D01*
X181519Y70079D01*
X181496Y70195D01*
Y70314D01*
X181451Y70423D01*
X181428Y70540D01*
X181362Y70638D01*
X181316Y70748D01*
X181232Y70832D01*
X181167Y70930D01*
X181068Y70996D01*
X180984Y71080D01*
X180874Y71125D01*
X180776Y71191D01*
X180659Y71214D01*
X180550Y71260D01*
X180431D01*
X180315Y71283D01*
X180199Y71260D01*
X180080D01*
X179970Y71214D01*
X179854Y71191D01*
X179755Y71125D01*
X179646Y71080D01*
X179562Y70996D01*
X179463Y70930D01*
X179463Y70930D01*
X178514Y69980D01*
X176667D01*
X176476Y70442D01*
X176836Y70802D01*
X177097Y71193D01*
X177189Y71653D01*
X179528D01*
Y76378D01*
X174803D01*
Y72951D01*
X174780Y72835D01*
X174780Y72835D01*
Y72152D01*
X172608Y69980D01*
X168996D01*
Y65362D01*
X168996Y65059D01*
X168996Y64559D01*
Y63308D01*
X168899Y62849D01*
X168504Y62833D01*
X168458Y62943D01*
X168435Y63059D01*
X168369Y63158D01*
X168324Y63267D01*
X168240Y63351D01*
X168174Y63450D01*
X168076Y63516D01*
X167992Y63600D01*
X167882Y63645D01*
X167784Y63711D01*
X167667Y63734D01*
X167558Y63779D01*
X167439D01*
X167323Y63803D01*
X167207Y63779D01*
X167088D01*
X166978Y63734D01*
X166976Y63734D01*
X87540D01*
X87443Y63880D01*
X86792Y64315D01*
X86024Y64468D01*
X80512D01*
X79744Y64315D01*
X79590Y64212D01*
X79149Y64448D01*
Y65473D01*
X79590Y65709D01*
X79744Y65606D01*
X80512Y65453D01*
X86024D01*
X86792Y65606D01*
X87443Y66041D01*
X87540Y66188D01*
X164221D01*
X164222Y66187D01*
X164332Y66142D01*
X164451D01*
X164567Y66119D01*
X164683Y66142D01*
X164802D01*
X164911Y66187D01*
X165028Y66210D01*
X165126Y66276D01*
X165236Y66321D01*
X165320Y66405D01*
X165419Y66471D01*
X165484Y66570D01*
X165568Y66654D01*
X165614Y66763D01*
X165680Y66862D01*
X165703Y66978D01*
X165748Y67088D01*
Y67207D01*
X165771Y67323D01*
X165748Y67439D01*
Y67558D01*
X165703Y67667D01*
X165680Y67784D01*
X165614Y67882D01*
X165568Y67992D01*
X165484Y68076D01*
X165419Y68174D01*
X165350Y68243D01*
X165251Y68309D01*
X165236Y68324D01*
X165216Y68332D01*
X164959Y68504D01*
X164498Y68596D01*
X164498Y68596D01*
X87633D01*
X87443Y68880D01*
X86792Y69315D01*
X86024Y69468D01*
X80512D01*
X79744Y69315D01*
X79590Y69212D01*
X79149Y69448D01*
Y70473D01*
X79590Y70709D01*
X79744Y70606D01*
X80512Y70454D01*
X86024D01*
X86792Y70606D01*
X87443Y71041D01*
X87580Y71246D01*
X140895D01*
X140945Y71237D01*
X141061Y71260D01*
X141180D01*
X141289Y71305D01*
X141406Y71328D01*
X141504Y71394D01*
X141614Y71440D01*
X141698Y71523D01*
X141796Y71589D01*
X141862Y71688D01*
X141946Y71772D01*
X141992Y71882D01*
X142057Y71980D01*
X142081Y72096D01*
X142126Y72206D01*
Y72325D01*
X142149Y72441D01*
X142126Y72557D01*
Y72676D01*
X142081Y72786D01*
X142057Y72902D01*
X141992Y73000D01*
X141946Y73110D01*
X141862Y73194D01*
X141796Y73292D01*
X141787Y73302D01*
X141688Y73368D01*
X141614Y73442D01*
X141517Y73482D01*
X141396Y73563D01*
X141253Y73592D01*
X141180Y73622D01*
X141101D01*
X140935Y73655D01*
X140935Y73655D01*
X87593D01*
X87443Y73880D01*
X86792Y74315D01*
X86024Y74468D01*
X80512D01*
X79744Y74315D01*
X79590Y74212D01*
X79149Y74448D01*
Y75868D01*
X79649Y76135D01*
X79895Y75971D01*
X80512Y75849D01*
X82768D01*
Y77461D01*
Y79073D01*
X80512D01*
X79895Y78950D01*
X79649Y78786D01*
X79149Y79053D01*
Y80473D01*
X79590Y80709D01*
X79744Y80606D01*
X80512Y80453D01*
X86024D01*
X86792Y80606D01*
X87443Y81041D01*
X87586Y81256D01*
X88266D01*
Y81099D01*
X88351Y80670D01*
X88594Y80307D01*
X88958Y80064D01*
X89386Y79979D01*
X90928D01*
X91357Y80064D01*
X91721Y80307D01*
X91921Y80607D01*
X92835D01*
X92835Y80607D01*
X93296Y80699D01*
X93576Y80886D01*
X93582Y80888D01*
X93587Y80894D01*
X93686Y80959D01*
X93765Y81038D01*
X93831Y81137D01*
X93915Y81221D01*
X93960Y81330D01*
X94026Y81429D01*
X94049Y81545D01*
X94095Y81655D01*
Y81773D01*
X94118Y81890D01*
X94095Y82006D01*
Y82125D01*
X94049Y82234D01*
X94026Y82351D01*
X93960Y82449D01*
X93915Y82559D01*
X93831Y82643D01*
X93765Y82741D01*
X93666Y82807D01*
X93582Y82891D01*
X93473Y82936D01*
X93374Y83002D01*
X93258Y83025D01*
X93148Y83071D01*
X93030D01*
X92913Y83094D01*
X92797Y83071D01*
X92678D01*
X92569Y83025D01*
X92518Y83015D01*
X91816D01*
X91721Y83158D01*
X91357Y83401D01*
X90928Y83486D01*
X89882D01*
X89752Y83573D01*
X89291Y83665D01*
X89291Y83665D01*
X87586D01*
X87443Y83880D01*
X86792Y84315D01*
X86024Y84468D01*
X80512D01*
X79744Y84315D01*
X79590Y84212D01*
X79149Y84448D01*
Y85009D01*
X192913Y85009D01*
D02*
G37*
G36*
X50772Y80473D02*
Y79053D01*
X50272Y78786D01*
X50026Y78950D01*
X49409Y79073D01*
X47153D01*
Y77461D01*
Y75849D01*
X48762D01*
X48770Y75843D01*
X49055Y75349D01*
X48970Y75145D01*
Y74675D01*
X48832Y74468D01*
X43898D01*
X43130Y74315D01*
X42478Y73880D01*
X42194Y73454D01*
X41978D01*
X41574Y73622D01*
X41104D01*
X40670Y73442D01*
X40337Y73110D01*
X40157Y72676D01*
Y72206D01*
X40337Y71772D01*
X40670Y71440D01*
X41104Y71260D01*
X41574D01*
X42008Y71440D01*
X42397Y71163D01*
X42478Y71041D01*
X43130Y70606D01*
X43898Y70454D01*
X48800D01*
X49016Y70130D01*
Y69661D01*
X48887Y69468D01*
X43898D01*
X43130Y69315D01*
X42478Y68880D01*
X42155Y68395D01*
X41836D01*
X41574Y68504D01*
X41104D01*
X40670Y68324D01*
X40337Y67992D01*
X40157Y67558D01*
Y67088D01*
X40337Y66654D01*
X40670Y66321D01*
X41104Y66142D01*
X41574D01*
X42008Y66321D01*
X42449Y66086D01*
X42478Y66041D01*
X43130Y65606D01*
X43898Y65453D01*
X48723D01*
X48919Y65160D01*
Y64690D01*
X48771Y64468D01*
X43898D01*
X43130Y64315D01*
X42478Y63880D01*
X42449Y63836D01*
X42008Y63600D01*
X41574Y63779D01*
X41104D01*
X40670Y63600D01*
X40337Y63267D01*
X40157Y62833D01*
Y62363D01*
X40337Y61929D01*
X40670Y61597D01*
X41104Y61417D01*
X41574D01*
X41836Y61526D01*
X42155D01*
X42276Y61344D01*
X42454Y61003D01*
X42207Y60622D01*
X42168Y60583D01*
X41988Y60149D01*
Y59679D01*
X42168Y59245D01*
X42478Y58880D01*
X42238Y58521D01*
X42043Y58229D01*
X41891Y57461D01*
X42043Y56693D01*
X42160Y56517D01*
X42130Y56471D01*
X42053Y56087D01*
Y55919D01*
X41905Y55770D01*
X41725Y55336D01*
Y54866D01*
X41905Y54432D01*
X42237Y54100D01*
X42242Y54057D01*
X42145Y53594D01*
X41471D01*
X41320Y53820D01*
X40972Y54053D01*
X40560Y54135D01*
X38967D01*
X38606Y54431D01*
Y76542D01*
X39106Y76809D01*
X39109Y76807D01*
X39387Y76751D01*
X39658D01*
Y78110D01*
X40158D01*
Y78610D01*
X41654D01*
Y78743D01*
X41599Y79021D01*
X41442Y79256D01*
X41206Y79414D01*
X40929Y79469D01*
X40704D01*
X40437Y79969D01*
X40443Y79979D01*
X40929D01*
X41357Y80064D01*
X41721Y80307D01*
X41869Y80528D01*
X42743D01*
X42743Y80528D01*
X43133Y80606D01*
X43898Y80453D01*
X49409D01*
X50178Y80606D01*
X50331Y80709D01*
X50772Y80473D01*
D02*
G37*
G36*
X18960Y85009D02*
X19291Y84646D01*
Y80338D01*
X17329D01*
Y81783D01*
X13379D01*
Y80338D01*
X12359D01*
X9956Y82741D01*
X9565Y83003D01*
X9104Y83094D01*
X9104Y83094D01*
X8201D01*
X7961Y83453D01*
X7597Y83696D01*
X7169Y83782D01*
X5902D01*
X5474Y83696D01*
X5110Y83453D01*
X4867Y83090D01*
X4782Y82661D01*
Y82175D01*
X4772Y82169D01*
X4272Y82437D01*
Y82661D01*
X4217Y82939D01*
X4060Y83174D01*
X3824Y83331D01*
X3546Y83387D01*
X3413D01*
Y81890D01*
X2413D01*
Y83387D01*
X2280D01*
X2246Y83380D01*
X1917Y83732D01*
X1892Y83813D01*
X2126Y84163D01*
X2451Y84488D01*
X2833Y84743D01*
X3257Y84919D01*
X3707Y85009D01*
X3937Y85009D01*
X18960D01*
D02*
G37*
G36*
X36651Y80066D02*
X36550Y79966D01*
X36289Y79575D01*
X36197Y79114D01*
X36197Y79114D01*
Y71079D01*
X35697Y70812D01*
X35579Y70890D01*
X35039Y70998D01*
X34161D01*
Y68602D01*
Y66207D01*
X35039D01*
X35579Y66314D01*
X35697Y66393D01*
X36197Y66126D01*
Y62929D01*
X35697Y62636D01*
X35236Y62728D01*
X33661D01*
X33047Y62606D01*
X32526Y62257D01*
X32178Y61737D01*
X32056Y61122D01*
Y59153D01*
X31038Y58135D01*
X30777Y57744D01*
X30382Y57412D01*
X30245Y57439D01*
X29921Y57503D01*
X29921Y57503D01*
X29412D01*
X29144Y58003D01*
X29239Y58145D01*
X29362Y58760D01*
Y61122D01*
X29239Y61737D01*
X28891Y62257D01*
X28370Y62606D01*
X27756Y62728D01*
X26181D01*
X26048Y62701D01*
X25802Y63162D01*
X27678Y65038D01*
X27896Y65364D01*
X27972Y65748D01*
Y65859D01*
X28370Y65938D01*
X28891Y66286D01*
X29239Y66807D01*
X29362Y67421D01*
Y69784D01*
X29239Y70398D01*
X28891Y70919D01*
X28370Y71267D01*
X27756Y71389D01*
X26181D01*
X25567Y71267D01*
X25046Y70919D01*
X24698Y70398D01*
X24576Y69784D01*
Y67421D01*
X24698Y66807D01*
X25046Y66286D01*
X25246Y66152D01*
X25318Y65516D01*
X23382Y63580D01*
X22953Y63403D01*
X22621Y63071D01*
X22594Y63006D01*
X22397Y62809D01*
X22260Y62717D01*
X20946Y61403D01*
X20728Y61078D01*
X20667Y60771D01*
X20477Y60696D01*
X20155Y60701D01*
X20118Y60790D01*
X19452Y61457D01*
X18610Y61805D01*
Y59449D01*
X18110D01*
Y58949D01*
X15754D01*
X16102Y58107D01*
X16769Y57441D01*
X17240Y57246D01*
X17276Y56689D01*
X17011Y56536D01*
X16498Y56023D01*
X16135Y55394D01*
X15947Y54694D01*
Y54574D01*
X15447Y54366D01*
X15418Y54395D01*
X15028Y54656D01*
X14567Y54748D01*
X14567Y54747D01*
X13998D01*
Y54803D01*
X13912Y55233D01*
X13669Y55598D01*
X13304Y55841D01*
X12874Y55927D01*
X9961D01*
X9531Y55841D01*
X9166Y55598D01*
X8922Y55233D01*
X8837Y54803D01*
Y52284D01*
X8922Y51853D01*
X9166Y51489D01*
X9176Y51482D01*
Y50880D01*
X9166Y50874D01*
X8922Y50509D01*
X8837Y50079D01*
Y47559D01*
X8922Y47129D01*
X9166Y46764D01*
X9531Y46521D01*
X9710Y46485D01*
X9660Y45985D01*
X8973D01*
X8696Y45930D01*
X8460Y45772D01*
X8303Y45537D01*
X8247Y45259D01*
Y44700D01*
X7747Y44433D01*
X7678Y44480D01*
Y45285D01*
X7596Y45696D01*
X7387Y46009D01*
X7391Y46175D01*
X7475Y46571D01*
X7763Y46764D01*
X8007Y47129D01*
X8093Y47559D01*
Y50079D01*
X8007Y50509D01*
X7763Y50874D01*
X7399Y51117D01*
X7355Y51126D01*
X7287Y51430D01*
X7302Y51646D01*
X7484Y51768D01*
X7642Y52004D01*
X7698Y52284D01*
Y53043D01*
X5512D01*
X3326D01*
Y52284D01*
X3382Y52004D01*
X3540Y51768D01*
X3722Y51646D01*
X3736Y51430D01*
X3669Y51126D01*
X3625Y51117D01*
X3260Y50874D01*
X3017Y50509D01*
X2931Y50079D01*
Y47646D01*
X2930Y47638D01*
X2930Y47638D01*
Y46778D01*
X2510Y46359D01*
X2058D01*
X1606Y46779D01*
Y80112D01*
X1755Y80239D01*
X2106Y80428D01*
X2280Y80393D01*
X2797D01*
X3036Y79893D01*
X2900Y79690D01*
X2808Y79229D01*
X2808Y79229D01*
Y78940D01*
X2639Y78687D01*
X2532Y78150D01*
Y76575D01*
X2639Y76037D01*
X2943Y75581D01*
X3291Y75349D01*
X3294Y75347D01*
X3294Y75347D01*
X3399Y75277D01*
X3549Y75244D01*
X3734Y75203D01*
Y72547D01*
X6890D01*
X10046D01*
Y75203D01*
X10046Y75203D01*
X10046D01*
X10220Y75640D01*
X10229Y75642D01*
X10557Y75861D01*
X10776Y76188D01*
X10853Y76575D01*
Y76862D01*
X9843D01*
Y77862D01*
X10996D01*
X11353Y78053D01*
X11400Y78021D01*
X11860Y77930D01*
X13363D01*
Y67046D01*
X13359Y67045D01*
X13011Y66812D01*
X12778Y66464D01*
X12696Y66053D01*
Y64971D01*
X12778Y64560D01*
X13011Y64211D01*
X13206Y64081D01*
X13183Y63771D01*
X13168Y63674D01*
X12734Y63517D01*
X12584Y63608D01*
X12482Y63761D01*
X12133Y63994D01*
X11722Y64076D01*
X11127D01*
X10946Y64256D01*
Y65117D01*
X11141Y65407D01*
X11248Y65945D01*
Y67520D01*
X11141Y68057D01*
X10836Y68513D01*
X10489Y68745D01*
X10486Y68747D01*
X10486Y68747D01*
X10380Y68818D01*
X10230Y68851D01*
X10046Y68891D01*
Y71547D01*
X6890D01*
X3734D01*
Y68891D01*
X3734Y68891D01*
X3399Y68818D01*
X3294Y68747D01*
X3294Y68747D01*
X3293Y68747D01*
X2943Y68513D01*
X2639Y68057D01*
X2532Y67520D01*
Y65945D01*
X2639Y65407D01*
X2833Y65117D01*
Y64595D01*
X2756Y64408D01*
Y63938D01*
X2936Y63504D01*
X3268Y63172D01*
X3702Y62992D01*
X4172D01*
X4606Y63172D01*
X4921Y63487D01*
X5237Y63172D01*
X5671Y62992D01*
X6101D01*
Y61408D01*
X6183Y60997D01*
X6416Y60648D01*
X6691Y60464D01*
Y59921D01*
X6693Y59914D01*
Y59608D01*
X6873Y59174D01*
X7205Y58841D01*
X7639Y58661D01*
X8109D01*
X8543Y58841D01*
X8875Y59174D01*
X9055Y59608D01*
Y60078D01*
X8899Y60454D01*
Y60570D01*
X9017Y60648D01*
X9171Y60879D01*
X9307Y60913D01*
X9590D01*
X9727Y60879D01*
X9881Y60648D01*
X10229Y60416D01*
X10640Y60334D01*
X11722D01*
X12133Y60416D01*
X12482Y60648D01*
X13011Y60747D01*
X13359Y60514D01*
X13770Y60432D01*
X15364D01*
X15417Y60443D01*
X15777Y60005D01*
X15754Y59949D01*
X17610D01*
Y61805D01*
X16938Y61527D01*
X16506Y61745D01*
X16438Y61820D01*
Y62588D01*
X16356Y62999D01*
X16123Y63348D01*
X15893Y63502D01*
X15859Y63638D01*
Y63921D01*
X15893Y64057D01*
X16123Y64211D01*
X16356Y64560D01*
X16369Y64622D01*
X16986D01*
X17086Y64450D01*
X17599Y63937D01*
X18228Y63574D01*
X18928Y63386D01*
X19654D01*
X20355Y63574D01*
X20983Y63937D01*
X21497Y64450D01*
X21859Y65078D01*
X22047Y65779D01*
Y66505D01*
X21859Y67206D01*
X21497Y67834D01*
X20983Y68347D01*
X20355Y68710D01*
X20192Y68754D01*
X20121Y69290D01*
X20395Y69448D01*
X20908Y69961D01*
X21271Y70590D01*
X21459Y71291D01*
Y72016D01*
X21271Y72717D01*
X20908Y73346D01*
X20395Y73859D01*
X19767Y74222D01*
X19066Y74410D01*
X18340D01*
X17639Y74222D01*
X17011Y73859D01*
X16498Y73346D01*
X16271Y72954D01*
X15771Y73088D01*
Y77930D01*
X29921D01*
X29921Y77930D01*
X30382Y78021D01*
X30773Y78282D01*
X32116Y79626D01*
X35335D01*
Y80528D01*
X36459D01*
X36651Y80066D01*
D02*
G37*
G36*
X35866Y55622D02*
X36197Y55441D01*
Y46693D01*
X36197Y46693D01*
X36197Y46693D01*
Y44003D01*
X35722Y43527D01*
X33668D01*
Y44776D01*
X31890D01*
X30112D01*
Y43952D01*
X29612Y43745D01*
X28607Y44749D01*
X28543Y44792D01*
Y47835D01*
X26696D01*
Y50299D01*
X26721Y50336D01*
X27240Y50384D01*
X27273Y50305D01*
X27551Y50190D01*
Y51024D01*
X27559D01*
X27559Y51457D01*
X28090Y51988D01*
X27921Y52397D01*
X28674Y53150D01*
X28838Y53192D01*
X28854Y53194D01*
X29175Y53060D01*
X29331Y52915D01*
Y52559D01*
X34449D01*
Y55187D01*
X34600Y55338D01*
X34889D01*
X34889Y55338D01*
X35350Y55430D01*
X35697Y55662D01*
X35866Y55622D01*
D02*
G37*
G36*
X28543Y55295D02*
X28543Y53937D01*
X28465D01*
X27559Y54843D01*
X27559Y55295D01*
X28543Y55295D01*
D02*
G37*
G36*
X25984Y54843D02*
X25079Y53937D01*
X25000D01*
X25000Y55295D01*
X25984Y55295D01*
X25984Y54843D01*
D02*
G37*
G36*
Y51457D02*
X25984Y51004D01*
X25000Y51004D01*
X25000Y52362D01*
X25079D01*
X25984Y51457D01*
D02*
G37*
G36*
X42478Y51041D02*
X43130Y50606D01*
X43898Y50454D01*
X49409D01*
X50178Y50606D01*
X50331Y50709D01*
X50772Y50473D01*
Y49053D01*
X50272Y48786D01*
X50026Y48950D01*
X49409Y49073D01*
X47153D01*
Y47461D01*
Y45849D01*
X49409D01*
X50026Y45971D01*
X50272Y46135D01*
X50772Y45868D01*
Y41141D01*
X50331Y40905D01*
X50178Y41008D01*
X49409Y41161D01*
X43898D01*
X43130Y41008D01*
X42478Y40573D01*
X42355Y40387D01*
X41495D01*
X41327Y40638D01*
X40968Y40878D01*
Y42126D01*
X40968Y42126D01*
X40945Y42243D01*
Y42361D01*
X40900Y42470D01*
X40876Y42587D01*
X40810Y42686D01*
X40765Y42795D01*
X40681Y42879D01*
X40615Y42977D01*
X40615Y42977D01*
X40615Y42977D01*
X40517Y43043D01*
X40433Y43127D01*
X40323Y43173D01*
X40225Y43238D01*
X40212Y43241D01*
X39921Y43435D01*
X39460Y43527D01*
X39460Y43527D01*
X38606D01*
Y46194D01*
X39852Y47440D01*
X40560D01*
X40972Y47522D01*
X41320Y47755D01*
X41553Y48103D01*
X41635Y48514D01*
Y49596D01*
X41553Y50007D01*
X41320Y50356D01*
X41090Y50510D01*
X41056Y50646D01*
Y50929D01*
X41090Y51065D01*
X41320Y51219D01*
X41432Y51386D01*
X42248D01*
X42478Y51041D01*
D02*
G37*
G36*
X28479Y41471D02*
X28479Y41471D01*
X28870Y41210D01*
X29331Y41119D01*
X36220D01*
X36220Y41119D01*
X36220Y41119D01*
X38020D01*
X38165Y40733D01*
X38188Y40619D01*
X37958Y40275D01*
X37872Y39846D01*
Y38579D01*
X37958Y38151D01*
X38201Y37787D01*
X38564Y37544D01*
X38993Y37459D01*
X40535D01*
X40964Y37544D01*
X41327Y37787D01*
X41456Y37979D01*
X42315D01*
X42478Y37734D01*
X43130Y37299D01*
X43898Y37146D01*
X49409D01*
X50178Y37299D01*
X50331Y37402D01*
X50772Y37166D01*
Y35746D01*
X50272Y35479D01*
X50026Y35643D01*
X49409Y35766D01*
X47153D01*
Y34154D01*
Y32541D01*
X49409D01*
X50026Y32664D01*
X50272Y32828D01*
X50772Y32561D01*
Y31141D01*
X50331Y30905D01*
X50178Y31008D01*
X49409Y31161D01*
X43898D01*
X43130Y31008D01*
X42478Y30573D01*
X42043Y29922D01*
X41891Y29153D01*
X42043Y28385D01*
X42478Y27734D01*
X43130Y27299D01*
X43898Y27147D01*
X47938D01*
X48031Y27007D01*
Y26537D01*
X47780Y26161D01*
X43898D01*
X43130Y26008D01*
X42478Y25573D01*
X42043Y24922D01*
X41966Y24531D01*
X41902Y24494D01*
X41605Y24413D01*
X41435Y24426D01*
X41403Y24474D01*
X41304Y24540D01*
X41220Y24623D01*
X41111Y24669D01*
X41012Y24735D01*
X40896Y24758D01*
X40786Y24803D01*
X40668D01*
X40551Y24826D01*
X40435Y24803D01*
X40316D01*
X40207Y24758D01*
X40090Y24735D01*
X39992Y24669D01*
X39882Y24623D01*
X39798Y24540D01*
X39700Y24474D01*
X39634Y24375D01*
X39550Y24291D01*
X39505Y24182D01*
X39439Y24083D01*
X39415Y23967D01*
X39370Y23857D01*
Y23838D01*
X39338Y23813D01*
X38870Y24040D01*
X38846Y24073D01*
X38838Y24101D01*
Y24175D01*
X38763Y24551D01*
X38594Y24803D01*
X38763Y25056D01*
X38838Y25431D01*
Y25768D01*
X39156Y25981D01*
X39626D01*
X40060Y26161D01*
X40392Y26493D01*
X40572Y26927D01*
Y27397D01*
X40395Y27826D01*
Y30185D01*
X40318Y30569D01*
X40101Y30895D01*
X39913Y31082D01*
X40031Y31672D01*
X40039Y31676D01*
X40371Y32008D01*
X40551Y32442D01*
Y32912D01*
X40371Y33346D01*
X40039Y33678D01*
X39911Y33732D01*
X40010Y34232D01*
X40535D01*
X40813Y34287D01*
X41048Y34444D01*
X41205Y34680D01*
X41261Y34958D01*
Y35091D01*
X39764D01*
Y35591D01*
X39264D01*
Y36949D01*
X38993D01*
X38715Y36894D01*
X38480Y36737D01*
X38006Y36583D01*
X37849Y36623D01*
X37538Y36752D01*
X37446D01*
X37130Y37068D01*
X36805Y37285D01*
X36420Y37362D01*
X34999D01*
Y37856D01*
X34925Y38232D01*
X34712Y38550D01*
X34393Y38763D01*
X34018Y38838D01*
X33566D01*
X33549Y38844D01*
X33309Y39010D01*
X33191Y39194D01*
X33151Y39317D01*
X33160Y39363D01*
X33137Y39480D01*
Y39598D01*
X33092Y39708D01*
X33068Y39824D01*
X33003Y39923D01*
X32957Y40032D01*
X32873Y40116D01*
X32807Y40215D01*
X32709Y40281D01*
X32625Y40365D01*
X32515Y40410D01*
X32417Y40476D01*
X32300Y40499D01*
X32191Y40544D01*
X32072D01*
X31956Y40567D01*
X31840Y40544D01*
X31721D01*
X31611Y40499D01*
X31495Y40476D01*
X31396Y40410D01*
X31287Y40365D01*
X31203Y40281D01*
X31104Y40215D01*
X30973Y40083D01*
X30712Y39693D01*
X30620Y39232D01*
X30620Y39232D01*
Y39209D01*
X30542Y39141D01*
X30099Y38928D01*
X26979Y42048D01*
X26866Y42123D01*
X26970Y42639D01*
X27275Y42675D01*
X28479Y41471D01*
D02*
G37*
G36*
X16445Y34297D02*
X16704Y34405D01*
X16863Y34166D01*
X17182Y33953D01*
X17557Y33879D01*
X18270D01*
X18645Y33953D01*
X18898Y34122D01*
X19150Y33953D01*
X19526Y33879D01*
X20238D01*
X20614Y33953D01*
X20866Y34122D01*
X21119Y33953D01*
X21494Y33879D01*
X22207D01*
X22582Y33953D01*
X22835Y34122D01*
X23087Y33953D01*
X23463Y33879D01*
X24175D01*
X24551Y33953D01*
X24803Y34122D01*
X25056Y33953D01*
X25431Y33879D01*
X26144D01*
X26519Y33953D01*
X26772Y34122D01*
X27024Y33953D01*
X27400Y33879D01*
X28112D01*
X28488Y33953D01*
X28740Y34122D01*
X28993Y33953D01*
X29368Y33879D01*
X30081D01*
X30456Y33953D01*
X30709Y34122D01*
X30961Y33953D01*
X31337Y33879D01*
X32049D01*
X32425Y33953D01*
X32677Y34122D01*
X32930Y33953D01*
X33305Y33879D01*
X33879D01*
Y33305D01*
X33953Y32930D01*
X34122Y32677D01*
X33953Y32425D01*
X33879Y32049D01*
Y31337D01*
X33953Y30961D01*
X34122Y30709D01*
X33953Y30456D01*
X33879Y30081D01*
Y29368D01*
X33953Y28993D01*
X34122Y28740D01*
X33953Y28488D01*
X33879Y28112D01*
Y27400D01*
X33953Y27024D01*
X34122Y26772D01*
X33953Y26519D01*
X33879Y26144D01*
Y25431D01*
X33953Y25056D01*
X34122Y24803D01*
X33953Y24551D01*
X33879Y24175D01*
Y23463D01*
X33953Y23087D01*
X34122Y22835D01*
X33953Y22582D01*
X33879Y22207D01*
Y21494D01*
X33953Y21119D01*
X34122Y20866D01*
X33953Y20614D01*
X33879Y20238D01*
Y19526D01*
X33953Y19150D01*
X34122Y18898D01*
X33953Y18645D01*
X33879Y18270D01*
Y17557D01*
X33953Y17182D01*
X34122Y16929D01*
X33953Y16677D01*
X33879Y16301D01*
Y15589D01*
X33953Y15213D01*
X34122Y14961D01*
X33953Y14708D01*
X33879Y14333D01*
Y13620D01*
X33953Y13245D01*
X34166Y12926D01*
X34405Y12767D01*
X34297Y12508D01*
X36358D01*
Y11508D01*
X34297D01*
X34405Y11249D01*
X34166Y11090D01*
X33953Y10771D01*
X33879Y10396D01*
Y9683D01*
X33953Y9308D01*
X34122Y9055D01*
X33953Y8803D01*
X33879Y8427D01*
Y7853D01*
X33305D01*
X32930Y7779D01*
X32611Y7566D01*
X32452Y7328D01*
X32193Y7435D01*
Y5374D01*
X31193D01*
Y7435D01*
X30934Y7328D01*
X30775Y7566D01*
X30456Y7779D01*
X30081Y7853D01*
X29368D01*
X28993Y7779D01*
X28740Y7610D01*
X28488Y7779D01*
X28112Y7853D01*
X27400D01*
X27024Y7779D01*
X26772Y7610D01*
X26519Y7779D01*
X26144Y7853D01*
X25431D01*
X25056Y7779D01*
X24803Y7610D01*
X24551Y7779D01*
X24175Y7853D01*
X23463D01*
X23087Y7779D01*
X22835Y7610D01*
X22582Y7779D01*
X22207Y7853D01*
X21494D01*
X21119Y7779D01*
X20866Y7610D01*
X20614Y7779D01*
X20238Y7853D01*
X19526D01*
X19150Y7779D01*
X18898Y7610D01*
X18645Y7779D01*
X18270Y7853D01*
X17557D01*
X17182Y7779D01*
X16929Y7610D01*
X16677Y7779D01*
X16301Y7853D01*
X15589D01*
X15213Y7779D01*
X14961Y7610D01*
X14708Y7779D01*
X14333Y7853D01*
X13620D01*
X13245Y7779D01*
X12992Y7610D01*
X12740Y7779D01*
X12364Y7853D01*
X11652D01*
X11276Y7779D01*
X11024Y7610D01*
X10771Y7779D01*
X10396Y7853D01*
X9683D01*
X9308Y7779D01*
X9055Y7610D01*
X8803Y7779D01*
X8427Y7853D01*
X7853D01*
Y8427D01*
X7779Y8803D01*
X7610Y9055D01*
X7779Y9308D01*
X7853Y9683D01*
Y10396D01*
X7779Y10771D01*
X7610Y11024D01*
X7779Y11276D01*
X7853Y11652D01*
Y12364D01*
X7779Y12740D01*
X7610Y12992D01*
X7779Y13245D01*
X7853Y13620D01*
Y14333D01*
X7779Y14708D01*
X7610Y14961D01*
X7779Y15213D01*
X7853Y15589D01*
Y16301D01*
X7779Y16677D01*
X7610Y16929D01*
X7779Y17182D01*
X7853Y17557D01*
Y18270D01*
X7779Y18645D01*
X7610Y18898D01*
X7779Y19150D01*
X7853Y19526D01*
Y20238D01*
X7779Y20614D01*
X7566Y20932D01*
X7328Y21091D01*
X7435Y21350D01*
X5374D01*
Y22350D01*
X7435D01*
X7328Y22610D01*
X7566Y22769D01*
X7779Y23087D01*
X7853Y23463D01*
Y24175D01*
X7779Y24551D01*
X7610Y24803D01*
X7779Y25056D01*
X7853Y25431D01*
Y26144D01*
X7779Y26519D01*
X7610Y26772D01*
X7779Y27024D01*
X7853Y27400D01*
Y28112D01*
X7779Y28488D01*
X7610Y28740D01*
X7779Y28993D01*
X7853Y29368D01*
Y30081D01*
X7779Y30456D01*
X7610Y30709D01*
X7779Y30961D01*
X7853Y31337D01*
Y32049D01*
X7779Y32425D01*
X7610Y32677D01*
X7779Y32930D01*
X7853Y33305D01*
Y33879D01*
X8427D01*
X8803Y33953D01*
X9055Y34122D01*
X9308Y33953D01*
X9683Y33879D01*
X10396D01*
X10771Y33953D01*
X11024Y34122D01*
X11276Y33953D01*
X11652Y33879D01*
X12364D01*
X12740Y33953D01*
X12992Y34122D01*
X13245Y33953D01*
X13620Y33879D01*
X14333D01*
X14708Y33953D01*
X15027Y34166D01*
X15186Y34405D01*
X15445Y34297D01*
Y36358D01*
X16445D01*
Y34297D01*
D02*
G37*
G36*
X133558Y45447D02*
X133351Y44947D01*
X131405D01*
Y37803D01*
X133806D01*
Y44493D01*
X134306Y44700D01*
X135016Y43989D01*
Y27244D01*
X135016Y27244D01*
X135108Y26783D01*
X135369Y26393D01*
X137618Y24143D01*
Y9783D01*
X137247Y9472D01*
X100892D01*
X90968Y19397D01*
Y19987D01*
X90968Y19987D01*
X90876Y20448D01*
X90615Y20839D01*
X90615Y20839D01*
X87910Y23544D01*
X88031Y24153D01*
X87878Y24922D01*
X87443Y25573D01*
X86792Y26008D01*
X86024Y26161D01*
X80512D01*
X79744Y26008D01*
X79590Y25905D01*
X79149Y26141D01*
Y27166D01*
X79590Y27402D01*
X79744Y27299D01*
X80512Y27147D01*
X86024D01*
X86792Y27299D01*
X87443Y27734D01*
X87878Y28385D01*
X88031Y29153D01*
X88016Y29226D01*
X89828Y31038D01*
X89828Y31038D01*
X90089Y31429D01*
X90181Y31890D01*
Y34541D01*
X102074Y46434D01*
X132572D01*
X133558Y45447D01*
D02*
G37*
G36*
X88601Y7912D02*
X88832Y7758D01*
X88865Y7622D01*
Y7339D01*
X88832Y7203D01*
X88601Y7049D01*
X88368Y6700D01*
X88287Y6289D01*
Y5207D01*
X88368Y4796D01*
X88601Y4448D01*
X88950Y4215D01*
X89361Y4133D01*
X90954D01*
X91365Y4215D01*
X91681Y4426D01*
X92413D01*
X92453Y4399D01*
X92569Y4376D01*
X92678Y4331D01*
X92797D01*
X92913Y4308D01*
X94883D01*
X97123Y2067D01*
X96932Y1606D01*
X79149D01*
Y2561D01*
X79649Y2828D01*
X79895Y2664D01*
X80512Y2541D01*
X82768D01*
Y4154D01*
Y5766D01*
X80512D01*
X79895Y5643D01*
X79649Y5479D01*
X79149Y5746D01*
Y7166D01*
X79590Y7402D01*
X79744Y7299D01*
X80512Y7147D01*
X86024D01*
X86792Y7299D01*
X87443Y7734D01*
X87606Y7979D01*
X88557D01*
X88601Y7912D01*
D02*
G37*
G36*
X39351Y8016D02*
X39780Y7931D01*
X41322D01*
X41751Y8016D01*
X42399Y7854D01*
X42478Y7734D01*
X43130Y7299D01*
X43898Y7147D01*
X49409D01*
X50178Y7299D01*
X50331Y7402D01*
X50772Y7166D01*
Y5746D01*
X50272Y5479D01*
X50026Y5643D01*
X49409Y5766D01*
X47153D01*
Y4154D01*
Y2541D01*
X49409D01*
X50026Y2664D01*
X50272Y2828D01*
X50772Y2561D01*
Y1606D01*
X35364D01*
X35030Y2106D01*
X35039Y2127D01*
Y2597D01*
X34860Y3031D01*
X34763Y3127D01*
Y3260D01*
X34925Y3500D01*
X34999Y3876D01*
Y6733D01*
X36258D01*
Y6058D01*
X36258Y6058D01*
X36350Y5597D01*
X36611Y5206D01*
X36662Y5155D01*
X36683Y5051D01*
X36749Y4952D01*
X36794Y4843D01*
X36878Y4759D01*
X36944Y4660D01*
X37042Y4594D01*
X37126Y4510D01*
X37236Y4465D01*
X37334Y4399D01*
X37451Y4376D01*
X37560Y4331D01*
X37679D01*
X37795Y4308D01*
X37912Y4331D01*
X38030D01*
X38140Y4376D01*
X38256Y4399D01*
X38355Y4465D01*
X38464Y4510D01*
X38548Y4594D01*
X38647Y4660D01*
X38713Y4759D01*
X38748Y4794D01*
X39046Y4867D01*
X39233Y4885D01*
X39342Y4866D01*
X39502Y4759D01*
X39780Y4704D01*
X40051D01*
Y6063D01*
Y7422D01*
X39780D01*
X39502Y7367D01*
X39336Y7255D01*
X39073Y7344D01*
X38859Y7492D01*
X38891Y7787D01*
X39338Y8026D01*
X39351Y8016D01*
D02*
G37*
%LPC*%
G36*
X90928Y79469D02*
X90657D01*
Y78610D01*
X91654D01*
Y78743D01*
X91599Y79021D01*
X91441Y79256D01*
X91206Y79414D01*
X90928Y79469D01*
D02*
G37*
G36*
X89657D02*
X89386D01*
X89109Y79414D01*
X88873Y79256D01*
X88716Y79021D01*
X88661Y78743D01*
Y78610D01*
X89657D01*
Y79469D01*
D02*
G37*
G36*
X86024Y79073D02*
X83768D01*
Y77961D01*
X87536D01*
X87513Y78078D01*
X87164Y78601D01*
X86641Y78950D01*
X86024Y79073D01*
D02*
G37*
G36*
X91654Y77610D02*
X90657D01*
Y76751D01*
X90928D01*
X91206Y76807D01*
X91441Y76964D01*
X91599Y77199D01*
X91654Y77477D01*
Y77610D01*
D02*
G37*
G36*
X89657D02*
X88661D01*
Y77477D01*
X88716Y77199D01*
X88873Y76964D01*
X89109Y76807D01*
X89386Y76751D01*
X89657D01*
Y77610D01*
D02*
G37*
G36*
X87536Y76961D02*
X83768D01*
Y75849D01*
X86024D01*
X86641Y75971D01*
X87164Y76321D01*
X87513Y76844D01*
X87536Y76961D01*
D02*
G37*
G36*
X188688Y80717D02*
X187690D01*
X186727Y80458D01*
X185863Y79960D01*
X185158Y79255D01*
X184660Y78391D01*
X184402Y77428D01*
Y76430D01*
X184660Y75467D01*
X185158Y74604D01*
X185863Y73899D01*
X186727Y73400D01*
X187690Y73142D01*
X188688D01*
X189651Y73400D01*
X190515Y73899D01*
X191220Y74604D01*
X191718Y75467D01*
X191976Y76430D01*
Y77428D01*
X191718Y78391D01*
X191220Y79255D01*
X190515Y79960D01*
X189651Y80458D01*
X188688Y80717D01*
D02*
G37*
G36*
X173228Y76378D02*
X168504D01*
Y75220D01*
X144095D01*
X143978Y75197D01*
X143860D01*
X143750Y75151D01*
X143634Y75128D01*
X143535Y75062D01*
X143426Y75017D01*
X143342Y74933D01*
X143243Y74867D01*
X143177Y74769D01*
X143093Y74685D01*
X143048Y74575D01*
X142982Y74477D01*
X142959Y74360D01*
X142913Y74251D01*
Y74132D01*
X142890Y74016D01*
X142913Y73899D01*
Y73781D01*
X142959Y73671D01*
X142982Y73555D01*
X143048Y73456D01*
X143093Y73347D01*
X143177Y73263D01*
X143243Y73164D01*
X143342Y73098D01*
X143426Y73014D01*
X143535Y72969D01*
X143634Y72903D01*
X143750Y72880D01*
X143860Y72835D01*
X143978D01*
X144095Y72812D01*
X168504D01*
Y71653D01*
X173228D01*
Y76378D01*
D02*
G37*
G36*
X188688Y70717D02*
X187690D01*
X186727Y70458D01*
X185863Y69960D01*
X185158Y69255D01*
X184660Y68391D01*
X184402Y67428D01*
Y66430D01*
X184660Y65467D01*
X185158Y64604D01*
X185863Y63898D01*
X186727Y63400D01*
X187690Y63142D01*
X188688D01*
X189651Y63400D01*
X190515Y63898D01*
X191220Y64604D01*
X191718Y65467D01*
X191976Y66430D01*
Y67428D01*
X191718Y68391D01*
X191220Y69255D01*
X190515Y69960D01*
X189651Y70458D01*
X188688Y70717D01*
D02*
G37*
G36*
X188716Y60929D02*
X188689D01*
Y57429D01*
X192189D01*
Y57456D01*
X191916Y58473D01*
X191390Y59385D01*
X190645Y60130D01*
X189733Y60656D01*
X188716Y60929D01*
D02*
G37*
G36*
X187689D02*
X187662D01*
X186645Y60656D01*
X185733Y60130D01*
X184988Y59385D01*
X184462Y58473D01*
X184189Y57456D01*
Y57429D01*
X187689D01*
Y60929D01*
D02*
G37*
G36*
X171561Y59160D02*
X170579D01*
Y57291D01*
X171561D01*
Y59160D01*
D02*
G37*
G36*
X169579D02*
X168596D01*
Y57291D01*
X169579D01*
Y59160D01*
D02*
G37*
G36*
X171561Y56291D02*
X170579D01*
Y54423D01*
X171561D01*
Y56291D01*
D02*
G37*
G36*
X169579D02*
X168596D01*
Y54423D01*
X169579D01*
Y56291D01*
D02*
G37*
G36*
X192189Y56429D02*
X188689D01*
Y52929D01*
X188716D01*
X189733Y53202D01*
X190645Y53728D01*
X191390Y54473D01*
X191916Y55385D01*
X192189Y56402D01*
Y56429D01*
D02*
G37*
G36*
X187689D02*
X184189D01*
Y56402D01*
X184462Y55385D01*
X184988Y54473D01*
X185733Y53728D01*
X186645Y53202D01*
X187662Y52929D01*
X187689D01*
Y56429D01*
D02*
G37*
G36*
X158896Y53150D02*
X158426D01*
X157992Y52970D01*
X157660Y52637D01*
X157480Y52203D01*
Y51734D01*
X157660Y51300D01*
X157992Y50967D01*
X158426Y50787D01*
X158896D01*
X159330Y50967D01*
X159663Y51300D01*
X159843Y51734D01*
Y52203D01*
X159663Y52637D01*
X159330Y52970D01*
X158896Y53150D01*
D02*
G37*
G36*
X86024Y49073D02*
X83768D01*
Y47961D01*
X87536D01*
X87513Y48077D01*
X87164Y48601D01*
X86641Y48950D01*
X86024Y49073D01*
D02*
G37*
G36*
X87536Y46961D02*
X83768D01*
Y45849D01*
X86024D01*
X86641Y45971D01*
X87164Y46321D01*
X87513Y46844D01*
X87536Y46961D01*
D02*
G37*
G36*
X90929Y45296D02*
X90658D01*
Y44437D01*
X91654D01*
Y44570D01*
X91599Y44848D01*
X91442Y45083D01*
X91206Y45241D01*
X90929Y45296D01*
D02*
G37*
G36*
X89658D02*
X89387D01*
X89109Y45241D01*
X88874Y45083D01*
X88716Y44848D01*
X88661Y44570D01*
Y44437D01*
X89658D01*
Y45296D01*
D02*
G37*
G36*
X194002Y45577D02*
X192232D01*
Y44004D01*
X194002D01*
Y45577D01*
D02*
G37*
G36*
X191232D02*
X189462D01*
Y44004D01*
X191232D01*
Y45577D01*
D02*
G37*
G36*
X89658Y43437D02*
X88661D01*
Y43304D01*
X88716Y43026D01*
X88874Y42791D01*
X89109Y42633D01*
X89387Y42578D01*
X89658D01*
Y43437D01*
D02*
G37*
G36*
X194002Y43004D02*
X192232D01*
Y41431D01*
X194002D01*
Y43004D01*
D02*
G37*
G36*
X191232D02*
X189462D01*
Y41431D01*
X191232D01*
Y43004D01*
D02*
G37*
G36*
X194390Y40846D02*
X189075D01*
Y35925D01*
X190528D01*
Y34252D01*
X189370D01*
Y29528D01*
X194095D01*
Y34252D01*
X192937D01*
Y35925D01*
X194390D01*
Y40846D01*
D02*
G37*
G36*
X184193Y45335D02*
X177618D01*
Y29272D01*
X184193D01*
Y45335D01*
D02*
G37*
G36*
X174193D02*
X167618D01*
Y29272D01*
X174193D01*
Y45335D01*
D02*
G37*
G36*
X164193D02*
X157618D01*
Y29272D01*
X164193D01*
Y45335D01*
D02*
G37*
G36*
X46154Y79073D02*
X43898D01*
X43281Y78950D01*
X42758Y78601D01*
X42408Y78078D01*
X42385Y77961D01*
X46154D01*
Y79073D01*
D02*
G37*
G36*
X41654Y77610D02*
X40658D01*
Y76751D01*
X40929D01*
X41206Y76807D01*
X41442Y76964D01*
X41599Y77199D01*
X41654Y77477D01*
Y77610D01*
D02*
G37*
G36*
X46154Y76961D02*
X42385D01*
X42408Y76844D01*
X42758Y76321D01*
X43281Y75971D01*
X43898Y75849D01*
X46154D01*
Y76961D01*
D02*
G37*
G36*
X17329Y84258D02*
X15854D01*
Y82784D01*
X17329D01*
Y84258D01*
D02*
G37*
G36*
X14854D02*
X13379D01*
Y82784D01*
X14854D01*
Y84258D01*
D02*
G37*
G36*
X33161Y70998D02*
X32283D01*
X31743Y70890D01*
X31286Y70585D01*
X30979Y70127D01*
X30872Y69587D01*
Y69102D01*
X33161D01*
Y70998D01*
D02*
G37*
G36*
Y68102D02*
X30872D01*
Y67618D01*
X30979Y67078D01*
X31286Y66620D01*
X31743Y66314D01*
X32283Y66207D01*
X33161D01*
Y68102D01*
D02*
G37*
G36*
X6968Y55532D02*
X6012D01*
Y54043D01*
X7698D01*
Y54803D01*
X7642Y55082D01*
X7484Y55319D01*
X7248Y55477D01*
X6968Y55532D01*
D02*
G37*
G36*
X5012D02*
X4055D01*
X3776Y55477D01*
X3540Y55319D01*
X3382Y55082D01*
X3326Y54803D01*
Y54043D01*
X5012D01*
Y55532D01*
D02*
G37*
G36*
X28543Y51861D02*
X28543Y51524D01*
X28920D01*
X28829Y51743D01*
X28543Y51861D01*
D02*
G37*
G36*
X28920Y50524D02*
X28551D01*
Y50190D01*
X28829Y50305D01*
X28920Y50524D01*
D02*
G37*
G36*
X34061Y50991D02*
X32390D01*
Y49713D01*
X34061D01*
Y50991D01*
D02*
G37*
G36*
X31390D02*
X29718D01*
Y49713D01*
X31390D01*
Y50991D01*
D02*
G37*
G36*
X34061Y48713D02*
X31890D01*
X29718D01*
Y47435D01*
X30112D01*
Y45776D01*
X31890D01*
X33668D01*
Y47435D01*
X34061D01*
Y48713D01*
D02*
G37*
G36*
X46154Y49073D02*
X43898D01*
X43281Y48950D01*
X42758Y48601D01*
X42408Y48077D01*
X42385Y47961D01*
X46154D01*
Y49073D01*
D02*
G37*
G36*
Y46961D02*
X42385D01*
X42408Y46844D01*
X42758Y46321D01*
X43281Y45971D01*
X43898Y45849D01*
X46154D01*
Y46961D01*
D02*
G37*
G36*
X40535Y36949D02*
X40264D01*
Y36091D01*
X41261D01*
Y36224D01*
X41205Y36501D01*
X41048Y36737D01*
X40813Y36894D01*
X40535Y36949D01*
D02*
G37*
G36*
X46154Y35766D02*
X43898D01*
X43281Y35643D01*
X42758Y35293D01*
X42408Y34770D01*
X42385Y34653D01*
X46154D01*
Y35766D01*
D02*
G37*
G36*
Y33654D02*
X42385D01*
X42408Y33537D01*
X42758Y33014D01*
X43281Y32664D01*
X43898Y32541D01*
X46154D01*
Y33654D01*
D02*
G37*
G36*
X33274Y33274D02*
X21366D01*
Y21366D01*
X33274D01*
Y33274D01*
D02*
G37*
G36*
X20366D02*
X8458D01*
Y21366D01*
X20366D01*
Y33274D01*
D02*
G37*
G36*
X33274Y20366D02*
X21366D01*
Y8458D01*
X33274D01*
Y20366D01*
D02*
G37*
G36*
X20366D02*
X8458D01*
Y8458D01*
X20366D01*
Y20366D01*
D02*
G37*
G36*
X130405Y44947D02*
X128006D01*
Y37803D01*
X130405D01*
Y44947D01*
D02*
G37*
G36*
X133806Y36803D02*
X131405D01*
Y29659D01*
X133806D01*
Y36803D01*
D02*
G37*
G36*
X130405D02*
X128006D01*
Y29659D01*
X130405D01*
Y36803D01*
D02*
G37*
G36*
X133806Y25459D02*
X131405D01*
Y18315D01*
X133806D01*
Y25459D01*
D02*
G37*
G36*
X130405D02*
X128006D01*
Y18315D01*
X130405D01*
Y25459D01*
D02*
G37*
G36*
X133806Y17315D02*
X131405D01*
Y10171D01*
X133806D01*
Y17315D01*
D02*
G37*
G36*
X130405D02*
X128006D01*
Y10171D01*
X130405D01*
Y17315D01*
D02*
G37*
G36*
X86024Y5766D02*
X83768D01*
Y4654D01*
X87536D01*
X87513Y4770D01*
X87164Y5293D01*
X86641Y5643D01*
X86024Y5766D01*
D02*
G37*
G36*
X87536Y3653D02*
X83768D01*
Y2541D01*
X86024D01*
X86641Y2664D01*
X87164Y3014D01*
X87513Y3537D01*
X87536Y3653D01*
D02*
G37*
G36*
X41322Y7422D02*
X41051D01*
Y6563D01*
X42048D01*
Y6696D01*
X41992Y6974D01*
X41835Y7209D01*
X41600Y7367D01*
X41322Y7422D01*
D02*
G37*
G36*
X42048Y5563D02*
X41051D01*
Y4704D01*
X41322D01*
X41600Y4759D01*
X41835Y4917D01*
X41992Y5152D01*
X42048Y5430D01*
Y5563D01*
D02*
G37*
G36*
X46154Y5766D02*
X43898D01*
X43281Y5643D01*
X42758Y5293D01*
X42408Y4770D01*
X42385Y4654D01*
X46154D01*
Y5766D01*
D02*
G37*
G36*
Y3653D02*
X42385D01*
X42408Y3537D01*
X42758Y3014D01*
X43281Y2664D01*
X43898Y2541D01*
X46154D01*
Y3653D01*
D02*
G37*
%LPD*%
D10*
X91732Y55502D02*
X161417D01*
X83277Y57471D02*
X164951D01*
X164961Y57480D01*
X83268Y57461D02*
X83277Y57471D01*
X147126Y52244D02*
X147244Y52126D01*
X151181D01*
X103571Y52362D02*
X144095D01*
X92562Y41353D02*
X103571Y52362D01*
X144095Y74016D02*
X170866D01*
X144331Y52126D02*
X144449Y52244D01*
X147126D01*
X98425Y4331D02*
X156299D01*
X88602Y14153D02*
X98425Y4331D01*
X83268Y14153D02*
X88602D01*
X16495Y50881D02*
X17494Y49882D01*
X14567Y53543D02*
X16495Y51615D01*
X11417Y53543D02*
X14567D01*
X17494Y49882D02*
X17717D01*
X16495Y50881D02*
Y51615D01*
X19013Y44818D02*
Y46072D01*
X19291Y46350D01*
Y46457D01*
X17717Y43819D02*
X18015D01*
X19013Y44818D01*
X11614Y48819D02*
X16282D01*
X11417D02*
X11614D01*
X13228Y44488D02*
Y47205D01*
X11614Y48819D02*
X13228Y47205D01*
X17345Y49882D02*
X17382D01*
X16282Y48819D02*
X17345Y49882D01*
X9055Y45040D02*
Y46349D01*
X5709Y53543D02*
X8465Y50787D01*
X5512Y53543D02*
X5709D01*
X9055Y45040D02*
X9606Y44488D01*
X8465Y46939D02*
X9055Y46349D01*
X8465Y46939D02*
Y50787D01*
X2598Y44744D02*
X4134Y46279D01*
Y47638D01*
X5315Y48819D01*
X2598Y44488D02*
Y44744D01*
X5315Y48819D02*
X5512D01*
X43907Y4154D02*
X44324D01*
X42126Y2362D02*
Y2372D01*
X43907Y4154D01*
X5252Y31571D02*
X5374Y31693D01*
X2437Y31571D02*
X5252D01*
X2362Y31496D02*
X2437Y31571D01*
X39764Y35591D02*
X39902D01*
X41385Y34108D01*
Y32828D02*
Y34108D01*
Y32828D02*
X41535Y32677D01*
X42649Y32773D02*
X44030Y34154D01*
X41631Y32773D02*
X42649D01*
X41535Y32677D02*
X41631Y32773D01*
X44030Y34154D02*
X46654D01*
X2545Y75183D02*
Y75289D01*
X2165Y75669D02*
X2545Y75289D01*
X2165Y80225D02*
X2362Y80422D01*
X2165Y75669D02*
Y80225D01*
X177756Y67520D02*
X180315Y70079D01*
X177559Y67520D02*
X177756D01*
X180315Y70079D02*
Y70079D01*
X92506Y41353D02*
X92562D01*
X191732Y12598D02*
Y22441D01*
X181496Y2362D02*
X191732Y12598D01*
X98532Y2362D02*
X181496D01*
X95382Y5512D02*
X98532Y2362D01*
X92913Y5512D02*
X95382D01*
X191732Y22441D02*
Y25591D01*
Y31890D02*
Y38386D01*
X89291Y82461D02*
X90020Y81732D01*
X83268Y82461D02*
X89291D01*
X90020Y81732D02*
X90157D01*
X90236Y81811D02*
X92835D01*
X92913Y81890D01*
X90157Y81732D02*
X90236Y81811D01*
X88976Y60236D02*
X158268D01*
X158799Y10965D02*
X160906Y13071D01*
X156512Y10630D02*
X156847Y10965D01*
X160906Y13071D02*
Y17815D01*
X156847Y10965D02*
X158799D01*
X156299Y10630D02*
X156512D01*
X99213Y6299D02*
X174803D01*
X178799Y10295D02*
Y15709D01*
X174803Y6299D02*
X178799Y10295D01*
Y15709D02*
X180905Y17815D01*
X168799Y9744D02*
Y15709D01*
X170905Y17815D01*
X167323Y8268D02*
X168799Y9744D01*
X100394Y8268D02*
X167323D01*
X150906Y37303D02*
X151181Y37579D01*
Y48661D01*
X148563Y24665D02*
X148799D01*
X147224Y26004D02*
X148563Y24665D01*
X147224Y26004D02*
Y48642D01*
X148799Y19921D02*
Y24665D01*
Y19921D02*
X150906Y17815D01*
X147224Y48642D02*
X147244Y48661D01*
X86358Y19153D02*
X99213Y6299D01*
X83268Y19153D02*
X86358D01*
X85597Y24153D02*
X89764Y19987D01*
Y18898D02*
X100394Y8268D01*
X89764Y18898D02*
Y19987D01*
X92795Y5630D02*
X92913Y5512D01*
X90158Y5748D02*
X90276Y5630D01*
X92795D01*
X83268Y9154D02*
X83297Y9183D01*
X90128D01*
X90158Y9213D01*
X83268Y24153D02*
X85597D01*
X90276Y48150D02*
X92402D01*
X90158Y48268D02*
X90276Y48150D01*
X92402D02*
X92520Y48031D01*
X90709Y40866D02*
X91806D01*
X92293Y41353D01*
X90158Y40315D02*
X90709Y40866D01*
X92293Y41353D02*
X92506D01*
X90020Y40315D02*
X90158D01*
X83268Y39154D02*
X88858D01*
X90020Y40315D01*
X88976Y31890D02*
Y35039D01*
X83268Y29153D02*
X86240D01*
X88976Y31890D01*
X101575Y47638D02*
X133071D01*
X88976Y35039D02*
X101575Y47638D01*
X136221Y27244D02*
Y44488D01*
Y27244D02*
X140905Y22559D01*
Y17815D02*
Y22559D01*
X133071Y47638D02*
X136221Y44488D01*
X83277Y72451D02*
X140935D01*
X140945Y72441D01*
X83268Y72461D02*
X83277Y72451D01*
X83337Y67392D02*
X164498D01*
X83268Y67461D02*
X83337Y67392D01*
X164498D02*
X164567Y67323D01*
X83268Y62461D02*
X83337Y62529D01*
X167254D01*
X167323Y62598D01*
X89902Y51732D02*
X90158D01*
X83268Y52461D02*
X89173D01*
X89902Y51732D01*
X177559Y62402D02*
X177953Y62008D01*
Y56791D02*
Y62008D01*
X175984Y71653D02*
Y72835D01*
X177165Y74016D01*
X171653Y67520D02*
X171850D01*
X175984Y71653D01*
X171653Y62402D02*
X171850D01*
X174016Y48720D02*
Y60236D01*
X171850Y62402D02*
X174016Y60236D01*
X2913Y81890D02*
Y82028D01*
X5039Y84154D01*
X8793D01*
X10664Y82284D01*
X15354D01*
X33071Y69193D02*
Y71653D01*
Y69193D02*
X33661Y68602D01*
X18110Y59449D02*
X20472Y61811D01*
X33791Y46063D02*
X34646Y46918D01*
X32677Y46063D02*
X33791D01*
X34646Y46918D02*
Y49606D01*
X31890Y45276D02*
X32677Y46063D01*
X14882Y65827D02*
X18976D01*
X14567Y65512D02*
X14882Y65827D01*
X18976D02*
X19291Y66142D01*
X29331Y42323D02*
X36220D01*
X37402Y43504D02*
Y46693D01*
X36220Y42323D02*
X37402Y43504D01*
X36220Y42323D02*
X39460D01*
X39657Y42126D01*
X27756Y43898D02*
X29331Y42323D01*
X39657Y42126D02*
X39764D01*
X39094Y48642D02*
X39508Y49055D01*
X37402Y46693D02*
Y79114D01*
X39508Y49055D02*
X39764D01*
X39094Y48386D02*
Y48642D01*
X37402Y46693D02*
X39094Y48386D01*
X37402Y79114D02*
X40020Y81732D01*
X40158D01*
X43701Y77762D02*
X46352D01*
X40506D02*
X43701D01*
Y77420D02*
Y77762D01*
X42068Y75787D02*
X43701Y77420D01*
X41961Y75787D02*
X42068D01*
X32283Y49606D02*
X34646D01*
X31890Y49213D02*
X32283Y49606D01*
X2362Y80422D02*
Y81339D01*
X2913Y81890D01*
X6535Y81752D02*
X7874Y80414D01*
Y77362D02*
Y80414D01*
X10236Y74410D02*
X11811Y75984D01*
X6890Y72047D02*
X9252Y74410D01*
X10236D01*
X9843Y76681D02*
X10024Y76499D01*
X11189D01*
X11705Y75984D01*
X9843Y76681D02*
Y77362D01*
X11705Y75984D02*
X11811D01*
X39764Y42126D02*
X39764Y42126D01*
Y39213D02*
X39764Y39213D01*
X39764Y39213D02*
Y42126D01*
X40532Y21831D02*
X40551Y21850D01*
X14961Y79134D02*
X29921D01*
X11860D02*
X14961D01*
X14567Y78740D02*
X14961Y79134D01*
X14567Y65512D02*
Y78740D01*
X33425Y81732D02*
X40020D01*
X38658Y83094D02*
X40020Y81732D01*
X38658Y83094D02*
Y83389D01*
X38583Y83465D02*
X38658Y83389D01*
X6535Y81890D02*
X9104D01*
X6535Y81752D02*
Y81890D01*
X3937Y77362D02*
X4012Y77438D01*
Y79229D01*
X6535Y81752D01*
X9104Y81890D02*
X11860Y79134D01*
X29921D02*
X32874Y82087D01*
Y82284D01*
X26378Y44882D02*
X27362Y43898D01*
X26378Y44882D02*
Y45276D01*
X27362Y43898D02*
X27756D01*
X25492Y46161D02*
X26378Y45276D01*
X42217Y45489D02*
X44189Y47461D01*
X46654D01*
X42217Y45276D02*
Y45489D01*
X29724Y12008D02*
X36358D01*
X20866Y20866D02*
X29724Y12008D01*
X15945Y25787D02*
X20866Y20866D01*
X15945Y25787D02*
Y36358D01*
X11811Y2362D02*
X11909Y2461D01*
Y5276D02*
X12008Y5374D01*
X11909Y2461D02*
Y5276D01*
X21752Y2461D02*
Y5276D01*
X21850Y5374D01*
X21654Y2362D02*
X21752Y2461D01*
X31496Y2362D02*
X31594Y2461D01*
Y5276D02*
X31693Y5374D01*
X31594Y2461D02*
Y5276D01*
X42815Y6063D02*
X43596Y5281D01*
X44324Y4154D02*
X46654D01*
X40551Y6063D02*
X42815D01*
X43596Y4881D02*
Y5281D01*
Y4881D02*
X44324Y4154D01*
X40158Y78110D02*
X40506Y77762D01*
X46352D02*
X46654Y77461D01*
X39794Y39183D02*
X46624D01*
X46654Y39154D01*
X34101Y56542D02*
X34889D01*
X31890Y54724D02*
X32283D01*
X34101Y56542D01*
X34889D02*
X35039Y56693D01*
X31890Y57284D02*
X33215Y58609D01*
X33298D01*
X31890Y54724D02*
Y57284D01*
X33298Y58609D02*
X34449Y59760D01*
Y59941D01*
X27953Y56299D02*
X29921D01*
X26052D02*
X27953D01*
Y55315D02*
Y56299D01*
X27992Y55276D02*
X28051D01*
X27953Y55315D02*
X27992Y55276D01*
X29921Y56299D02*
X31496Y54724D01*
X31890D01*
X25591Y55315D02*
Y55838D01*
X26052Y56299D01*
X25551Y55276D02*
X25591Y55315D01*
X25492Y55276D02*
X25551D01*
X28091Y50984D02*
X29724D01*
X31496Y49213D01*
X31890D01*
X28051Y51024D02*
X28091Y50984D01*
X25492Y46161D02*
Y51024D01*
X40551Y21850D02*
Y23622D01*
X40532Y21831D02*
X40551Y21811D01*
X36378Y21831D02*
X40532D01*
X36358Y21850D02*
X36378Y21831D01*
X40551Y9685D02*
Y11811D01*
X40551Y9685D02*
X40551Y9685D01*
Y11811D02*
X40551Y11811D01*
X40334Y9902D02*
X40551Y9685D01*
X36358Y10039D02*
X36496Y9902D01*
X40334D01*
X37462Y6058D02*
X37795Y5725D01*
Y5512D02*
Y5725D01*
X36358Y8071D02*
X37325D01*
X37462Y7933D01*
Y6058D02*
Y7933D01*
X31693Y36358D02*
X31824Y36490D01*
Y39232D01*
X31956Y39363D01*
X42743Y81732D02*
X43472Y82461D01*
X40158Y81732D02*
X42743D01*
X43472Y82461D02*
X46654D01*
X32874Y82284D02*
X33425Y81732D01*
X21654Y82284D02*
X27756D01*
D11*
X8563Y41732D02*
X14471D01*
X6063Y44232D02*
Y44488D01*
Y44232D02*
X8563Y41732D01*
X15259Y40945D02*
X15354D01*
X14471Y41732D02*
X15259Y40945D01*
X12008Y36358D02*
Y38622D01*
X11411Y39219D02*
X12008Y38622D01*
X11024Y39370D02*
X11174Y39219D01*
X11411D01*
X9705Y36693D02*
Y38507D01*
X9055Y39157D02*
Y39370D01*
Y39157D02*
X9705Y38507D01*
X29390Y36693D02*
Y38218D01*
Y36693D02*
X29724Y36358D01*
X26270Y41339D02*
X29390Y38218D01*
X23228Y41339D02*
X26270D01*
X20433Y38733D02*
Y44055D01*
X20335Y38635D02*
X20433Y38733D01*
X20335Y38124D02*
Y38635D01*
X21614Y36595D02*
X21850Y36358D01*
X20216Y38006D02*
X20335Y38124D01*
X21614Y36595D02*
Y43566D01*
X22837Y44788D02*
Y59874D01*
X21655Y45278D02*
Y60694D01*
X21614Y43566D02*
X22837Y44788D01*
X20433Y44055D02*
X21655Y45278D01*
X49213Y16929D02*
Y18244D01*
Y21713D02*
Y23244D01*
Y26772D02*
Y28244D01*
X39157Y32677D02*
X39370D01*
X36358Y33661D02*
X36693Y33327D01*
X38507D02*
X39157Y32677D01*
X36693Y33327D02*
X38507D01*
X36358Y31693D02*
X36693Y31358D01*
X38218D02*
X39391Y30185D01*
X36693Y31358D02*
X38218D01*
X39391Y27162D02*
Y30185D01*
X41348Y72451D02*
X46644D01*
X41339Y72441D02*
X41348Y72451D01*
X46644D02*
X46654Y72461D01*
X46585Y67392D02*
X46654Y67461D01*
X41407Y67392D02*
X46585D01*
X41339Y67323D02*
X41407Y67392D01*
X41339Y62598D02*
X41407Y62529D01*
X46585D02*
X46654Y62461D01*
X41407Y62529D02*
X46585D01*
X43057Y56087D02*
X44430Y57461D01*
X46654D01*
X43057Y55252D02*
Y56087D01*
X42906Y55101D02*
X43057Y55252D01*
X5692Y38189D02*
X5906D01*
X3937Y36519D02*
X5315Y37897D01*
X5400D02*
X5692Y38189D01*
X5315Y37897D02*
X5400D01*
X3937Y33996D02*
Y36519D01*
X4272Y33661D02*
X5374D01*
X3937Y33996D02*
X4272Y33661D01*
X6788Y36358D02*
X8071D01*
X6001Y35571D02*
X6788Y36358D01*
X5906Y35571D02*
X6001D01*
X23067Y60105D02*
X23081D01*
X23409Y60433D02*
X26476D01*
X23081Y60105D02*
X23409Y60433D01*
X22970Y62008D02*
X23015D01*
X21655Y60694D02*
X22970Y62008D01*
X22837Y59874D02*
X23067Y60105D01*
X33661Y36358D02*
X36420D01*
X37208Y35571D02*
X37303D01*
X36420Y36358D02*
X37208Y35571D01*
X2362Y13780D02*
X2461Y13878D01*
X5276D01*
X5374Y13976D01*
X2461Y15846D02*
X5276D01*
X2362Y15748D02*
X2461Y15846D01*
X5276D02*
X5374Y15945D01*
X2362Y17717D02*
X2461Y17815D01*
X5276D01*
X5374Y17913D01*
X2362Y20079D02*
X2461Y19980D01*
X5276D02*
X5374Y19882D01*
X2461Y19980D02*
X5276D01*
X23819Y36358D02*
Y38622D01*
X23228Y39213D02*
X23819Y38622D01*
X23228Y39213D02*
Y39370D01*
X9705Y36693D02*
X10039Y36358D01*
X23622Y62402D02*
X26969Y65748D01*
X26476Y60433D02*
X26969Y59941D01*
Y65748D02*
Y68602D01*
X19882Y36358D02*
X20216Y36693D01*
Y38006D01*
X23409Y62402D02*
X23622D01*
X23015Y62008D02*
X23409Y62402D01*
X33760Y2461D02*
X33858Y2362D01*
X33661Y5374D02*
X33760Y5276D01*
Y2461D02*
Y5276D01*
X48303Y29153D02*
X49213Y28244D01*
X46654Y29153D02*
X48303D01*
Y24153D02*
X49213Y23244D01*
X46654Y24153D02*
X48303D01*
X46654Y19153D02*
X48303D01*
X49213Y18244D01*
X40237Y14746D02*
X43315Y11668D01*
X44430Y9154D02*
X46654D01*
X40237Y18032D02*
X40551Y18347D01*
X40237Y14746D02*
Y18032D01*
X43315Y10269D02*
X44430Y9154D01*
X43315Y10269D02*
Y11668D01*
X42264Y15748D02*
X43858Y14153D01*
X46654D01*
X42224Y15748D02*
X42264D01*
X16181Y3127D02*
X16679Y2629D01*
X15945Y5374D02*
X16181Y5138D01*
Y3127D02*
Y5138D01*
X16679Y2362D02*
Y2629D01*
X14147Y2533D02*
X14317Y2362D01*
X13976Y5374D02*
X14147Y5204D01*
Y2533D02*
Y5204D01*
X36358Y13976D02*
X38751D01*
X39342Y13386D01*
X39370D01*
X13780Y39210D02*
X13976Y39013D01*
X13780Y39210D02*
Y39370D01*
X13976Y36358D02*
Y39013D01*
D15*
X25591Y39370D02*
X25689Y39272D01*
Y36457D02*
Y39272D01*
X7795Y59921D02*
X7874Y59842D01*
X7795Y59921D02*
Y62126D01*
X25689Y36457D02*
X25787Y36358D01*
X2876Y22087D02*
X5138D01*
X2362Y22441D02*
X2522D01*
X2876Y22087D01*
X5138D02*
X5374Y21850D01*
X7717Y62205D02*
X7795Y62126D01*
X3937Y66732D02*
X3937Y66732D01*
Y64173D02*
Y66732D01*
Y64173D02*
X3937Y64173D01*
X5906D02*
Y66732D01*
X5906Y66732D02*
X5906Y66732D01*
X11260Y62126D02*
X14488D01*
X14567Y62047D01*
X11181Y62205D02*
X11260Y62126D01*
X9843Y63799D02*
X11181Y62461D01*
Y62205D02*
Y62461D01*
X9843Y63799D02*
Y66732D01*
X7717Y62205D02*
X7795Y62283D01*
Y66654D02*
X7874Y66732D01*
X7795Y62283D02*
Y66654D01*
X17717Y39210D02*
X17913Y39013D01*
X17717Y39210D02*
Y39370D01*
X17913Y36358D02*
Y39013D01*
X39793Y52490D02*
X46624D01*
X39764Y52520D02*
X39793Y52490D01*
X46624D02*
X46654Y52461D01*
D16*
X169587Y55512D02*
X170079Y56004D01*
X167323Y55512D02*
X169587D01*
X170079Y56004D02*
Y56791D01*
X89545Y78522D02*
X89608D01*
X87799Y80268D02*
X89545Y78522D01*
X90020Y78110D02*
X90157D01*
X89608Y78522D02*
X90020Y78110D01*
X87693Y80268D02*
X87799D01*
X89390Y44094D02*
X92520D01*
X126878Y11024D02*
X127016Y11161D01*
X126772Y11024D02*
X126878D01*
X128996Y11161D02*
X130905Y13071D01*
X127016Y11161D02*
X128996D01*
X130905Y13071D02*
Y17815D01*
X126485Y44094D02*
X126622Y43957D01*
X130905Y37303D02*
Y42047D01*
X128996Y43957D02*
X130905Y42047D01*
X126622Y43957D02*
X128996D01*
X126378Y44094D02*
X126485D01*
X191732Y43504D02*
Y46850D01*
X85704Y77461D02*
X86250Y78006D01*
Y78718D01*
X87693Y80161D01*
Y80268D01*
X83268Y77461D02*
X85704D01*
X86343Y4154D02*
X87665Y2831D01*
X88114D02*
X88189Y2756D01*
X83268Y4154D02*
X86343D01*
X87665Y2831D02*
X88114D01*
X83268Y47461D02*
X86024D01*
X89390Y44094D01*
X90240Y44019D02*
X92444D01*
X92520Y44094D01*
X90158Y43937D02*
X90240Y44019D01*
X87326Y35776D02*
Y36539D01*
X87402Y36614D01*
X83268Y34154D02*
X85704D01*
X87326Y35776D01*
D18*
X11417Y48819D02*
D03*
X5512D02*
D03*
Y53543D02*
D03*
X11417D02*
D03*
D19*
X39764Y39213D02*
D03*
Y35591D02*
D03*
X90158Y43937D02*
D03*
Y40315D02*
D03*
X40158Y81732D02*
D03*
Y78110D02*
D03*
X90157Y81732D02*
D03*
Y78110D02*
D03*
X40551Y9685D02*
D03*
Y6063D02*
D03*
D20*
X40551Y18347D02*
D03*
Y21811D02*
D03*
X90158Y5748D02*
D03*
Y9213D02*
D03*
X151181Y52126D02*
D03*
Y48661D02*
D03*
X147244D02*
D03*
Y52126D02*
D03*
X90158Y51732D02*
D03*
Y48268D02*
D03*
X39764Y49055D02*
D03*
Y52520D02*
D03*
X14567Y65512D02*
D03*
Y62047D02*
D03*
D21*
X46654Y39154D02*
D03*
Y34154D02*
D03*
Y29153D02*
D03*
Y24153D02*
D03*
Y19153D02*
D03*
Y14153D02*
D03*
Y9154D02*
D03*
Y4154D02*
D03*
X83268Y39154D02*
D03*
Y34154D02*
D03*
Y29153D02*
D03*
Y24153D02*
D03*
Y19153D02*
D03*
Y14153D02*
D03*
Y9154D02*
D03*
Y4154D02*
D03*
Y47461D02*
D03*
Y52461D02*
D03*
Y57461D02*
D03*
Y62461D02*
D03*
Y67461D02*
D03*
Y72461D02*
D03*
Y77461D02*
D03*
Y82461D02*
D03*
X46654Y47461D02*
D03*
Y52461D02*
D03*
Y57461D02*
D03*
Y62461D02*
D03*
Y67461D02*
D03*
Y72461D02*
D03*
Y77461D02*
D03*
Y82461D02*
D03*
D22*
X33661Y36358D02*
D03*
X31693D02*
D03*
X29724D02*
D03*
X27756D02*
D03*
X25787D02*
D03*
X23819D02*
D03*
X21850D02*
D03*
X19882D02*
D03*
X17913D02*
D03*
X15945D02*
D03*
X13976D02*
D03*
X12008D02*
D03*
X10039D02*
D03*
X8071D02*
D03*
Y5374D02*
D03*
X10039D02*
D03*
X12008D02*
D03*
X13976D02*
D03*
X15945D02*
D03*
X17913D02*
D03*
X19882D02*
D03*
X21850D02*
D03*
X23819D02*
D03*
X25787D02*
D03*
X27756D02*
D03*
X29724D02*
D03*
X31693D02*
D03*
X33661D02*
D03*
D23*
X5374Y33661D02*
D03*
Y31693D02*
D03*
Y29724D02*
D03*
Y27756D02*
D03*
Y25787D02*
D03*
Y23819D02*
D03*
Y21850D02*
D03*
Y19882D02*
D03*
Y17913D02*
D03*
Y15945D02*
D03*
Y13976D02*
D03*
Y12008D02*
D03*
Y10039D02*
D03*
Y8071D02*
D03*
X36358D02*
D03*
Y10039D02*
D03*
Y12008D02*
D03*
Y13976D02*
D03*
Y15945D02*
D03*
Y17913D02*
D03*
Y19882D02*
D03*
Y21850D02*
D03*
Y23819D02*
D03*
Y25787D02*
D03*
Y27756D02*
D03*
Y29724D02*
D03*
Y31693D02*
D03*
Y33661D02*
D03*
D24*
X21654Y82284D02*
D03*
X15354D02*
D03*
X177165Y74016D02*
D03*
X170866D02*
D03*
D25*
X180905Y37303D02*
D03*
Y17815D02*
D03*
X170905Y37303D02*
D03*
Y17815D02*
D03*
X160906Y37303D02*
D03*
Y17815D02*
D03*
X150906Y37303D02*
D03*
Y17815D02*
D03*
X140905Y37303D02*
D03*
Y17815D02*
D03*
X130905Y37303D02*
D03*
Y17815D02*
D03*
D26*
X3937Y66732D02*
D03*
X5906D02*
D03*
X7874D02*
D03*
X9843D02*
D03*
X3937Y77362D02*
D03*
X5906D02*
D03*
X7874D02*
D03*
X9843D02*
D03*
D27*
X6890Y72047D02*
D03*
D28*
X28051Y51024D02*
D03*
X25492D02*
D03*
Y55276D02*
D03*
X28051D02*
D03*
D29*
X26772Y53150D02*
D03*
D30*
X34449Y59941D02*
D03*
X26969D02*
D03*
Y68602D02*
D03*
D31*
X33661D02*
D03*
D32*
X27756Y82284D02*
D03*
X32874D02*
D03*
D33*
X191732Y43504D02*
D03*
Y38386D02*
D03*
X171653Y62402D02*
D03*
Y67520D02*
D03*
X177559Y62402D02*
D03*
Y67520D02*
D03*
D34*
X2598Y44488D02*
D03*
X6063D02*
D03*
X7717Y62205D02*
D03*
X11181D02*
D03*
D35*
X174016Y48720D02*
D03*
X170079Y56791D02*
D03*
X177953D02*
D03*
D36*
X26378Y45276D02*
D03*
X31890D02*
D03*
D37*
Y54724D02*
D03*
Y49213D02*
D03*
D38*
X191732Y31890D02*
D03*
Y25591D02*
D03*
D39*
X17717Y49882D02*
D03*
Y43819D02*
D03*
D40*
X13228Y44488D02*
D03*
X9606D02*
D03*
X6535Y81890D02*
D03*
X2913D02*
D03*
D41*
X19291Y66142D02*
D03*
X18110Y59449D02*
D03*
D42*
X20866Y20866D02*
D03*
D44*
X105905Y27559D02*
D03*
D45*
X161417Y55502D02*
D03*
X91732D02*
D03*
X164961Y57480D02*
D03*
X144095Y74016D02*
D03*
Y52362D02*
D03*
X158661Y51968D02*
D03*
X42126Y2362D02*
D03*
X41535Y32677D02*
D03*
X167323Y55512D02*
D03*
X126772Y11024D02*
D03*
X126378Y44094D02*
D03*
X180315Y70079D02*
D03*
X191732Y22441D02*
D03*
Y46850D02*
D03*
X87693Y80268D02*
D03*
X92913Y81890D02*
D03*
X158268Y60236D02*
D03*
X88976D02*
D03*
X156299Y10630D02*
D03*
Y4331D02*
D03*
X88189Y2756D02*
D03*
X92913Y5512D02*
D03*
X92520Y48031D02*
D03*
Y44094D02*
D03*
X92506Y41353D02*
D03*
X87402Y36614D02*
D03*
X140945Y72441D02*
D03*
X164567Y67323D02*
D03*
X167323Y62598D02*
D03*
X22047Y30709D02*
D03*
X39764Y42126D02*
D03*
X30315Y10630D02*
D03*
X13386Y30709D02*
D03*
X35039Y56693D02*
D03*
X37795Y5512D02*
D03*
X33858Y2362D02*
D03*
X21654D02*
D03*
X14317D02*
D03*
X16679Y2362D02*
D03*
X11811Y2362D02*
D03*
X31956Y39363D02*
D03*
X42217Y45276D02*
D03*
X41803Y84252D02*
D03*
X31496Y2362D02*
D03*
X21654Y10630D02*
D03*
X11811D02*
D03*
X29528Y21654D02*
D03*
X30709Y30315D02*
D03*
X10236Y27559D02*
D03*
D46*
X11024Y39370D02*
D03*
X9055D02*
D03*
X25591D02*
D03*
X23228Y41339D02*
D03*
X2362Y31496D02*
D03*
X7874Y59842D02*
D03*
X49213Y16929D02*
D03*
Y21713D02*
D03*
Y26772D02*
D03*
X39370Y32677D02*
D03*
X39391Y27162D02*
D03*
X2545Y75183D02*
D03*
X35433Y53543D02*
D03*
X41339Y72441D02*
D03*
Y67323D02*
D03*
Y62598D02*
D03*
X42906Y55101D02*
D03*
X5906Y38189D02*
D03*
Y35571D02*
D03*
X43169Y59914D02*
D03*
X33071Y71653D02*
D03*
X20472Y61811D02*
D03*
X41961Y75787D02*
D03*
X19291Y46457D02*
D03*
X34646Y49606D02*
D03*
X2341Y28350D02*
D03*
X37303Y35571D02*
D03*
X4724Y57087D02*
D03*
X2341Y26381D02*
D03*
X2341Y24409D02*
D03*
X2362Y13780D02*
D03*
Y15748D02*
D03*
Y17717D02*
D03*
Y20079D02*
D03*
Y22441D02*
D03*
X38583Y83465D02*
D03*
X11811Y75984D02*
D03*
X23228Y39370D02*
D03*
X15354Y40945D02*
D03*
X23622Y62402D02*
D03*
Y60433D02*
D03*
X42224Y15748D02*
D03*
X50100Y64925D02*
D03*
X50197Y69895D02*
D03*
X50152Y74910D02*
D03*
X3937Y64173D02*
D03*
X5906D02*
D03*
X26772Y53150D02*
D03*
X40551Y23622D02*
D03*
X13780Y39370D02*
D03*
X17717D02*
D03*
X39370Y13386D02*
D03*
X40551Y11811D02*
D03*
D47*
X188189Y66929D02*
D03*
Y76929D02*
D03*
Y56929D02*
D03*
M02*
