G04*
G04 #@! TF.GenerationSoftware,Altium Limited,Altium Designer,24.0.1 (36)*
G04*
G04 Layer_Physical_Order=2*
G04 Layer_Color=36540*
%FSLAX25Y25*%
%MOIN*%
G70*
G04*
G04 #@! TF.SameCoordinates,293640EE-8F9E-4A3F-9B7E-3BA848117B77*
G04*
G04*
G04 #@! TF.FilePolarity,Positive*
G04*
G01*
G75*
%ADD44C,0.31496*%
%ADD45C,0.01575*%
%ADD46C,0.01181*%
%ADD47C,0.06000*%
G36*
X37917Y85009D02*
X38017Y84509D01*
X37914Y84466D01*
X37581Y84134D01*
X37402Y83700D01*
Y83230D01*
X37581Y82796D01*
X37914Y82463D01*
X38348Y82284D01*
X38818D01*
X39252Y82463D01*
X39584Y82796D01*
X39764Y83230D01*
Y83700D01*
X39584Y84134D01*
X39252Y84466D01*
X39149Y84509D01*
X39248Y85009D01*
X51149D01*
Y76236D01*
X50649Y75982D01*
X50387Y76091D01*
X49917D01*
X49483Y75911D01*
X49150Y75579D01*
X48970Y75145D01*
Y74675D01*
X49150Y74241D01*
X49483Y73908D01*
X49917Y73729D01*
X50387D01*
X50649Y73837D01*
X51149Y73583D01*
Y71267D01*
X50649Y70987D01*
X50432Y71077D01*
X49962D01*
X49528Y70897D01*
X49196Y70565D01*
X49016Y70130D01*
Y69661D01*
X49196Y69226D01*
X49528Y68894D01*
X49962Y68714D01*
X50432D01*
X50649Y68804D01*
X51149Y68524D01*
Y66254D01*
X51019Y66142D01*
X50649Y65976D01*
X50335Y66106D01*
X49865D01*
X49431Y65926D01*
X49099Y65594D01*
X48919Y65160D01*
Y64690D01*
X49099Y64256D01*
X49431Y63923D01*
X49865Y63744D01*
X50335D01*
X50649Y63873D01*
X51019Y63707D01*
X51149Y63596D01*
Y1606D01*
X35486D01*
X35248Y1962D01*
X35236Y2106D01*
Y2636D01*
X35026Y3143D01*
X34639Y3530D01*
X34132Y3740D01*
X33584D01*
X33078Y3530D01*
X32690Y3143D01*
X32480Y2636D01*
Y2088D01*
X32508Y2021D01*
X32230Y1606D01*
X23282D01*
X23044Y1962D01*
X23031Y2106D01*
Y2636D01*
X22822Y3143D01*
X22434Y3530D01*
X21928Y3740D01*
X21379D01*
X20873Y3530D01*
X20485Y3143D01*
X20276Y2636D01*
Y2088D01*
X20303Y2021D01*
X20026Y1606D01*
X18307D01*
X18069Y1962D01*
X18057Y2106D01*
Y2636D01*
X17848Y3143D01*
X17460Y3530D01*
X16953Y3740D01*
X16405D01*
X15899Y3530D01*
X15825Y3456D01*
X15498Y3155D01*
X15172Y3456D01*
X15098Y3530D01*
X14591Y3740D01*
X14043D01*
X13536Y3530D01*
X13391Y3384D01*
X13064Y3193D01*
X12737Y3384D01*
X12592Y3530D01*
X12085Y3740D01*
X11537D01*
X11030Y3530D01*
X10643Y3143D01*
X10433Y2636D01*
Y2088D01*
X10461Y2021D01*
X10183Y1606D01*
X3707D01*
X3257Y1695D01*
X2833Y1871D01*
X2451Y2126D01*
X2126Y2451D01*
X1871Y2833D01*
X1695Y3257D01*
X1606Y3707D01*
X1606Y3937D01*
Y12273D01*
X2106Y12607D01*
X2127Y12598D01*
X2597D01*
X3031Y12778D01*
X3364Y13111D01*
X3543Y13545D01*
Y14015D01*
X3364Y14449D01*
X3048Y14764D01*
X3364Y15079D01*
X3543Y15513D01*
Y15983D01*
X3364Y16417D01*
X3048Y16732D01*
X3364Y17048D01*
X3543Y17482D01*
Y17952D01*
X3364Y18386D01*
X3160Y18589D01*
X3078Y18898D01*
X3160Y19206D01*
X3364Y19410D01*
X3543Y19844D01*
Y20314D01*
X3364Y20748D01*
X3031Y21080D01*
X2597Y21260D01*
X2127D01*
X2106Y21251D01*
X1606Y21585D01*
Y22894D01*
X2106Y23228D01*
X2106Y23228D01*
X2575D01*
X3010Y23408D01*
X3342Y23740D01*
X3522Y24174D01*
Y24644D01*
X3342Y25078D01*
X3025Y25395D01*
X3342Y25712D01*
X3522Y26146D01*
Y26616D01*
X3342Y27050D01*
X3027Y27365D01*
X3342Y27681D01*
X3522Y28115D01*
Y28585D01*
X3342Y29019D01*
X3010Y29351D01*
X2576Y29531D01*
X2106D01*
X1988Y29908D01*
X2426Y30315D01*
X2597D01*
X3031Y30495D01*
X3364Y30827D01*
X3543Y31261D01*
Y31731D01*
X3364Y32165D01*
X3031Y32497D01*
X2597Y32677D01*
X2127D01*
X2106Y32668D01*
X1606Y33002D01*
Y82677D01*
Y82907D01*
X1695Y83357D01*
X1871Y83781D01*
X2126Y84163D01*
X2451Y84488D01*
X2833Y84743D01*
X3257Y84919D01*
X3707Y85009D01*
X3937Y85009D01*
X37917Y85009D01*
D02*
G37*
G36*
X192913Y85009D02*
X193143D01*
X193593Y84919D01*
X194018Y84743D01*
X194399Y84488D01*
X194724Y84163D01*
X194979Y83781D01*
X195155Y83357D01*
X195245Y82907D01*
X195245Y82677D01*
X195245Y3937D01*
Y3707D01*
X195155Y3257D01*
X194979Y2833D01*
X194724Y2451D01*
X194399Y2126D01*
X194018Y1871D01*
X193593Y1695D01*
X193143Y1606D01*
X192913D01*
X78773Y1606D01*
Y85009D01*
X192913Y85009D01*
D02*
G37*
%LPC*%
G36*
X41574Y73622D02*
X41104D01*
X40670Y73442D01*
X40337Y73110D01*
X40157Y72676D01*
Y72206D01*
X40337Y71772D01*
X40670Y71440D01*
X41104Y71260D01*
X41574D01*
X42008Y71440D01*
X42340Y71772D01*
X42520Y72206D01*
Y72676D01*
X42340Y73110D01*
X42008Y73442D01*
X41574Y73622D01*
D02*
G37*
G36*
X19092Y74606D02*
X18314D01*
X17563Y74405D01*
X16890Y74016D01*
X16340Y73467D01*
X15951Y72793D01*
X15750Y72042D01*
Y71265D01*
X15951Y70514D01*
X16340Y69841D01*
X16890Y69291D01*
X17563Y68902D01*
X18314Y68701D01*
X19092D01*
X19842Y68902D01*
X20516Y69291D01*
X21066Y69841D01*
X21454Y70514D01*
X21655Y71265D01*
Y72042D01*
X21454Y72793D01*
X21066Y73467D01*
X20516Y74016D01*
X19842Y74405D01*
X19092Y74606D01*
D02*
G37*
G36*
X41574Y68504D02*
X41104D01*
X40670Y68324D01*
X40337Y67992D01*
X40157Y67558D01*
Y67088D01*
X40337Y66654D01*
X40670Y66321D01*
X41104Y66142D01*
X41574D01*
X42008Y66321D01*
X42340Y66654D01*
X42520Y67088D01*
Y67558D01*
X42340Y67992D01*
X42008Y68324D01*
X41574Y68504D01*
D02*
G37*
G36*
X6140Y65354D02*
X5671D01*
X5237Y65175D01*
X4921Y64859D01*
X4606Y65175D01*
X4172Y65354D01*
X3702D01*
X3268Y65175D01*
X2936Y64842D01*
X2756Y64408D01*
Y63938D01*
X2936Y63504D01*
X3268Y63172D01*
X3702Y62992D01*
X4172D01*
X4606Y63172D01*
X4921Y63487D01*
X5237Y63172D01*
X5671Y62992D01*
X6140D01*
X6575Y63172D01*
X6907Y63504D01*
X7087Y63938D01*
Y64408D01*
X6907Y64842D01*
X6575Y65175D01*
X6140Y65354D01*
D02*
G37*
G36*
X41574Y63779D02*
X41104D01*
X40670Y63600D01*
X40337Y63267D01*
X40157Y62833D01*
Y62363D01*
X40337Y61929D01*
X40670Y61597D01*
X41104Y61417D01*
X41574D01*
X42008Y61597D01*
X42340Y61929D01*
X42520Y62363D01*
Y62833D01*
X42340Y63267D01*
X42008Y63600D01*
X41574Y63779D01*
D02*
G37*
G36*
X23857Y63583D02*
X23387D01*
X22953Y63403D01*
X22621Y63071D01*
X22441Y62637D01*
Y62167D01*
X22621Y61733D01*
X22936Y61417D01*
X22621Y61102D01*
X22441Y60668D01*
Y60198D01*
X22621Y59764D01*
X22953Y59432D01*
X23387Y59252D01*
X23857D01*
X24291Y59432D01*
X24623Y59764D01*
X24803Y60198D01*
Y60668D01*
X24623Y61102D01*
X24308Y61417D01*
X24623Y61733D01*
X24803Y62167D01*
Y62637D01*
X24623Y63071D01*
X24291Y63403D01*
X23857Y63583D01*
D02*
G37*
G36*
X43404Y61095D02*
X42934D01*
X42500Y60915D01*
X42168Y60583D01*
X41988Y60149D01*
Y59679D01*
X42168Y59245D01*
X42500Y58912D01*
X42934Y58733D01*
X43404D01*
X43838Y58912D01*
X44170Y59245D01*
X44350Y59679D01*
Y60149D01*
X44170Y60583D01*
X43838Y60915D01*
X43404Y61095D01*
D02*
G37*
G36*
X8109Y61024D02*
X7639D01*
X7205Y60844D01*
X6873Y60512D01*
X6693Y60078D01*
Y59608D01*
X6873Y59174D01*
X7205Y58841D01*
X7639Y58661D01*
X8109D01*
X8543Y58841D01*
X8875Y59174D01*
X9055Y59608D01*
Y60078D01*
X8875Y60512D01*
X8543Y60844D01*
X8109Y61024D01*
D02*
G37*
G36*
X35313Y58071D02*
X34765D01*
X34259Y57861D01*
X33871Y57473D01*
X33661Y56967D01*
Y56419D01*
X33871Y55912D01*
X34259Y55525D01*
X34765Y55315D01*
X35313D01*
X35820Y55525D01*
X36208Y55912D01*
X36417Y56419D01*
Y56967D01*
X36208Y57473D01*
X35820Y57861D01*
X35313Y58071D01*
D02*
G37*
G36*
X43141Y56283D02*
X42671D01*
X42237Y56103D01*
X41905Y55770D01*
X41725Y55336D01*
Y54866D01*
X41905Y54432D01*
X42237Y54100D01*
X42671Y53920D01*
X43141D01*
X43575Y54100D01*
X43908Y54432D01*
X44087Y54866D01*
Y55336D01*
X43908Y55770D01*
X43575Y56103D01*
X43141Y56283D01*
D02*
G37*
G36*
X19092Y57284D02*
X18314D01*
X17563Y57082D01*
X16890Y56694D01*
X16340Y56144D01*
X15951Y55470D01*
X15750Y54719D01*
Y53942D01*
X15951Y53191D01*
X16340Y52518D01*
X16890Y51968D01*
X17563Y51579D01*
X18314Y51378D01*
X19092D01*
X19842Y51579D01*
X20516Y51968D01*
X21066Y52518D01*
X21454Y53191D01*
X21655Y53942D01*
Y54719D01*
X21454Y55470D01*
X21066Y56144D01*
X20516Y56694D01*
X19842Y57082D01*
X19092Y57284D01*
D02*
G37*
G36*
X19526Y47638D02*
X19056D01*
X18622Y47458D01*
X18290Y47126D01*
X18110Y46692D01*
Y46222D01*
X18290Y45788D01*
X18622Y45455D01*
X19056Y45276D01*
X19526D01*
X19960Y45455D01*
X20293Y45788D01*
X20472Y46222D01*
Y46692D01*
X20293Y47126D01*
X19960Y47458D01*
X19526Y47638D01*
D02*
G37*
G36*
X40038Y43504D02*
X39490D01*
X38983Y43294D01*
X38596Y42906D01*
X38386Y42400D01*
Y41852D01*
X38596Y41345D01*
X38983Y40958D01*
X39490Y40748D01*
X40038D01*
X40544Y40958D01*
X40932Y41345D01*
X41142Y41852D01*
Y42400D01*
X40932Y42906D01*
X40544Y43294D01*
X40038Y43504D01*
D02*
G37*
G36*
X15589Y42126D02*
X15119D01*
X14685Y41946D01*
X14353Y41614D01*
X14173Y41180D01*
Y41013D01*
X14055Y40669D01*
X13711Y40551D01*
X13545D01*
X13111Y40371D01*
X12778Y40039D01*
X12667Y39770D01*
X12137D01*
X12025Y40039D01*
X11693Y40371D01*
X11259Y40551D01*
X10789D01*
X10355Y40371D01*
X10039Y40056D01*
X9724Y40371D01*
X9290Y40551D01*
X8820D01*
X8386Y40371D01*
X8054Y40039D01*
X7874Y39605D01*
Y39135D01*
X8054Y38701D01*
X8386Y38369D01*
X8820Y38189D01*
X9290D01*
X9724Y38369D01*
X10039Y38684D01*
X10355Y38369D01*
X10789Y38189D01*
X11259D01*
X11693Y38369D01*
X12025Y38701D01*
X12137Y38970D01*
X12667D01*
X12778Y38701D01*
X13111Y38369D01*
X13545Y38189D01*
X14015D01*
X14449Y38369D01*
X14781Y38701D01*
X14961Y39135D01*
Y39302D01*
X15079Y39646D01*
X15423Y39764D01*
X15589D01*
X16023Y39944D01*
X16145Y40066D01*
X16213Y40133D01*
X16637Y39850D01*
X16600Y39762D01*
X16535Y39605D01*
Y39135D01*
X16715Y38701D01*
X17048Y38369D01*
X17482Y38189D01*
X17952D01*
X18386Y38369D01*
X18718Y38701D01*
X18898Y39135D01*
Y39605D01*
X18718Y40039D01*
X18386Y40371D01*
X17952Y40551D01*
X17482D01*
X17048Y40371D01*
X16926Y40249D01*
X16858Y40182D01*
X16434Y40465D01*
X16470Y40553D01*
X16535Y40710D01*
Y41180D01*
X16356Y41614D01*
X16023Y41946D01*
X15589Y42126D01*
D02*
G37*
G36*
X23463Y42520D02*
X22993D01*
X22559Y42340D01*
X22227Y42008D01*
X22047Y41574D01*
Y41104D01*
X22227Y40670D01*
X22542Y40354D01*
X22227Y40039D01*
X22047Y39605D01*
Y39135D01*
X22227Y38701D01*
X22559Y38369D01*
X22993Y38189D01*
X23463D01*
X23897Y38369D01*
X24101Y38573D01*
X24409Y38654D01*
X24718Y38573D01*
X24922Y38369D01*
X25356Y38189D01*
X25826D01*
X26260Y38369D01*
X26592Y38701D01*
X26772Y39135D01*
Y39605D01*
X26592Y40039D01*
X26260Y40371D01*
X25826Y40551D01*
X25356D01*
X24922Y40371D01*
X24833Y40282D01*
X24293Y40350D01*
X24208Y40648D01*
X24230Y40670D01*
X24409Y41104D01*
Y41574D01*
X24230Y42008D01*
X23897Y42340D01*
X23463Y42520D01*
D02*
G37*
G36*
X32230Y40741D02*
X31682D01*
X31175Y40531D01*
X30788Y40144D01*
X30578Y39637D01*
Y39089D01*
X30788Y38583D01*
X31175Y38195D01*
X31682Y37985D01*
X32230D01*
X32737Y38195D01*
X33124Y38583D01*
X33334Y39089D01*
Y39637D01*
X33124Y40144D01*
X32737Y40531D01*
X32230Y40741D01*
D02*
G37*
G36*
X37538Y36752D02*
X37068D01*
X36634Y36572D01*
X36302Y36240D01*
X36122Y35806D01*
Y35336D01*
X36302Y34902D01*
X36634Y34570D01*
X37068Y34390D01*
X37538D01*
X37972Y34570D01*
X38305Y34902D01*
X38484Y35336D01*
Y35806D01*
X38305Y36240D01*
X37972Y36572D01*
X37538Y36752D01*
D02*
G37*
G36*
X6140Y39370D02*
X5671D01*
X5237Y39190D01*
X4904Y38858D01*
X4724Y38424D01*
Y37954D01*
X4904Y37520D01*
X5237Y37188D01*
X5326Y37150D01*
Y36609D01*
X5237Y36572D01*
X4904Y36240D01*
X4724Y35806D01*
Y35336D01*
X4904Y34902D01*
X5237Y34570D01*
X5671Y34390D01*
X6140D01*
X6575Y34570D01*
X6907Y34902D01*
X7087Y35336D01*
Y35806D01*
X6907Y36240D01*
X6575Y36572D01*
X6485Y36609D01*
Y37150D01*
X6575Y37188D01*
X6907Y37520D01*
X7087Y37954D01*
Y38424D01*
X6907Y38858D01*
X6575Y39190D01*
X6140Y39370D01*
D02*
G37*
G36*
X39605Y33858D02*
X39135D01*
X38701Y33678D01*
X38369Y33346D01*
X38189Y32912D01*
Y32442D01*
X38369Y32008D01*
X38701Y31676D01*
X39135Y31496D01*
X39605D01*
X40039Y31676D01*
X40371Y32008D01*
X40551Y32442D01*
Y32912D01*
X40371Y33346D01*
X40039Y33678D01*
X39605Y33858D01*
D02*
G37*
G36*
X39626Y28343D02*
X39156D01*
X38722Y28163D01*
X38390Y27831D01*
X38210Y27397D01*
Y26927D01*
X38390Y26493D01*
X38722Y26161D01*
X39156Y25981D01*
X39626D01*
X40060Y26161D01*
X40392Y26493D01*
X40572Y26927D01*
Y27397D01*
X40392Y27831D01*
X40060Y28163D01*
X39626Y28343D01*
D02*
G37*
G36*
X49448Y27953D02*
X48978D01*
X48544Y27773D01*
X48211Y27441D01*
X48031Y27007D01*
Y26537D01*
X48211Y26103D01*
X48544Y25770D01*
X48978Y25591D01*
X49448D01*
X49882Y25770D01*
X50214Y26103D01*
X50394Y26537D01*
Y27007D01*
X50214Y27441D01*
X49882Y27773D01*
X49448Y27953D01*
D02*
G37*
G36*
X40786Y24803D02*
X40316D01*
X39882Y24623D01*
X39550Y24291D01*
X39370Y23857D01*
Y23387D01*
X39550Y22953D01*
X39882Y22621D01*
X40316Y22441D01*
X40786D01*
X41220Y22621D01*
X41552Y22953D01*
X41732Y23387D01*
Y23857D01*
X41552Y24291D01*
X41220Y24623D01*
X40786Y24803D01*
D02*
G37*
G36*
X49448Y22894D02*
X48978D01*
X48544Y22714D01*
X48211Y22382D01*
X48031Y21948D01*
Y21478D01*
X48211Y21044D01*
X48544Y20711D01*
X48978Y20531D01*
X49448D01*
X49882Y20711D01*
X50214Y21044D01*
X50394Y21478D01*
Y21948D01*
X50214Y22382D01*
X49882Y22714D01*
X49448Y22894D01*
D02*
G37*
G36*
Y18110D02*
X48978D01*
X48544Y17930D01*
X48211Y17598D01*
X48031Y17164D01*
Y16694D01*
X48211Y16260D01*
X48544Y15928D01*
X48978Y15748D01*
X49448D01*
X49882Y15928D01*
X50214Y16260D01*
X50394Y16694D01*
Y17164D01*
X50214Y17598D01*
X49882Y17930D01*
X49448Y18110D01*
D02*
G37*
G36*
X42459Y16929D02*
X41989D01*
X41555Y16749D01*
X41223Y16417D01*
X41043Y15983D01*
Y15513D01*
X41223Y15079D01*
X41555Y14747D01*
X41989Y14567D01*
X42459D01*
X42893Y14747D01*
X43226Y15079D01*
X43406Y15513D01*
Y15983D01*
X43226Y16417D01*
X42893Y16749D01*
X42459Y16929D01*
D02*
G37*
G36*
X39605Y14567D02*
X39135D01*
X38701Y14387D01*
X38369Y14055D01*
X38189Y13621D01*
Y13151D01*
X38369Y12717D01*
X38701Y12385D01*
X38930Y12290D01*
X39370Y12046D01*
Y11576D01*
X39550Y11142D01*
X39882Y10810D01*
X40316Y10630D01*
X40786D01*
X41220Y10810D01*
X41552Y11142D01*
X41732Y11576D01*
Y12046D01*
X41552Y12480D01*
X41220Y12812D01*
X40991Y12907D01*
X40551Y13151D01*
Y13621D01*
X40371Y14055D01*
X40039Y14387D01*
X39605Y14567D01*
D02*
G37*
G36*
X38069Y6890D02*
X37521D01*
X37015Y6680D01*
X36627Y6292D01*
X36417Y5786D01*
Y5238D01*
X36627Y4731D01*
X37015Y4344D01*
X37521Y4134D01*
X38069D01*
X38576Y4344D01*
X38963Y4731D01*
X39173Y5238D01*
Y5786D01*
X38963Y6292D01*
X38576Y6680D01*
X38069Y6890D01*
D02*
G37*
G36*
X93187Y83268D02*
X92639D01*
X92133Y83058D01*
X91745Y82670D01*
X91535Y82164D01*
Y81616D01*
X91745Y81109D01*
X92133Y80722D01*
X92639Y80512D01*
X93187D01*
X93694Y80722D01*
X94082Y81109D01*
X94291Y81616D01*
Y82164D01*
X94082Y82670D01*
X93694Y83058D01*
X93187Y83268D01*
D02*
G37*
G36*
X188714Y80913D02*
X187664D01*
X186651Y80642D01*
X185743Y80117D01*
X185001Y79375D01*
X184476Y78467D01*
X184205Y77454D01*
Y76405D01*
X184476Y75391D01*
X185001Y74483D01*
X185743Y73741D01*
X186651Y73216D01*
X187664Y72945D01*
X188714D01*
X189727Y73216D01*
X190635Y73741D01*
X191377Y74483D01*
X191902Y75391D01*
X192173Y76405D01*
Y77454D01*
X191902Y78467D01*
X191377Y79375D01*
X190635Y80117D01*
X189727Y80642D01*
X188714Y80913D01*
D02*
G37*
G36*
X144369Y75394D02*
X143820D01*
X143314Y75184D01*
X142926Y74796D01*
X142717Y74290D01*
Y73742D01*
X142926Y73235D01*
X143314Y72848D01*
X143820Y72638D01*
X144369D01*
X144875Y72848D01*
X145263Y73235D01*
X145472Y73742D01*
Y74290D01*
X145263Y74796D01*
X144875Y75184D01*
X144369Y75394D01*
D02*
G37*
G36*
X141219Y73819D02*
X140671D01*
X140164Y73609D01*
X139777Y73221D01*
X139567Y72715D01*
Y72167D01*
X139777Y71660D01*
X140164Y71273D01*
X140671Y71063D01*
X141219D01*
X141725Y71273D01*
X142113Y71660D01*
X142323Y72167D01*
Y72715D01*
X142113Y73221D01*
X141725Y73609D01*
X141219Y73819D01*
D02*
G37*
G36*
X180589Y71457D02*
X180041D01*
X179534Y71247D01*
X179147Y70859D01*
X178937Y70353D01*
Y69805D01*
X179147Y69298D01*
X179534Y68911D01*
X180041Y68701D01*
X180589D01*
X181096Y68911D01*
X181483Y69298D01*
X181693Y69805D01*
Y70353D01*
X181483Y70859D01*
X181096Y71247D01*
X180589Y71457D01*
D02*
G37*
G36*
X164841Y68701D02*
X164293D01*
X163786Y68491D01*
X163399Y68103D01*
X163189Y67597D01*
Y67049D01*
X163399Y66542D01*
X163786Y66155D01*
X164293Y65945D01*
X164841D01*
X165348Y66155D01*
X165735Y66542D01*
X165945Y67049D01*
Y67597D01*
X165735Y68103D01*
X165348Y68491D01*
X164841Y68701D01*
D02*
G37*
G36*
X188714Y70913D02*
X187664D01*
X186651Y70642D01*
X185743Y70117D01*
X185001Y69375D01*
X184476Y68467D01*
X184205Y67454D01*
Y66405D01*
X184476Y65391D01*
X185001Y64483D01*
X185743Y63741D01*
X186651Y63216D01*
X187664Y62945D01*
X188714D01*
X189727Y63216D01*
X190635Y63741D01*
X191377Y64483D01*
X191902Y65391D01*
X192173Y66405D01*
Y67454D01*
X191902Y68467D01*
X191377Y69375D01*
X190635Y70117D01*
X189727Y70642D01*
X188714Y70913D01*
D02*
G37*
G36*
X167597Y63976D02*
X167049D01*
X166542Y63767D01*
X166155Y63379D01*
X165945Y62872D01*
Y62324D01*
X166155Y61818D01*
X166542Y61430D01*
X167049Y61221D01*
X167597D01*
X168103Y61430D01*
X168491Y61818D01*
X168701Y62324D01*
Y62872D01*
X168491Y63379D01*
X168103Y63767D01*
X167597Y63976D01*
D02*
G37*
G36*
X158542Y61614D02*
X157994D01*
X157487Y61404D01*
X157099Y61017D01*
X156890Y60510D01*
Y59962D01*
X157099Y59456D01*
X157487Y59068D01*
X157994Y58858D01*
X158542D01*
X159048Y59068D01*
X159436Y59456D01*
X159646Y59962D01*
Y60510D01*
X159436Y61017D01*
X159048Y61404D01*
X158542Y61614D01*
D02*
G37*
G36*
X89250D02*
X88702D01*
X88196Y61404D01*
X87808Y61017D01*
X87598Y60510D01*
Y59962D01*
X87808Y59456D01*
X88196Y59068D01*
X88702Y58858D01*
X89250D01*
X89757Y59068D01*
X90145Y59456D01*
X90354Y59962D01*
Y60510D01*
X90145Y61017D01*
X89757Y61404D01*
X89250Y61614D01*
D02*
G37*
G36*
X188716Y60929D02*
X188689D01*
Y57429D01*
X192189D01*
Y57456D01*
X191916Y58473D01*
X191390Y59385D01*
X190645Y60130D01*
X189733Y60656D01*
X188716Y60929D01*
D02*
G37*
G36*
X187689D02*
X187662D01*
X186645Y60656D01*
X185733Y60130D01*
X184988Y59385D01*
X184462Y58473D01*
X184189Y57456D01*
Y57429D01*
X187689D01*
Y60929D01*
D02*
G37*
G36*
X165235Y58858D02*
X164687D01*
X164180Y58649D01*
X163793Y58261D01*
X163583Y57754D01*
Y57206D01*
X163793Y56700D01*
X164180Y56312D01*
X164687Y56102D01*
X165235D01*
X165741Y56312D01*
X166129Y56700D01*
X166339Y57206D01*
Y57754D01*
X166129Y58261D01*
X165741Y58649D01*
X165235Y58858D01*
D02*
G37*
G36*
X161691Y56880D02*
X161143D01*
X160637Y56670D01*
X160249Y56283D01*
X160039Y55776D01*
Y55228D01*
X160249Y54721D01*
X160637Y54334D01*
X161143Y54124D01*
X161691D01*
X162198Y54334D01*
X162585Y54721D01*
X162795Y55228D01*
Y55776D01*
X162585Y56283D01*
X162198Y56670D01*
X161691Y56880D01*
D02*
G37*
G36*
X92006D02*
X91458D01*
X90952Y56670D01*
X90564Y56283D01*
X90354Y55776D01*
Y55228D01*
X90564Y54721D01*
X90952Y54334D01*
X91458Y54124D01*
X92006D01*
X92513Y54334D01*
X92901Y54721D01*
X93110Y55228D01*
Y55776D01*
X92901Y56283D01*
X92513Y56670D01*
X92006Y56880D01*
D02*
G37*
G36*
X192189Y56429D02*
X188689D01*
Y52929D01*
X188716D01*
X189733Y53202D01*
X190645Y53728D01*
X191390Y54473D01*
X191916Y55385D01*
X192189Y56402D01*
Y56429D01*
D02*
G37*
G36*
X187689D02*
X184189D01*
Y56402D01*
X184462Y55385D01*
X184988Y54473D01*
X185733Y53728D01*
X186645Y53202D01*
X187662Y52929D01*
X187689D01*
Y56429D01*
D02*
G37*
G36*
X144369Y53740D02*
X143820D01*
X143314Y53530D01*
X142926Y53143D01*
X142717Y52636D01*
Y52088D01*
X142926Y51582D01*
X143314Y51194D01*
X143820Y50984D01*
X144369D01*
X144875Y51194D01*
X145263Y51582D01*
X145472Y52088D01*
Y52636D01*
X145263Y53143D01*
X144875Y53530D01*
X144369Y53740D01*
D02*
G37*
G36*
X158935Y53347D02*
X158387D01*
X157881Y53137D01*
X157493Y52749D01*
X157283Y52243D01*
Y51694D01*
X157493Y51188D01*
X157881Y50800D01*
X158387Y50591D01*
X158935D01*
X159442Y50800D01*
X159830Y51188D01*
X160039Y51694D01*
Y52243D01*
X159830Y52749D01*
X159442Y53137D01*
X158935Y53347D01*
D02*
G37*
G36*
X92794Y49409D02*
X92246D01*
X91739Y49200D01*
X91351Y48812D01*
X91142Y48306D01*
Y47757D01*
X91351Y47251D01*
X91739Y46863D01*
X92246Y46654D01*
X92794D01*
X93300Y46863D01*
X93688Y47251D01*
X93898Y47757D01*
Y48306D01*
X93688Y48812D01*
X93300Y49200D01*
X92794Y49409D01*
D02*
G37*
G36*
X92780Y42731D02*
X92232D01*
X91725Y42521D01*
X91338Y42133D01*
X91128Y41627D01*
Y41078D01*
X91338Y40572D01*
X91725Y40184D01*
X92232Y39975D01*
X92780D01*
X93286Y40184D01*
X93674Y40572D01*
X93884Y41078D01*
Y41627D01*
X93674Y42133D01*
X93286Y42521D01*
X92780Y42731D01*
D02*
G37*
G36*
X192006Y23819D02*
X191458D01*
X190952Y23609D01*
X190564Y23222D01*
X190354Y22715D01*
Y22167D01*
X190564Y21660D01*
X190952Y21273D01*
X191458Y21063D01*
X192006D01*
X192513Y21273D01*
X192901Y21660D01*
X193110Y22167D01*
Y22715D01*
X192901Y23222D01*
X192513Y23609D01*
X192006Y23819D01*
D02*
G37*
G36*
X156573Y12008D02*
X156025D01*
X155519Y11798D01*
X155131Y11411D01*
X154921Y10904D01*
Y10356D01*
X155131Y9849D01*
X155519Y9462D01*
X156025Y9252D01*
X156573D01*
X157080Y9462D01*
X157467Y9849D01*
X157677Y10356D01*
Y10904D01*
X157467Y11411D01*
X157080Y11798D01*
X156573Y12008D01*
D02*
G37*
G36*
X93187Y6890D02*
X92639D01*
X92133Y6680D01*
X91745Y6292D01*
X91535Y5786D01*
Y5238D01*
X91745Y4731D01*
X92133Y4344D01*
X92639Y4134D01*
X93187D01*
X93694Y4344D01*
X94082Y4731D01*
X94291Y5238D01*
Y5786D01*
X94082Y6292D01*
X93694Y6680D01*
X93187Y6890D01*
D02*
G37*
G36*
X156573Y5709D02*
X156025D01*
X155519Y5499D01*
X155131Y5111D01*
X154921Y4605D01*
Y4057D01*
X155131Y3550D01*
X155519Y3162D01*
X156025Y2953D01*
X156573D01*
X157080Y3162D01*
X157467Y3550D01*
X157677Y4057D01*
Y4605D01*
X157467Y5111D01*
X157080Y5499D01*
X156573Y5709D01*
D02*
G37*
%LPD*%
D44*
X105905Y27559D02*
D03*
D45*
X42126Y2362D02*
D03*
X41535Y32677D02*
D03*
X167323Y55512D02*
D03*
X126772Y11024D02*
D03*
X126378Y44094D02*
D03*
X191732Y46850D02*
D03*
X87693Y80268D02*
D03*
X88189Y2756D02*
D03*
X92520Y44094D02*
D03*
X87402Y36614D02*
D03*
X22047Y30709D02*
D03*
X30315Y10630D02*
D03*
X13386Y30709D02*
D03*
X42217Y45276D02*
D03*
X41803Y84252D02*
D03*
X31496Y2362D02*
D03*
X21654Y10630D02*
D03*
X11811D02*
D03*
X29528Y21654D02*
D03*
X30709Y30315D02*
D03*
X10236Y27559D02*
D03*
D46*
X2545Y75183D02*
D03*
X35433Y53543D02*
D03*
X33071Y71653D02*
D03*
X20472Y61811D02*
D03*
X41961Y75787D02*
D03*
X34646Y49606D02*
D03*
X4724Y57087D02*
D03*
X2362Y22441D02*
D03*
X11811Y75984D02*
D03*
X26772Y53150D02*
D03*
D47*
X188189Y56929D02*
D03*
M02*
